<?xml version="1.0" encoding="utf-8" standalone="no"?>
<!DOCTYPE svg PUBLIC "-//W3C//DTD SVG 1.1//EN"
  "http://www.w3.org/Graphics/SVG/1.1/DTD/svg11.dtd">
<!-- Created with matplotlib (http://matplotlib.org/) -->
<svg height="360pt" version="1.1" viewBox="0 0 360 360" width="360pt" xmlns="http://www.w3.org/2000/svg" xmlns:xlink="http://www.w3.org/1999/xlink">
 <defs>
  <style type="text/css">
*{stroke-linecap:butt;stroke-linejoin:round;}
  </style>
 </defs>
 <g id="figure_1">
  <g id="patch_1">
   <path d="M 0 360 
L 360 360 
L 360 0 
L 0 0 
z
" style="fill:#ffffff;"/>
  </g>
  <g id="axes_1">
   <g id="line2d_1">
    <path clip-path="url(#p79ff0eb837)" d="M 70.997992 311.05907 
L 69.551122 310.893369 
L 68.096667 310.729014 
L 66.67898 310.54652 
L 65.274513 310.327086 
L 63.86614 310.071576 
L 62.452543 309.786385 
L 61.032409 309.478203 
L 59.604389 309.154025 
L 58.167349 308.821224 
L 56.73179 308.489503 
L 55.303007 308.166116 
L 53.879739 307.85647 
L 52.460763 307.565801 
L 51.044872 307.299167 
L 49.630868 307.061464 
L 48.218391 306.857502 
L 46.808356 306.692073 
L 45.401732 306.56982 
L 43.999416 306.495226 
L 42.602175 306.47263 
L 41.210638 306.506235 
L 39.826875 306.599857 
L 38.455262 306.75688 
L 37.100121 306.980515 
L 35.765497 307.273843 
L 34.495226 307.636134 
L 33.333483 308.090987 
L 32.072072 308.70447 
L 30.978498 309.317369 
L 30.124044 309.985392 
L 29.55999 310.660307 
L 29.470527 311.004573 
L 29.571346 311.309366 
L 29.950579 311.663472 
L 30.640463 311.852758 
L 31.858352 311.935783 
L 33.276132 311.927914 
L 34.738167 311.90183 
L 36.207543 311.867032 
L 37.683279 311.828764 
L 39.154366 311.792645 
L 40.618003 311.764004 
L 42.074373 311.747934 
L 43.530274 311.747637 
L 44.990362 311.76119 
L 46.454676 311.785713 
L 47.923256 311.818279 
L 49.396139 311.855908 
L 50.872745 311.89555 
L 52.346741 311.933964 
L 53.816477 311.96806 
L 55.28199 311.994843 
L 56.743317 312.011374 
L 58.2005 312.014762 
L 59.654149 312.002265 
L 61.105405 311.972015 
L 62.553998 311.922581 
L 63.99961 311.852546 
L 65.441927 311.760507 
L 66.880615 311.645074 
L 68.295897 311.502404 
L 69.66871 311.31436 
L 70.997958 311.060747 
" style="fill:none;stroke:#000000;stroke-linecap:square;stroke-opacity:0.7;stroke-width:1.5;"/>
   </g>
   <g id="line2d_2">
    <path clip-path="url(#p79ff0eb837)" d="M 40.699709 308.940875 
L 40.692785 308.80214 
L 40.672082 308.664784 
L 40.637805 308.530172 
L 40.590296 308.399641 
L 40.530026 308.27449 
L 40.457595 308.155961 
L 40.373722 308.045233 
L 40.279241 307.943407 
L 40.17509 307.851493 
L 40.062306 307.770407 
L 39.942008 307.700953 
L 39.815393 307.643822 
L 39.683719 307.599582 
L 39.548294 307.568672 
L 39.410464 307.5514 
L 39.271599 307.547937 
L 39.13308 307.558317 
L 38.996283 307.582438 
L 38.862567 307.62006 
L 38.733261 307.670809 
L 38.609651 307.73418 
L 38.492965 307.809544 
L 38.384363 307.896151 
L 38.284923 307.993142 
L 38.195635 308.099551 
L 38.117386 308.214322 
L 38.050952 308.336314 
L 37.996996 308.464314 
L 37.956052 308.597051 
L 37.928528 308.733204 
L 37.914697 308.871422 
L 37.914697 309.010329 
L 37.928528 309.148547 
L 37.956052 309.2847 
L 37.996996 309.417437 
L 38.050952 309.545437 
L 38.117386 309.667429 
L 38.195635 309.7822 
L 38.284923 309.888609 
L 38.384363 309.985599 
L 38.492965 310.072207 
L 38.609651 310.147571 
L 38.733261 310.210942 
L 38.862567 310.261691 
L 38.996283 310.299313 
L 39.13308 310.323434 
L 39.271599 310.333814 
L 39.410464 310.330351 
L 39.548294 310.313079 
L 39.683719 310.282169 
L 39.815393 310.237929 
L 39.942008 310.180798 
L 40.062306 310.111344 
L 40.17509 310.030257 
L 40.279241 309.938344 
L 40.373722 309.836518 
L 40.457595 309.72579 
L 40.530026 309.607261 
L 40.590296 309.48211 
L 40.637805 309.351579 
L 40.672082 309.216967 
L 40.692785 309.07961 
L 40.699709 308.940875 
" style="fill:none;stroke:#000000;stroke-linecap:square;stroke-opacity:0.7;stroke-width:1.5;"/>
   </g>
   <g id="line2d_3">
    <path clip-path="url(#p79ff0eb837)" d="M 70.995447 246.182095 
L 69.914935 245.714735 
L 68.593523 245.283334 
L 67.221312 244.885199 
L 65.822521 244.514311 
L 64.400482 244.158597 
L 62.973247 243.815302 
L 61.545614 243.487493 
L 60.11762 243.177734 
L 58.689301 242.888553 
L 57.260697 242.622436 
L 55.831841 242.381828 
L 54.402755 242.169138 
L 52.97345 241.986731 
L 51.543913 241.83694 
L 50.114097 241.722057 
L 48.682619 241.643865 
L 47.249553 241.603024 
L 45.816355 241.600046 
L 44.384474 241.63543 
L 42.955348 241.709667 
L 41.531524 241.82327 
L 40.120503 241.978762 
L 38.725053 242.18112 
L 37.346895 242.435298 
L 35.987559 242.746106 
L 34.653145 243.117537 
L 33.365596 243.555049 
L 32.138056 244.068613 
L 30.981606 244.666684 
L 30.069836 245.289205 
L 29.572522 245.842127 
L 29.478126 246.159872 
L 29.547853 246.34655 
L 29.776409 246.503227 
L 30.594132 246.630841 
L 31.941861 246.600704 
L 33.389067 246.529815 
L 34.855144 246.438233 
L 36.336861 246.339727 
L 37.819984 246.241177 
L 39.300267 246.1411 
L 40.777348 246.037479 
L 42.250955 245.928314 
L 43.724281 245.812132 
L 45.201351 245.690755 
L 46.681802 245.567301 
L 48.159585 245.4454 
L 49.633687 245.32823 
L 51.104561 245.218791 
L 52.572457 245.119949 
L 54.037199 245.034482 
L 55.498578 244.965121 
L 56.956387 244.914555 
L 58.410426 244.885425 
L 59.860507 244.880333 
L 61.30646 244.901836 
L 62.748134 244.95245 
L 64.185406 245.034658 
L 65.615267 245.150964 
L 67.017761 245.309181 
L 68.385018 245.523855 
L 69.712976 245.808463 
L 70.998851 246.175269 
" style="fill:none;stroke:#000000;stroke-linecap:square;stroke-opacity:0.7;stroke-width:1.5;"/>
   </g>
   <g id="line2d_4">
    <path clip-path="url(#p79ff0eb837)" d="M 45.977143 243.755045 
L 45.970459 243.621131 
L 45.950476 243.488549 
L 45.917391 243.358614 
L 45.871532 243.23262 
L 45.813357 243.111818 
L 45.743443 242.997408 
L 45.662485 242.890528 
L 45.571287 242.792241 
L 45.470756 242.703522 
L 45.361891 242.625253 
L 45.245774 242.558213 
L 45.123559 242.503067 
L 44.99646 242.460364 
L 44.865742 242.430529 
L 44.732702 242.413857 
L 44.598663 242.410514 
L 44.464958 242.420534 
L 44.332915 242.443817 
L 44.203846 242.480131 
L 44.079034 242.529116 
L 43.959719 242.590285 
L 43.847088 242.66303 
L 43.74226 242.746628 
L 43.646277 242.840247 
L 43.560091 242.942959 
L 43.484561 243.053741 
L 43.420437 243.171493 
L 43.368355 243.295045 
L 43.328834 243.423169 
L 43.302267 243.554591 
L 43.288917 243.688005 
L 43.288917 243.822085 
L 43.302267 243.955499 
L 43.328834 244.086921 
L 43.368355 244.215045 
L 43.420437 244.338596 
L 43.484561 244.456349 
L 43.560091 244.567131 
L 43.646277 244.669843 
L 43.74226 244.763462 
L 43.847088 244.84706 
L 43.959719 244.919805 
L 44.079034 244.980974 
L 44.203846 245.029959 
L 44.332915 245.066273 
L 44.464958 245.089556 
L 44.598663 245.099576 
L 44.732702 245.096233 
L 44.865742 245.079561 
L 44.99646 245.049725 
L 45.123559 245.007023 
L 45.245774 244.951877 
L 45.361891 244.884837 
L 45.470756 244.806568 
L 45.571287 244.717849 
L 45.662485 244.619562 
L 45.743443 244.512682 
L 45.813357 244.398272 
L 45.871532 244.27747 
L 45.917391 244.151476 
L 45.950476 244.021541 
L 45.970459 243.888959 
L 45.977143 243.755045 
" style="fill:none;stroke:#000000;stroke-linecap:square;stroke-opacity:0.7;stroke-width:1.5;"/>
   </g>
   <g id="line2d_5">
    <path clip-path="url(#p79ff0eb837)" d="M 70.998684 181.188247 
L 69.553712 180.791105 
L 68.105465 180.408388 
L 66.653965 180.040007 
L 65.19923 179.685875 
L 63.741281 179.345904 
L 62.280139 179.020006 
L 60.815824 178.708093 
L 59.348358 178.410078 
L 57.87776 178.125875 
L 56.404052 177.855396 
L 54.927256 177.598555 
L 53.448467 177.355605 
L 51.971651 177.129387 
L 50.497328 176.923599 
L 49.025663 176.741832 
L 47.556814 176.587602 
L 46.090923 176.464346 
L 44.628105 176.375426 
L 43.168442 176.324133 
L 41.711956 176.313696 
L 40.25862 176.347289 
L 38.814795 176.428612 
L 37.401955 176.56857 
L 36.028884 176.78164 
L 34.702098 177.080617 
L 33.426164 177.477075 
L 32.21138 177.979263 
L 31.175664 178.567595 
L 30.362737 179.262096 
L 29.799146 180.05518 
L 29.513107 180.898159 
L 29.514384 181.692852 
L 29.800725 182.523048 
L 30.374495 183.335303 
L 31.175683 184.018128 
L 32.219706 184.611437 
L 33.419903 185.102246 
L 34.71549 185.499622 
L 36.049465 185.802854 
L 37.418923 186.02099 
L 38.820815 186.163777 
L 40.251054 186.241757 
L 41.704819 186.266519 
L 43.171312 186.24966 
L 44.638453 186.196246 
L 46.106157 186.108553 
L 47.57453 185.988877 
L 49.043649 185.839545 
L 50.513575 185.662916 
L 51.984354 185.461383 
L 53.45602 185.23738 
L 54.928603 184.993375 
L 56.402125 184.731874 
L 57.876615 184.455421 
L 59.351361 184.166644 
L 60.82268 183.866968 
L 62.28991 183.55565 
L 63.752873 183.231803 
L 65.211397 182.894544 
L 66.665312 182.542993 
L 68.114451 182.176275 
L 69.558651 181.793519 
L 70.997752 181.393854 
" style="fill:none;stroke:#000000;stroke-linecap:square;stroke-opacity:0.7;stroke-width:1.5;"/>
   </g>
   <g id="line2d_6">
    <path clip-path="url(#p79ff0eb837)" d="M 49.477789 182.251028 
L 49.468743 182.069775 
L 49.441695 181.890324 
L 49.396914 181.714457 
L 49.334845 181.543923 
L 49.256105 181.380417 
L 49.161475 181.225563 
L 49.051898 181.080901 
L 48.928461 180.947868 
L 48.792392 180.827786 
L 48.645043 180.721849 
L 48.487878 180.63111 
L 48.32246 180.55647 
L 48.150431 180.498672 
L 47.973503 180.458289 
L 47.793433 180.435724 
L 47.612011 180.431199 
L 47.43104 180.444761 
L 47.252319 180.476275 
L 47.077623 180.525426 
L 46.90869 180.591728 
L 46.747197 180.67452 
L 46.594751 180.77298 
L 46.452865 180.88613 
L 46.322951 181.012845 
L 46.206299 181.151866 
L 46.104069 181.30181 
L 46.017276 181.461188 
L 45.946783 181.628416 
L 45.893292 181.801832 
L 45.857332 181.979712 
L 45.839263 182.160289 
L 45.839263 182.341767 
L 45.857332 182.522344 
L 45.893292 182.700224 
L 45.946783 182.87364 
L 46.017276 183.040868 
L 46.104069 183.200246 
L 46.206299 183.35019 
L 46.322951 183.489211 
L 46.452865 183.615926 
L 46.594751 183.729076 
L 46.747197 183.827536 
L 46.90869 183.910328 
L 47.077623 183.97663 
L 47.252319 184.025782 
L 47.43104 184.057295 
L 47.612011 184.070857 
L 47.793433 184.066332 
L 47.973503 184.043767 
L 48.150431 184.003384 
L 48.32246 183.945586 
L 48.487878 183.870946 
L 48.645043 183.780207 
L 48.792392 183.67427 
L 48.928461 183.554188 
L 49.051898 183.421155 
L 49.161475 183.276493 
L 49.256105 183.121639 
L 49.334845 182.958133 
L 49.396914 182.787599 
L 49.441695 182.611732 
L 49.468743 182.432281 
L 49.477789 182.251028 
" style="fill:none;stroke:#000000;stroke-linecap:square;stroke-opacity:0.7;stroke-width:1.5;"/>
   </g>
   <g id="line2d_7">
    <path clip-path="url(#p79ff0eb837)" d="M 71.004415 116.398683 
L 70.292268 116.145332 
L 68.923783 115.831983 
L 67.47499 115.524397 
L 66.020273 115.217802 
L 64.584369 114.904613 
L 63.155997 114.574378 
L 61.728213 114.226478 
L 60.288717 113.864381 
L 58.870687 113.519424 
L 57.474584 113.215745 
L 56.070783 112.956495 
L 54.655643 112.738586 
L 53.230217 112.55942 
L 51.795614 112.416358 
L 50.352995 112.306709 
L 48.906483 112.228507 
L 47.461205 112.182823 
L 46.018301 112.171409 
L 44.578867 112.195989 
L 43.143969 112.258263 
L 41.714649 112.359906 
L 40.29191 112.502573 
L 38.876719 112.687903 
L 37.470002 112.917522 
L 36.072641 113.193051 
L 34.694952 113.515118 
L 33.37832 113.891806 
L 32.137076 114.34394 
L 30.979449 114.889131 
L 30.080175 115.475577 
L 29.58254 116.023559 
L 29.478844 116.396653 
L 29.574555 116.711931 
L 29.951313 117.04024 
L 30.80565 117.371877 
L 32.086722 117.637139 
L 33.439554 117.818848 
L 34.845648 117.936391 
L 36.297814 118.016901 
L 37.757618 118.074243 
L 39.218712 118.109292 
L 40.68086 118.122609 
L 42.143823 118.114759 
L 43.607383 118.086312 
L 45.071338 118.037861 
L 46.535468 117.970007 
L 47.999545 117.883357 
L 49.463342 117.778516 
L 50.926804 117.6561 
L 52.390947 117.517118 
L 53.855981 117.363179 
L 55.315683 117.195646 
L 56.751951 117.007391 
L 58.199858 116.78934 
L 59.638225 116.587943 
L 61.075275 116.41705 
L 62.510701 116.279947 
L 63.944227 116.179847 
L 65.375114 116.119947 
L 66.795556 116.105728 
L 68.201057 116.145582 
L 69.589947 116.247638 
L 70.997235 116.414447 
" style="fill:none;stroke:#000000;stroke-linecap:square;stroke-opacity:0.7;stroke-width:1.5;"/>
   </g>
   <g id="line2d_8">
    <path clip-path="url(#p79ff0eb837)" d="M 41.016887 115.724805 
L 41.007468 115.536089 
L 40.979307 115.349249 
L 40.932682 115.166141 
L 40.868057 114.988585 
L 40.786074 114.818347 
L 40.687549 114.657117 
L 40.573459 114.506498 
L 40.44494 114.367987 
L 40.303268 114.242961 
L 40.149852 114.132662 
L 39.986216 114.038187 
L 39.813986 113.960474 
L 39.634875 113.900296 
L 39.450661 113.85825 
L 39.263177 113.834755 
L 39.074285 113.830045 
L 38.885862 113.844165 
L 38.699782 113.876976 
L 38.517894 113.928151 
L 38.342004 113.997183 
L 38.173862 114.083384 
L 38.015139 114.185899 
L 37.867411 114.303708 
L 37.732148 114.43564 
L 37.610692 114.580385 
L 37.504253 114.736503 
L 37.413886 114.902444 
L 37.340491 115.076557 
L 37.284797 115.257114 
L 37.247357 115.442318 
L 37.228544 115.63033 
L 37.228544 115.819281 
L 37.247357 116.007292 
L 37.284797 116.192497 
L 37.340491 116.373053 
L 37.413886 116.547167 
L 37.504253 116.713107 
L 37.610692 116.869226 
L 37.732148 117.01397 
L 37.867411 117.145903 
L 38.015139 117.263712 
L 38.173862 117.366226 
L 38.342004 117.452427 
L 38.517894 117.521459 
L 38.699782 117.572634 
L 38.885862 117.605445 
L 39.074285 117.619566 
L 39.263177 117.614855 
L 39.450661 117.59136 
L 39.634875 117.549315 
L 39.813986 117.489136 
L 39.986216 117.411423 
L 40.149852 117.316948 
L 40.303268 117.206649 
L 40.44494 117.081623 
L 40.573459 116.943112 
L 40.687549 116.792494 
L 40.786074 116.631264 
L 40.868057 116.461025 
L 40.932682 116.283469 
L 40.979307 116.100361 
L 41.007468 115.913521 
L 41.016887 115.724805 
" style="fill:none;stroke:#000000;stroke-linecap:square;stroke-opacity:0.7;stroke-width:1.5;"/>
   </g>
   <g id="line2d_9">
    <path clip-path="url(#p79ff0eb837)" d="M 70.998661 51.520095 
L 69.583972 51.16153 
L 68.154067 50.814814 
L 66.711229 50.472092 
L 65.272821 50.12874 
L 63.841745 49.778232 
L 62.40978 49.418683 
L 60.976235 49.052204 
L 59.540451 48.680945 
L 58.104174 48.308469 
L 56.677133 47.944681 
L 55.258272 47.597873 
L 53.845656 47.275703 
L 52.437855 46.985572 
L 51.046995 46.741032 
L 49.677935 46.561209 
L 48.309396 46.458042 
L 46.902417 46.418665 
L 45.477931 46.425875 
L 44.056058 46.476628 
L 42.637752 46.571419 
L 41.223947 46.710743 
L 39.815998 46.895065 
L 38.42172 47.125797 
L 37.046555 47.407465 
L 35.694002 47.744884 
L 34.367396 48.142649 
L 33.09899 48.601369 
L 31.920574 49.136959 
L 30.866683 49.757935 
L 30.051541 50.435 
L 29.58173 51.098717 
L 29.465171 51.547286 
L 29.557651 51.805687 
L 30.01298 52.183767 
L 30.969784 52.558726 
L 32.238687 52.889412 
L 33.570447 53.13152 
L 34.966174 53.312191 
L 36.407319 53.460243 
L 37.854203 53.583645 
L 39.305075 53.683785 
L 40.759641 53.762151 
L 42.217599 53.820244 
L 43.678638 53.85958 
L 45.142441 53.88169 
L 46.608687 53.888117 
L 48.076867 53.880416 
L 49.542031 53.85875 
L 51.001976 53.820328 
L 52.456608 53.762034 
L 53.905852 53.680807 
L 55.347565 53.573503 
L 56.773873 53.434203 
L 58.184257 53.25474 
L 59.606408 53.03274 
L 61.051614 52.783051 
L 62.510163 52.524721 
L 63.951979 52.279419 
L 65.394031 52.053579 
L 66.837096 51.846138 
L 68.252512 51.673458 
L 69.638667 51.557441 
L 70.998012 51.516767 
" style="fill:none;stroke:#000000;stroke-linecap:square;stroke-opacity:0.7;stroke-width:1.5;"/>
   </g>
   <g id="line2d_10">
    <path clip-path="url(#p79ff0eb837)" d="M 43.755947 50.079658 
L 43.745689 49.874129 
L 43.715019 49.670642 
L 43.66424 49.47122 
L 43.593857 49.277845 
L 43.50457 49.092438 
L 43.397266 48.916843 
L 43.273012 48.752805 
L 43.133042 48.601954 
L 42.978748 48.465788 
L 42.811663 48.345663 
L 42.633448 48.24277 
L 42.445873 48.158133 
L 42.250804 48.092593 
L 42.050178 48.046801 
L 41.845989 48.021213 
L 41.640268 48.016083 
L 41.435058 48.031461 
L 41.232399 48.067196 
L 41.034305 48.122931 
L 40.842744 48.198112 
L 40.659622 48.291994 
L 40.486756 48.403642 
L 40.325867 48.531947 
L 40.178552 48.675634 
L 40.046276 48.833275 
L 39.930353 49.003303 
L 39.831935 49.184028 
L 39.752001 49.373654 
L 39.691344 49.570297 
L 39.650569 49.772003 
L 39.630079 49.976766 
L 39.630079 50.182551 
L 39.650569 50.387314 
L 39.691344 50.589019 
L 39.752001 50.785662 
L 39.831935 50.975288 
L 39.930353 51.156014 
L 40.046276 51.326042 
L 40.178552 51.483682 
L 40.325867 51.627369 
L 40.486756 51.755674 
L 40.659622 51.867323 
L 40.842744 51.961204 
L 41.034305 52.036386 
L 41.232399 52.092121 
L 41.435058 52.127855 
L 41.640268 52.143234 
L 41.845989 52.138103 
L 42.050178 52.112515 
L 42.250804 52.066724 
L 42.445873 52.001184 
L 42.633448 51.916547 
L 42.811663 51.813654 
L 42.978748 51.693528 
L 43.133042 51.557363 
L 43.273012 51.406511 
L 43.397266 51.242473 
L 43.50457 51.066878 
L 43.593857 50.881472 
L 43.66424 50.688097 
L 43.715019 50.488675 
L 43.745689 50.285188 
L 43.755947 50.079658 
" style="fill:none;stroke:#000000;stroke-linecap:square;stroke-opacity:0.7;stroke-width:1.5;"/>
   </g>
   <g id="line2d_11">
    <path clip-path="url(#p79ff0eb837)" d="M 135.88286 311.053877 
L 134.454869 310.727279 
L 133.025877 310.406195 
L 131.595971 310.091419 
L 130.165243 309.783743 
L 128.733784 309.483955 
L 127.301685 309.192839 
L 125.869038 308.911175 
L 124.435937 308.639741 
L 123.002422 308.379299 
L 121.567622 308.130155 
L 120.13098 307.892177 
L 118.692211 307.665233 
L 117.251031 307.449191 
L 115.807156 307.243919 
L 114.362102 307.049745 
L 112.925533 306.872478 
L 111.499194 306.720681 
L 110.083397 306.602446 
L 108.678404 306.525433 
L 107.284384 306.496899 
L 105.897754 306.523319 
L 104.507535 306.605513 
L 103.11441 306.740459 
L 101.720137 306.924963 
L 100.329793 307.155277 
L 99.0645 307.434035 
L 97.91638 307.830884 
L 96.653665 308.374539 
L 95.666439 308.924985 
L 94.933824 309.561006 
L 94.42593 310.336734 
L 94.321553 310.856979 
L 94.42994 311.200772 
L 94.766375 311.524076 
L 95.41425 311.715405 
L 96.71201 311.847877 
L 98.108516 311.906305 
L 99.533444 311.928849 
L 100.965534 311.921602 
L 102.404706 311.888941 
L 103.850849 311.83537 
L 105.303831 311.765531 
L 106.763522 311.6842 
L 108.227729 311.595939 
L 109.694135 311.503296 
L 111.162867 311.408123 
L 112.632625 311.31238 
L 114.099855 311.218185 
L 115.564497 311.12741 
L 117.026683 311.041896 
L 118.486543 310.963461 
L 119.944209 310.893908 
L 121.39981 310.835018 
L 122.853479 310.788552 
L 124.305504 310.756229 
L 125.756395 310.739405 
L 127.205845 310.73919 
L 128.653471 310.75668 
L 130.098892 310.792965 
L 131.541735 310.849126 
L 132.994149 310.924439 
L 134.452422 311.002372 
L 135.882127 311.059514 
" style="fill:none;stroke:#000000;stroke-linecap:square;stroke-opacity:0.7;stroke-width:1.5;"/>
   </g>
   <g id="line2d_12">
    <path clip-path="url(#p79ff0eb837)" d="M 115.714143 308.813285 
L 115.707561 308.681403 
L 115.687881 308.550833 
L 115.655297 308.422871 
L 115.610135 308.298788 
L 115.552843 308.17982 
L 115.48399 308.067146 
L 115.40426 307.961889 
L 115.314446 307.865093 
L 115.215441 307.77772 
L 115.108229 307.700639 
L 114.993874 307.634617 
L 114.873514 307.580308 
L 114.748344 307.538253 
L 114.619609 307.508871 
L 114.488589 307.492452 
L 114.356584 307.48916 
L 114.224908 307.499027 
L 114.094869 307.521957 
L 113.967759 307.55772 
L 113.844841 307.605962 
L 113.727338 307.666202 
L 113.616416 307.737843 
L 113.513179 307.820172 
L 113.418652 307.912371 
L 113.333775 308.013523 
L 113.259391 308.122625 
L 113.19624 308.23859 
L 113.144949 308.360266 
L 113.106028 308.486445 
L 113.079863 308.615873 
L 113.066716 308.747262 
L 113.066716 308.879307 
L 113.079863 309.010697 
L 113.106028 309.140124 
L 113.144949 309.266303 
L 113.19624 309.38798 
L 113.259391 309.503945 
L 113.333775 309.613046 
L 113.418652 309.714198 
L 113.513179 309.806397 
L 113.616416 309.888726 
L 113.727338 309.960367 
L 113.844841 310.020608 
L 113.967759 310.068849 
L 114.094869 310.104612 
L 114.224908 310.127542 
L 114.356584 310.13741 
L 114.488589 310.134118 
L 114.619609 310.117699 
L 114.748344 310.088316 
L 114.873514 310.046261 
L 114.993874 309.991953 
L 115.108229 309.92593 
L 115.215441 309.848849 
L 115.314446 309.761477 
L 115.40426 309.66468 
L 115.48399 309.559423 
L 115.552843 309.44675 
L 115.610135 309.327781 
L 115.655297 309.203699 
L 115.687881 309.075736 
L 115.707561 308.945166 
L 115.714143 308.813285 
" style="fill:none;stroke:#000000;stroke-linecap:square;stroke-opacity:0.7;stroke-width:1.5;"/>
   </g>
   <g id="line2d_13">
    <path clip-path="url(#p79ff0eb837)" d="M 135.882402 246.176947 
L 134.484204 245.766363 
L 133.084911 245.368016 
L 131.684274 244.983265 
L 130.282046 244.61346 
L 128.877978 244.259937 
L 127.471821 243.924021 
L 126.063323 243.607026 
L 124.652229 243.310252 
L 123.238281 243.03499 
L 121.821467 242.782593 
L 120.40236 242.554623 
L 118.981551 242.352662 
L 117.559624 242.178272 
L 116.137153 242.032998 
L 114.7147 241.918365 
L 113.292813 241.835881 
L 111.872023 241.787037 
L 110.452843 241.773307 
L 109.035761 241.796153 
L 107.621244 241.857026 
L 106.209913 241.95736 
L 104.808115 242.099437 
L 103.421877 242.288203 
L 102.055124 242.528846 
L 100.711518 242.826303 
L 99.3944 243.185298 
L 98.106721 243.610422 
L 96.858585 244.103706 
L 95.734157 244.658065 
L 94.869036 245.241281 
L 94.441641 245.789856 
L 94.369654 246.129749 
L 94.471656 246.411135 
L 94.949893 246.848135 
L 95.889531 247.292361 
L 97.034811 247.621822 
L 98.317731 247.849444 
L 99.668883 247.999592 
L 101.071619 248.093846 
L 102.49281 248.149911 
L 103.919999 248.172619 
L 105.352916 248.165837 
L 106.791253 248.13353 
L 108.233678 248.079585 
L 109.678632 248.006801 
L 111.126265 247.917549 
L 112.576737 247.814235 
L 114.030204 247.699301 
L 115.486826 247.575228 
L 116.946758 247.444533 
L 118.410164 247.309771 
L 119.87601 247.173647 
L 121.338958 247.039287 
L 122.798482 246.909343 
L 124.255082 246.786296 
L 125.710626 246.671652 
L 127.165433 246.566289 
L 128.619568 246.471076 
L 130.073096 246.386877 
L 131.526083 246.314551 
L 132.978597 246.254953 
L 134.430707 246.208933 
L 135.882484 246.177339 
" style="fill:none;stroke:#000000;stroke-linecap:square;stroke-opacity:0.7;stroke-width:1.5;"/>
   </g>
   <g id="line2d_14">
    <path clip-path="url(#p79ff0eb837)" d="M 115.502076 244.441522 
L 115.492841 244.256479 
L 115.465227 244.073275 
L 115.41951 243.89373 
L 115.356143 243.71963 
L 115.275755 243.552705 
L 115.179147 243.394613 
L 115.067279 243.246925 
L 114.941261 243.11111 
L 114.802346 242.988518 
L 114.651916 242.880366 
L 114.491464 242.787729 
L 114.322587 242.711528 
L 114.146961 242.652521 
L 113.966333 242.611294 
L 113.782497 242.588257 
L 113.597282 242.583638 
L 113.412526 242.597483 
L 113.230068 242.629655 
L 113.051719 242.679835 
L 112.879253 242.747523 
L 112.714383 242.832047 
L 112.558749 242.932566 
L 112.413896 243.048082 
L 112.281265 243.177447 
L 112.162174 243.319374 
L 112.057806 243.472454 
L 111.969198 243.635165 
L 111.897231 243.80589 
L 111.842621 243.982932 
L 111.80591 244.164532 
L 111.787463 244.348885 
L 111.787463 244.534158 
L 111.80591 244.718511 
L 111.842621 244.900111 
L 111.897231 245.077153 
L 111.969198 245.247878 
L 112.057806 245.410589 
L 112.162174 245.563669 
L 112.281265 245.705597 
L 112.413896 245.834961 
L 112.558749 245.950477 
L 112.714383 246.050997 
L 112.879253 246.13552 
L 113.051719 246.203208 
L 113.230068 246.253388 
L 113.412526 246.28556 
L 113.597282 246.299406 
L 113.782497 246.294787 
L 113.966333 246.271749 
L 114.146961 246.230522 
L 114.322587 246.171515 
L 114.491464 246.095314 
L 114.651916 246.002678 
L 114.802346 245.894526 
L 114.941261 245.771933 
L 115.067279 245.636118 
L 115.179147 245.48843 
L 115.275755 245.330338 
L 115.356143 245.163413 
L 115.41951 244.989313 
L 115.465227 244.809769 
L 115.492841 244.626565 
L 115.502076 244.441522 
" style="fill:none;stroke:#000000;stroke-linecap:square;stroke-opacity:0.7;stroke-width:1.5;"/>
   </g>
   <g id="line2d_15">
    <path clip-path="url(#p79ff0eb837)" d="M 135.882156 181.266542 
L 134.644404 180.784137 
L 133.330146 180.384986 
L 131.942701 180.04142 
L 130.506648 179.726838 
L 129.059778 179.436584 
L 127.603644 179.16726 
L 126.13895 178.915232 
L 124.666417 178.676783 
L 123.186829 178.448121 
L 121.703625 178.226583 
L 120.218575 178.01157 
L 118.732095 177.802742 
L 117.25548 177.60539 
L 115.792241 177.430362 
L 114.3398 177.287555 
L 112.883143 177.179262 
L 111.419277 177.102231 
L 109.948166 177.053089 
L 108.469809 177.028395 
L 106.984225 177.024632 
L 105.508164 177.041071 
L 104.077164 177.097172 
L 102.694999 177.217931 
L 101.363108 177.42426 
L 100.073528 177.735756 
L 98.720402 178.168551 
L 97.53389 178.610433 
L 96.526954 179.219875 
L 95.520037 179.815758 
L 94.850254 180.485274 
L 94.363621 181.098865 
L 94.341934 181.232848 
L 94.376634 181.317581 
L 94.58245 181.458632 
L 95.597798 181.785652 
L 96.846239 181.979108 
L 98.09745 182.147554 
L 99.569151 182.230766 
L 101.004356 182.286025 
L 102.422653 182.280624 
L 103.844889 182.215066 
L 105.269197 182.092479 
L 106.693591 181.916079 
L 108.125137 181.689524 
L 109.578252 181.424898 
L 111.054365 181.141087 
L 112.516602 180.866123 
L 113.954386 180.622086 
L 115.372026 180.426067 
L 116.794125 180.284994 
L 118.230979 180.193626 
L 119.68124 180.146119 
L 121.143412 180.136375 
L 122.6159 180.158024 
L 124.095969 180.204507 
L 125.575403 180.272005 
L 127.052881 180.360227 
L 128.528506 180.469095 
L 130.002381 180.59853 
L 131.474605 180.748456 
L 132.945281 180.918797 
L 134.414508 181.109479 
L 135.882385 181.320428 
" style="fill:none;stroke:#000000;stroke-linecap:square;stroke-opacity:0.7;stroke-width:1.5;"/>
   </g>
   <g id="line2d_16">
    <path clip-path="url(#p79ff0eb837)" d="M 112.618818 179.089984 
L 112.611418 178.941712 
L 112.589292 178.794914 
L 112.552659 178.651048 
L 112.501884 178.511544 
L 112.437471 178.377789 
L 112.360061 178.251113 
L 112.270422 178.132773 
L 112.169446 178.023947 
L 112.058136 177.925715 
L 111.937598 177.839054 
L 111.809031 177.764826 
L 111.673712 177.703768 
L 111.532986 177.656486 
L 111.388251 177.623452 
L 111.240947 177.604992 
L 111.092536 177.601291 
L 110.944495 177.612385 
L 110.798293 177.638164 
L 110.655386 177.678372 
L 110.517191 177.73261 
L 110.385084 177.800337 
L 110.260376 177.880882 
L 110.144308 177.973443 
L 110.038033 178.077101 
L 109.942607 178.190825 
L 109.858978 178.313486 
L 109.787978 178.443864 
L 109.730313 178.580663 
L 109.686554 178.722524 
L 109.657138 178.868037 
L 109.642357 179.015756 
L 109.642357 179.164213 
L 109.657138 179.311932 
L 109.686554 179.457445 
L 109.730313 179.599306 
L 109.787978 179.736105 
L 109.858978 179.866483 
L 109.942607 179.989144 
L 110.038033 180.102868 
L 110.144308 180.206526 
L 110.260376 180.299087 
L 110.385084 180.379632 
L 110.517191 180.447359 
L 110.655386 180.501596 
L 110.798293 180.541804 
L 110.944495 180.567584 
L 111.092536 180.578678 
L 111.240947 180.574977 
L 111.388251 180.556517 
L 111.532986 180.523482 
L 111.673712 180.476201 
L 111.809031 180.415143 
L 111.937598 180.340914 
L 112.058136 180.254254 
L 112.169446 180.156022 
L 112.270422 180.047196 
L 112.360061 179.928856 
L 112.437471 179.802179 
L 112.501884 179.668425 
L 112.552659 179.528921 
L 112.589292 179.385055 
L 112.611418 179.238256 
L 112.618818 179.089984 
" style="fill:none;stroke:#000000;stroke-linecap:square;stroke-opacity:0.7;stroke-width:1.5;"/>
   </g>
   <g id="line2d_17">
    <path clip-path="url(#p79ff0eb837)" d="M 135.882135 116.333761 
L 134.474621 115.873268 
L 133.063801 115.410397 
L 131.657155 114.952463 
L 130.254036 114.504016 
L 128.853389 114.06935 
L 127.454192 113.652648 
L 126.055445 113.257988 
L 124.656158 112.889336 
L 123.255338 112.550553 
L 121.84952 112.244175 
L 120.436869 111.970607 
L 119.018434 111.730347 
L 117.595263 111.523885 
L 116.168401 111.351701 
L 114.738814 111.214265 
L 113.302981 111.110528 
L 111.858555 111.03654 
L 110.406577 110.988047 
L 108.964925 110.966523 
L 107.541263 110.982852 
L 106.13573 111.048003 
L 104.745737 111.170901 
L 103.374233 111.357573 
L 102.02532 111.613479 
L 100.702615 111.943856 
L 99.415823 112.352632 
L 98.189779 112.844166 
L 97.040749 113.425677 
L 95.984305 114.103087 
L 95.063825 114.858657 
L 94.534113 115.556036 
L 94.351022 116.172761 
L 94.431381 116.641067 
L 94.782996 117.123433 
L 95.450048 117.51948 
L 96.377961 117.741256 
L 97.597063 117.781601 
L 99.032003 117.747885 
L 100.476057 117.68166 
L 101.929939 117.590142 
L 103.394333 117.480892 
L 104.869931 117.36184 
L 106.346967 117.242134 
L 107.815505 117.130573 
L 109.284532 117.029318 
L 110.754709 116.937945 
L 112.225994 116.856032 
L 113.698345 116.783153 
L 115.171718 116.71888 
L 116.646071 116.662788 
L 118.121359 116.614448 
L 119.59754 116.57343 
L 121.074568 116.539305 
L 122.5524 116.511639 
L 124.03099 116.490002 
L 125.510293 116.473959 
L 126.990265 116.463075 
L 128.470862 116.456914 
L 129.952037 116.45504 
L 131.433745 116.457013 
L 132.915942 116.462396 
L 134.398583 116.470747 
L 135.881621 116.481625 
" style="fill:none;stroke:#000000;stroke-linecap:square;stroke-opacity:0.7;stroke-width:1.5;"/>
   </g>
   <g id="line2d_18">
    <path clip-path="url(#p79ff0eb837)" d="M 103.510184 114.804348 
L 103.499343 114.587124 
L 103.466927 114.372059 
L 103.413259 114.161289 
L 103.338871 113.956911 
L 103.244504 113.760955 
L 103.131094 113.575369 
L 102.99977 113.401997 
L 102.851836 113.242562 
L 102.688763 113.098649 
L 102.512171 112.971688 
L 102.323815 112.86294 
L 102.125567 112.773488 
L 101.919398 112.704218 
L 101.707356 112.655821 
L 101.491549 112.628777 
L 101.274122 112.623355 
L 101.057236 112.639608 
L 100.843045 112.677376 
L 100.63368 112.736282 
L 100.431219 112.815742 
L 100.237677 112.914965 
L 100.054976 113.032966 
L 99.884932 113.168572 
L 99.729234 113.320435 
L 99.589432 113.487046 
L 99.466912 113.666748 
L 99.362895 113.857757 
L 99.278412 114.058173 
L 99.214305 114.266005 
L 99.171209 114.479187 
L 99.149553 114.695601 
L 99.149553 114.913096 
L 99.171209 115.12951 
L 99.214305 115.342692 
L 99.278412 115.550524 
L 99.362895 115.75094 
L 99.466912 115.941949 
L 99.589432 116.121651 
L 99.729234 116.288262 
L 99.884932 116.440125 
L 100.054976 116.57573 
L 100.237677 116.693731 
L 100.431219 116.792955 
L 100.63368 116.872414 
L 100.843045 116.931321 
L 101.057236 116.969088 
L 101.274122 116.985342 
L 101.491549 116.979919 
L 101.707356 116.952875 
L 101.919398 116.904478 
L 102.125567 116.835209 
L 102.323815 116.745756 
L 102.512171 116.637009 
L 102.688763 116.510048 
L 102.851836 116.366135 
L 102.99977 116.2067 
L 103.131094 116.033328 
L 103.244504 115.847741 
L 103.338871 115.651786 
L 103.413259 115.447407 
L 103.466927 115.236638 
L 103.499343 115.021573 
L 103.510184 114.804348 
" style="fill:none;stroke:#000000;stroke-linecap:square;stroke-opacity:0.7;stroke-width:1.5;"/>
   </g>
   <g id="line2d_19">
    <path clip-path="url(#p79ff0eb837)" d="M 135.88184 51.524135 
L 134.830129 51.125453 
L 133.523651 50.72294 
L 132.139188 50.356039 
L 130.727558 50.021185 
L 129.291245 49.706416 
L 127.837226 49.400375 
L 126.382456 49.101951 
L 124.928226 48.812887 
L 123.474325 48.534725 
L 122.02054 48.268995 
L 120.566661 48.017212 
L 119.112473 47.780877 
L 117.657763 47.561475 
L 116.202314 47.360481 
L 114.746201 47.179411 
L 113.293573 47.02167 
L 111.846207 46.892559 
L 110.404543 46.797253 
L 108.968975 46.740752 
L 107.539831 46.727895 
L 106.120255 46.763788 
L 104.716736 46.855585 
L 103.33291 47.010763 
L 101.971933 47.236366 
L 100.6367 47.539072 
L 99.339238 47.924304 
L 98.095921 48.397801 
L 96.919858 48.964886 
L 95.857926 49.61263 
L 95.040488 50.312321 
L 94.490757 51.060025 
L 94.372048 51.503173 
L 94.473729 51.858819 
L 94.873393 52.248758 
L 95.838118 52.747919 
L 96.985972 53.115745 
L 98.262385 53.37095 
L 99.61475 53.53446 
L 100.991436 53.617119 
L 102.389788 53.628878 
L 103.807785 53.580656 
L 105.242463 53.484377 
L 106.687888 53.351336 
L 108.144251 53.190678 
L 109.613118 53.01183 
L 111.094101 52.825028 
L 112.574899 52.639709 
L 114.053935 52.458439 
L 115.531305 52.282882 
L 117.007107 52.114685 
L 118.481436 51.955481 
L 119.954385 51.806888 
L 121.426049 51.670507 
L 122.896523 51.547926 
L 124.365905 51.440716 
L 125.834293 51.350436 
L 127.301792 51.278627 
L 128.768472 51.226821 
L 130.226161 51.198692 
L 131.667592 51.203841 
L 133.091533 51.252294 
L 134.496953 51.353425 
L 135.883176 51.516045 
" style="fill:none;stroke:#000000;stroke-linecap:square;stroke-opacity:0.7;stroke-width:1.5;"/>
   </g>
   <g id="line2d_20">
    <path clip-path="url(#p79ff0eb837)" d="M 106.480602 50.551913 
L 106.472911 50.397821 
L 106.449917 50.245261 
L 106.411846 50.095749 
L 106.359078 49.95077 
L 106.292137 49.811766 
L 106.211689 49.680117 
L 106.118532 49.557133 
L 106.013592 49.444035 
L 105.897914 49.341948 
L 105.772645 49.251886 
L 105.639032 49.174745 
L 105.498402 49.11129 
L 105.352153 49.062153 
L 105.201738 49.027822 
L 105.048652 49.008638 
L 104.894417 49.004791 
L 104.740565 49.016321 
L 104.588625 49.043112 
L 104.440109 49.084898 
L 104.29649 49.141264 
L 104.159198 49.21165 
L 104.029596 49.295355 
L 103.908973 49.391549 
L 103.798527 49.499276 
L 103.699355 49.617463 
L 103.612444 49.744938 
L 103.538658 49.880433 
L 103.478729 50.022601 
L 103.433253 50.17003 
L 103.402682 50.321254 
L 103.387321 50.474771 
L 103.387321 50.629054 
L 103.402682 50.782571 
L 103.433253 50.933795 
L 103.478729 51.081224 
L 103.538658 51.223392 
L 103.612444 51.358887 
L 103.699355 51.486362 
L 103.798527 51.60455 
L 103.908973 51.712276 
L 104.029596 51.80847 
L 104.159198 51.892176 
L 104.29649 51.962561 
L 104.440109 52.018927 
L 104.588625 52.060713 
L 104.740565 52.087504 
L 104.894417 52.099034 
L 105.048652 52.095188 
L 105.201738 52.076003 
L 105.352153 52.041672 
L 105.498402 51.992535 
L 105.639032 51.92908 
L 105.772645 51.851939 
L 105.897914 51.761877 
L 106.013592 51.65979 
L 106.118532 51.546692 
L 106.211689 51.423708 
L 106.292137 51.29206 
L 106.359078 51.153055 
L 106.411846 51.008076 
L 106.449917 50.858564 
L 106.472911 50.706004 
L 106.480602 50.551913 
" style="fill:none;stroke:#000000;stroke-linecap:square;stroke-opacity:0.7;stroke-width:1.5;"/>
   </g>
   <g id="line2d_21">
    <path clip-path="url(#p79ff0eb837)" d="M 200.767271 311.057206 
L 199.273908 310.703264 
L 197.781817 310.333522 
L 196.289949 309.950293 
L 194.797251 309.555922 
L 193.301562 309.152765 
L 191.800786 308.744618 
L 190.302302 308.338362 
L 188.808423 307.93946 
L 187.31813 307.552355 
L 185.830432 307.181383 
L 184.344355 306.830778 
L 182.858933 306.504668 
L 181.373201 306.207082 
L 179.886277 305.941969 
L 178.413048 305.719675 
L 176.965045 305.560995 
L 175.539709 305.484385 
L 174.10016 305.494684 
L 172.636026 305.578714 
L 171.163121 305.720793 
L 169.731002 305.922913 
L 168.256799 306.198253 
L 166.92868 306.501958 
L 165.557419 306.872468 
L 164.343683 307.300114 
L 163.204306 307.72851 
L 162.092472 308.22565 
L 161.16383 308.772183 
L 160.409642 309.31829 
L 159.715706 309.885203 
L 159.330743 310.524766 
L 159.245055 311.059962 
L 159.403721 311.388278 
L 159.921323 311.727296 
L 160.747654 312.075992 
L 161.707454 312.375459 
L 162.835075 312.653794 
L 164.092785 312.885072 
L 165.356531 313.069385 
L 166.678599 313.262645 
L 168.115843 313.409673 
L 169.51864 313.507979 
L 170.982368 313.599271 
L 172.467756 313.630873 
L 173.978726 313.631618 
L 175.454974 313.586683 
L 176.906877 313.476208 
L 178.380866 313.30161 
L 179.884935 313.083567 
L 181.410376 312.845485 
L 182.941647 312.599129 
L 184.477158 312.34985 
L 186.007524 312.104338 
L 187.532171 311.867759 
L 189.051779 311.64495 
L 190.567013 311.440616 
L 192.078536 311.259344 
L 193.587009 311.105603 
L 195.092534 310.983826 
L 196.584004 310.902583 
L 198.055392 310.875574 
L 199.498262 310.915663 
L 200.766369 311.062038 
" style="fill:none;stroke:#000000;stroke-linecap:square;stroke-opacity:0.7;stroke-width:1.5;"/>
   </g>
   <g id="line2d_22">
    <path clip-path="url(#p79ff0eb837)" d="M 174.998636 307.632982 
L 174.990142 307.462782 
L 174.964743 307.294274 
L 174.922693 307.129132 
L 174.864409 306.968997 
L 174.79047 306.815462 
L 174.701612 306.670051 
L 174.598716 306.534211 
L 174.482807 306.40929 
L 174.355036 306.296531 
L 174.216672 306.197054 
L 174.069091 306.111849 
L 173.91376 306.041761 
L 173.752222 305.987487 
L 173.586083 305.949567 
L 173.416994 305.928377 
L 173.246636 305.924129 
L 173.076701 305.936863 
L 172.908878 305.966455 
L 172.744836 306.012609 
L 172.586204 306.074868 
L 172.43456 306.152611 
L 172.291409 306.245068 
L 172.158176 306.351317 
L 172.036184 306.470305 
L 171.926646 306.600848 
L 171.83065 306.741649 
L 171.74915 306.891308 
L 171.682956 307.048338 
L 171.632726 307.211179 
L 171.59896 307.378211 
L 171.581992 307.547776 
L 171.581992 307.718188 
L 171.59896 307.887752 
L 171.632726 308.054785 
L 171.682956 308.217626 
L 171.74915 308.374656 
L 171.83065 308.524315 
L 171.926646 308.665116 
L 172.036184 308.795658 
L 172.158176 308.914646 
L 172.291409 309.020896 
L 172.43456 309.113352 
L 172.586204 309.191096 
L 172.744836 309.253354 
L 172.908878 309.299508 
L 173.076701 309.3291 
L 173.246636 309.341835 
L 173.416994 309.337586 
L 173.586083 309.316397 
L 173.752222 309.278477 
L 173.91376 309.224203 
L 174.069091 309.154115 
L 174.216672 309.068909 
L 174.355036 308.969432 
L 174.482807 308.856673 
L 174.598716 308.731753 
L 174.701612 308.595912 
L 174.79047 308.450502 
L 174.864409 308.296966 
L 174.922693 308.136832 
L 174.964743 307.97169 
L 174.990142 307.803182 
L 174.998636 307.632982 
" style="fill:none;stroke:#000000;stroke-linecap:square;stroke-opacity:0.7;stroke-width:1.5;"/>
   </g>
   <g id="line2d_23">
    <path clip-path="url(#p79ff0eb837)" d="M 200.766698 246.128772 
L 199.35178 245.728751 
L 197.937117 245.337764 
L 196.5224 244.957872 
L 195.107329 244.591113 
L 193.691604 244.239497 
L 192.274929 243.905013 
L 190.857008 243.58962 
L 189.437543 243.295256 
L 188.016213 243.023829 
L 186.591327 242.776559 
L 185.162335 242.553664 
L 183.729858 242.35536 
L 182.294519 242.181861 
L 180.856938 242.033379 
L 179.417718 241.910122 
L 177.976849 241.812163 
L 176.533822 241.739389 
L 175.090271 241.691924 
L 173.666606 241.677495 
L 172.269689 241.711709 
L 170.895799 241.808943 
L 169.504997 241.971535 
L 168.086447 242.182325 
L 166.654056 242.419022 
L 165.300439 242.6839 
L 164.008172 243.021799 
L 162.757462 243.449662 
L 161.58192 243.963516 
L 160.593337 244.551213 
L 159.772309 245.269661 
L 159.309509 245.899608 
L 159.253434 246.229631 
L 159.404725 246.608053 
L 159.942018 247.11612 
L 160.718408 247.451075 
L 161.927406 247.679254 
L 163.185856 247.799652 
L 164.523084 247.803984 
L 165.973155 247.749207 
L 167.419716 247.681079 
L 168.843182 247.580641 
L 170.28451 247.448009 
L 171.745403 247.296674 
L 173.216392 247.139963 
L 174.68731 246.98181 
L 176.158394 246.822563 
L 177.629891 246.66257 
L 179.102038 246.502183 
L 180.573882 246.341929 
L 182.039765 246.185021 
L 183.498567 246.037037 
L 184.950606 245.903431 
L 186.396187 245.789486 
L 187.835619 245.700313 
L 189.271125 245.640491 
L 190.708269 245.611203 
L 192.146766 245.611969 
L 193.585907 245.64229 
L 195.024978 245.701667 
L 196.46326 245.789597 
L 197.900031 245.90557 
L 199.334565 246.049075 
L 200.766133 246.219595 
" style="fill:none;stroke:#000000;stroke-linecap:square;stroke-opacity:0.7;stroke-width:1.5;"/>
   </g>
   <g id="line2d_24">
    <path clip-path="url(#p79ff0eb837)" d="M 165.319086 245.955257 
L 165.311775 245.808767 
L 165.289914 245.663733 
L 165.253722 245.521596 
L 165.203557 245.383769 
L 165.139918 245.251621 
L 165.063438 245.126467 
L 164.974876 245.00955 
L 164.875114 244.902031 
L 164.765141 244.80498 
L 164.646052 244.719361 
L 164.51903 244.646024 
L 164.385337 244.5857 
L 164.246302 244.538987 
L 164.103307 244.506349 
L 163.957773 244.488111 
L 163.811146 244.484454 
L 163.664883 244.495415 
L 163.520439 244.520885 
L 163.379249 244.56061 
L 163.242715 244.614195 
L 163.112195 244.681109 
L 162.988987 244.760685 
L 162.874313 244.852134 
L 162.769315 244.954546 
L 162.675036 245.066904 
L 162.592412 245.188091 
L 162.522266 245.316902 
L 162.465293 245.452057 
L 162.422061 245.592213 
L 162.392998 245.735977 
L 162.378394 245.881921 
L 162.378394 246.028594 
L 162.392998 246.174537 
L 162.422061 246.318302 
L 162.465293 246.458458 
L 162.522266 246.593613 
L 162.592412 246.722424 
L 162.675036 246.843611 
L 162.769315 246.955969 
L 162.874313 247.058381 
L 162.988987 247.14983 
L 163.112195 247.229406 
L 163.242715 247.29632 
L 163.379249 247.349905 
L 163.520439 247.38963 
L 163.664883 247.4151 
L 163.811146 247.42606 
L 163.957773 247.422404 
L 164.103307 247.404166 
L 164.246302 247.371528 
L 164.385337 247.324815 
L 164.51903 247.264491 
L 164.646052 247.191154 
L 164.765141 247.105535 
L 164.875114 247.008484 
L 164.974876 246.900965 
L 165.063438 246.784048 
L 165.139918 246.658894 
L 165.203557 246.526746 
L 165.253722 246.388919 
L 165.289914 246.246782 
L 165.311775 246.101748 
L 165.319086 245.955257 
" style="fill:none;stroke:#000000;stroke-linecap:square;stroke-opacity:0.7;stroke-width:1.5;"/>
   </g>
   <g id="line2d_25">
    <path clip-path="url(#p79ff0eb837)" d="M 200.766535 181.165347 
L 199.379072 180.838902 
L 197.981412 180.53402 
L 196.574396 180.247457 
L 195.158897 179.975903 
L 193.73581 179.715972 
L 192.3061 179.464215 
L 190.874799 179.219007 
L 189.444662 178.981731 
L 188.015353 178.753842 
L 186.586538 178.536779 
L 185.157884 178.331967 
L 183.72909 178.140828 
L 182.300534 177.965025 
L 180.872624 177.806494 
L 179.445626 177.667154 
L 178.019803 177.548904 
L 176.595413 177.453614 
L 175.172702 177.383135 
L 173.751905 177.339292 
L 172.333246 177.32389 
L 170.916928 177.338713 
L 169.503285 177.385522 
L 168.114767 177.469895 
L 166.770084 177.610942 
L 165.471683 177.828005 
L 164.203326 178.138267 
L 162.955046 178.543916 
L 161.749302 179.035428 
L 160.66499 179.600398 
L 159.807914 180.209463 
L 159.336987 180.812265 
L 159.238845 181.226334 
L 159.349913 181.582187 
L 159.724043 181.959985 
L 160.445958 182.212773 
L 161.589282 182.369166 
L 162.881606 182.396335 
L 164.324721 182.368997 
L 165.782412 182.336628 
L 167.240791 182.301406 
L 168.699995 182.264128 
L 170.16016 182.225594 
L 171.621158 182.186615 
L 173.081921 182.14791 
L 174.542818 182.109594 
L 176.003841 182.071624 
L 177.464978 182.033959 
L 178.926221 181.996556 
L 180.387558 181.959376 
L 181.848978 181.922376 
L 183.310471 181.885514 
L 184.772027 181.848748 
L 186.233635 181.812038 
L 187.695258 181.775342 
L 189.156453 181.738582 
L 190.615661 181.700949 
L 192.072663 181.660989 
L 193.527423 181.617242 
L 194.979903 181.568258 
L 196.430069 181.5126 
L 197.877886 181.448844 
L 199.323322 181.375577 
L 200.766346 181.291399 
" style="fill:none;stroke:#000000;stroke-linecap:square;stroke-opacity:0.7;stroke-width:1.5;"/>
   </g>
   <g id="line2d_26">
    <path clip-path="url(#p79ff0eb837)" d="M 176.378229 179.577367 
L 176.370222 179.41693 
L 176.346281 179.258087 
L 176.306642 179.102417 
L 176.251701 178.951467 
L 176.182003 178.806738 
L 176.098241 178.669668 
L 176.001248 178.541619 
L 175.891987 178.423864 
L 175.771544 178.317572 
L 175.641117 178.223801 
L 175.502001 178.143483 
L 175.355579 178.077415 
L 175.203307 178.026254 
L 175.046697 177.990509 
L 174.887307 177.970535 
L 174.726719 177.96653 
L 174.566531 177.978534 
L 174.408335 178.006429 
L 174.253701 178.049936 
L 174.104169 178.108623 
L 173.961222 178.181907 
L 173.826283 178.269061 
L 173.700691 178.369216 
L 173.585697 178.481379 
L 173.482441 178.604434 
L 173.391951 178.737159 
L 173.315126 178.878234 
L 173.252729 179.026257 
L 173.20538 179.179758 
L 173.17355 179.33721 
L 173.157556 179.497049 
L 173.157556 179.657686 
L 173.17355 179.817525 
L 173.20538 179.974977 
L 173.252729 180.128477 
L 173.315126 180.276501 
L 173.391951 180.417576 
L 173.482441 180.5503 
L 173.585697 180.673356 
L 173.700691 180.785518 
L 173.826283 180.885674 
L 173.961222 180.972827 
L 174.104169 181.046112 
L 174.253701 181.104799 
L 174.408335 181.148306 
L 174.566531 181.1762 
L 174.726719 181.188205 
L 174.887307 181.1842 
L 175.046697 181.164226 
L 175.203307 181.128481 
L 175.355579 181.07732 
L 175.502001 181.011252 
L 175.641117 180.930933 
L 175.771544 180.837162 
L 175.891987 180.730871 
L 176.001248 180.613116 
L 176.098241 180.485066 
L 176.182003 180.347996 
L 176.251701 180.203267 
L 176.306642 180.052318 
L 176.346281 179.896648 
L 176.370222 179.737805 
L 176.378229 179.577367 
" style="fill:none;stroke:#000000;stroke-linecap:square;stroke-opacity:0.7;stroke-width:1.5;"/>
   </g>
   <g id="line2d_27">
    <path clip-path="url(#p79ff0eb837)" d="M 200.766287 116.407516 
L 199.601546 115.948348 
L 198.217145 115.504346 
L 196.817435 115.0786 
L 195.434113 114.695641 
L 194.043808 114.364559 
L 192.587796 114.046124 
L 191.136006 113.734437 
L 189.701522 113.44631 
L 188.281749 113.195589 
L 186.853253 112.986718 
L 185.399288 112.806806 
L 183.940827 112.650073 
L 182.485132 112.519918 
L 181.032645 112.4199 
L 179.579774 112.352493 
L 178.120891 112.315647 
L 176.656377 112.30607 
L 175.187212 112.320457 
L 173.717063 112.356792 
L 172.246871 112.414506 
L 170.777221 112.493089 
L 169.331318 112.596328 
L 167.92503 112.743674 
L 166.534154 112.955323 
L 165.101688 113.223654 
L 163.708076 113.516923 
L 162.427332 113.867896 
L 161.259973 114.319883 
L 160.275393 114.872907 
L 159.581404 115.510622 
L 159.263729 116.101195 
L 159.26067 116.493091 
L 159.510577 116.925441 
L 160.07993 117.317186 
L 161.151385 117.655781 
L 162.487829 117.922925 
L 163.904412 118.144822 
L 165.341202 118.326668 
L 166.811909 118.485681 
L 168.292445 118.635921 
L 169.763199 118.772246 
L 171.226403 118.887517 
L 172.681914 118.975137 
L 174.129195 119.028774 
L 175.568596 119.042414 
L 177.009481 119.013585 
L 178.453913 118.944815 
L 179.900922 118.839086 
L 181.349391 118.699447 
L 182.797086 118.528592 
L 184.243379 118.328252 
L 185.688164 118.100047 
L 187.122819 117.84541 
L 188.533694 117.55771 
L 189.971007 117.228422 
L 191.389103 116.911342 
L 192.742372 116.668369 
L 194.156047 116.495688 
L 195.600838 116.34029 
L 196.912973 116.282244 
L 198.361803 116.30032 
L 199.729835 116.345931 
L 200.766224 116.408185 
" style="fill:none;stroke:#000000;stroke-linecap:square;stroke-opacity:0.7;stroke-width:1.5;"/>
   </g>
   <g id="line2d_28">
    <path clip-path="url(#p79ff0eb837)" d="M 179.573267 115.827028 
L 179.563212 115.625548 
L 179.533146 115.426071 
L 179.483367 115.230579 
L 179.414371 115.041015 
L 179.326844 114.859262 
L 179.221655 114.687127 
L 179.099849 114.526322 
L 178.962638 114.378443 
L 178.811384 114.244961 
L 178.647592 114.127202 
L 178.472888 114.026337 
L 178.28901 113.943368 
L 178.097784 113.879119 
L 177.901112 113.83423 
L 177.700947 113.809146 
L 177.499279 113.804117 
L 177.298113 113.819192 
L 177.099448 113.854223 
L 176.905257 113.908859 
L 176.717472 113.98256 
L 176.537958 114.074591 
L 176.368499 114.184039 
L 176.21078 114.309816 
L 176.066368 114.450671 
L 175.936699 114.605206 
L 175.82306 114.771883 
L 175.726582 114.949047 
L 175.648222 115.134936 
L 175.588761 115.327704 
L 175.548789 115.525435 
L 175.528704 115.726163 
L 175.528704 115.927893 
L 175.548789 116.128621 
L 175.588761 116.326351 
L 175.648222 116.519119 
L 175.726582 116.705009 
L 175.82306 116.882172 
L 175.936699 117.04885 
L 176.066368 117.203384 
L 176.21078 117.34424 
L 176.368499 117.470016 
L 176.537958 117.579464 
L 176.717472 117.671496 
L 176.905257 117.745196 
L 177.099448 117.799833 
L 177.298113 117.834863 
L 177.499279 117.849938 
L 177.700947 117.844909 
L 177.901112 117.819825 
L 178.097784 117.774936 
L 178.28901 117.710688 
L 178.472888 117.627719 
L 178.647592 117.526853 
L 178.811384 117.409095 
L 178.962638 117.275613 
L 179.099849 117.127734 
L 179.221655 116.966928 
L 179.326844 116.794794 
L 179.414371 116.613041 
L 179.483367 116.423476 
L 179.533146 116.227984 
L 179.563212 116.028507 
L 179.573267 115.827028 
" style="fill:none;stroke:#000000;stroke-linecap:square;stroke-opacity:0.7;stroke-width:1.5;"/>
   </g>
   <g id="line2d_29">
    <path clip-path="url(#p79ff0eb837)" d="M 200.766377 51.335794 
L 199.29845 51.029895 
L 197.830531 50.718444 
L 196.36233 50.402357 
L 194.893556 50.082552 
L 193.423917 49.759958 
L 191.952584 49.435574 
L 190.482644 49.112228 
L 189.015246 48.79261 
L 187.549963 48.479027 
L 186.086373 48.173761 
L 184.62459 47.879289 
L 183.164879 47.598732 
L 181.706683 47.335204 
L 180.249438 47.091762 
L 178.792578 46.871403 
L 177.337249 46.677578 
L 175.887991 46.516549 
L 174.445877 46.395148 
L 173.0117 46.319883 
L 171.586121 46.296977 
L 170.16994 46.332411 
L 168.767628 46.432508 
L 167.384245 46.604007 
L 166.028896 46.853056 
L 164.722188 47.18818 
L 163.475485 47.620351 
L 162.29675 48.159688 
L 161.230904 48.80023 
L 160.342203 49.534431 
L 159.65855 50.356805 
L 159.30699 51.113347 
L 159.245902 51.8817 
L 159.448893 52.611313 
L 159.921981 53.252308 
L 160.705791 53.833418 
L 161.742309 54.298065 
L 162.929306 54.627258 
L 164.233196 54.838176 
L 165.586785 54.949107 
L 166.968392 54.970578 
L 168.388325 54.918877 
L 169.833415 54.817851 
L 171.285385 54.678352 
L 172.740976 54.506697 
L 174.19686 54.306618 
L 175.653257 54.080763 
L 177.121666 53.833153 
L 178.601348 53.578159 
L 180.065303 53.336191 
L 181.527735 53.11413 
L 182.992505 52.912292 
L 184.460571 52.730779 
L 185.937023 52.566479 
L 187.42095 52.414779 
L 188.903821 52.275121 
L 190.383892 52.150268 
L 191.861192 52.042987 
L 193.335757 51.956003 
L 194.809456 51.891742 
L 196.297258 51.846045 
L 197.799902 51.807545 
L 199.291748 51.764598 
L 200.766111 51.705476 
" style="fill:none;stroke:#000000;stroke-linecap:square;stroke-opacity:0.7;stroke-width:1.5;"/>
   </g>
   <g id="line2d_30">
    <path clip-path="url(#p79ff0eb837)" d="M 167.779686 52.761393 
L 167.771387 52.595118 
L 167.746574 52.430495 
L 167.705494 52.269161 
L 167.648553 52.112718 
L 167.576319 51.962723 
L 167.48951 51.820665 
L 167.388987 51.687957 
L 167.27575 51.565917 
L 167.150925 51.455758 
L 167.015752 51.358575 
L 166.871574 51.275334 
L 166.719824 51.206861 
L 166.562011 51.153839 
L 166.399703 51.116793 
L 166.234512 51.096092 
L 166.068082 51.091942 
L 165.902065 51.104383 
L 165.738112 51.133292 
L 165.577852 51.178382 
L 165.422878 51.239205 
L 165.27473 51.315156 
L 165.134881 51.405481 
L 165.00472 51.509281 
L 164.885541 51.625525 
L 164.778528 51.753058 
L 164.684745 51.890612 
L 164.605124 52.03682 
L 164.540457 52.19023 
L 164.491385 52.349315 
L 164.458397 52.512497 
L 164.441821 52.678152 
L 164.441821 52.844634 
L 164.458397 53.010289 
L 164.491385 53.173471 
L 164.540457 53.332556 
L 164.605124 53.485966 
L 164.684745 53.632174 
L 164.778528 53.769728 
L 164.885541 53.897261 
L 165.00472 54.013505 
L 165.134881 54.117305 
L 165.27473 54.20763 
L 165.422878 54.283581 
L 165.577852 54.344404 
L 165.738112 54.389494 
L 165.902065 54.418403 
L 166.068082 54.430844 
L 166.234512 54.426694 
L 166.399703 54.405993 
L 166.562011 54.368947 
L 166.719824 54.315925 
L 166.871574 54.247453 
L 167.015752 54.164211 
L 167.150925 54.067028 
L 167.27575 53.956869 
L 167.388987 53.834829 
L 167.48951 53.702121 
L 167.576319 53.560063 
L 167.648553 53.410068 
L 167.705494 53.253625 
L 167.746574 53.092291 
L 167.771387 52.927668 
L 167.779686 52.761393 
" style="fill:none;stroke:#000000;stroke-linecap:square;stroke-opacity:0.7;stroke-width:1.5;"/>
   </g>
   <g id="line2d_31">
    <path clip-path="url(#p79ff0eb837)" d="M 265.650399 311.047717 
L 264.242853 310.819508 
L 262.812583 310.621228 
L 261.360517 310.440476 
L 259.893579 310.264534 
L 258.442336 310.082923 
L 256.994463 309.885958 
L 255.54226 309.675619 
L 254.085004 309.45612 
L 252.622071 309.231802 
L 251.160389 309.008265 
L 249.70344 308.790425 
L 248.250046 308.581739 
L 246.799896 308.385523 
L 245.352688 308.205031 
L 243.906215 308.042889 
L 242.456192 307.898687 
L 241.002688 307.771189 
L 239.545944 307.65916 
L 238.086202 307.561355 
L 236.623711 307.47652 
L 235.158719 307.403392 
L 233.695571 307.341408 
L 232.252865 307.299545 
L 230.831761 307.292611 
L 229.455116 307.337099 
L 228.175905 307.471952 
L 226.999579 307.734127 
L 225.953397 308.142775 
L 225.050768 308.707803 
L 224.451517 309.320576 
L 224.164818 309.961598 
L 224.145041 310.609441 
L 224.38048 311.21231 
L 224.899444 311.747837 
L 225.895583 312.358724 
L 227.000586 312.902625 
L 228.076595 313.196639 
L 229.450212 313.447572 
L 230.777763 313.612419 
L 232.133992 313.68915 
L 233.543119 313.703023 
L 235.00429 313.684892 
L 236.475849 313.657223 
L 237.944498 313.620445 
L 239.410047 313.57284 
L 240.87231 313.512706 
L 242.331103 313.43836 
L 243.786247 313.348136 
L 245.237568 313.240385 
L 246.684902 313.113473 
L 248.130185 312.965873 
L 249.580845 312.799316 
L 251.038034 312.618864 
L 252.5023 312.429853 
L 253.970979 312.238215 
L 255.433131 312.051043 
L 256.888273 311.873937 
L 258.336948 311.712188 
L 259.78493 311.569459 
L 261.24414 311.44117 
L 262.714907 311.320071 
L 264.187885 311.199385 
L 265.650609 311.072553 
" style="fill:none;stroke:#000000;stroke-linecap:square;stroke-opacity:0.7;stroke-width:1.5;"/>
   </g>
   <g id="line2d_32">
    <path clip-path="url(#p79ff0eb837)" d="M 242.128001 310.459342 
L 242.119649 310.291994 
L 242.094676 310.12631 
L 242.053331 309.963936 
L 241.996023 309.806485 
L 241.923324 309.655523 
L 241.835954 309.512549 
L 241.734783 309.378985 
L 241.620817 309.256159 
L 241.495187 309.145289 
L 241.359142 309.04748 
L 241.214035 308.963702 
L 241.061307 308.894789 
L 240.902476 308.841424 
L 240.739122 308.80414 
L 240.572867 308.783305 
L 240.405363 308.779128 
L 240.238276 308.79165 
L 240.073266 308.820745 
L 239.911973 308.866126 
L 239.756 308.927341 
L 239.606897 309.003782 
L 239.466146 309.094688 
L 239.335146 309.199157 
L 239.215198 309.316151 
L 239.107496 309.444506 
L 239.013108 309.582947 
L 238.932974 309.730098 
L 238.86789 309.884496 
L 238.818502 310.044608 
L 238.785302 310.208841 
L 238.768618 310.375564 
L 238.768618 310.543119 
L 238.785302 310.709842 
L 238.818502 310.874076 
L 238.86789 311.034187 
L 238.932974 311.188586 
L 239.013108 311.335737 
L 239.107496 311.474177 
L 239.215198 311.602532 
L 239.335146 311.719526 
L 239.466146 311.823995 
L 239.606897 311.914902 
L 239.756 311.991342 
L 239.911973 312.052557 
L 240.073266 312.097938 
L 240.238276 312.127034 
L 240.405363 312.139555 
L 240.572867 312.135378 
L 240.739122 312.114543 
L 240.902476 312.077259 
L 241.061307 312.023895 
L 241.214035 311.954981 
L 241.359142 311.871203 
L 241.495187 311.773394 
L 241.620817 311.662525 
L 241.734783 311.539698 
L 241.835954 311.406134 
L 241.923324 311.26316 
L 241.996023 311.112198 
L 242.053331 310.954747 
L 242.094676 310.792373 
L 242.119649 310.626689 
L 242.128001 310.459342 
" style="fill:none;stroke:#000000;stroke-linecap:square;stroke-opacity:0.7;stroke-width:1.5;"/>
   </g>
   <g id="line2d_33">
    <path clip-path="url(#p79ff0eb837)" d="M 265.650925 246.17996 
L 264.225239 246.003636 
L 262.798177 245.802845 
L 261.368854 245.581456 
L 259.936396 245.343435 
L 258.49992 245.092851 
L 257.058532 244.83388 
L 255.612012 244.570934 
L 254.168446 244.310019 
L 252.729744 244.055974 
L 251.295007 243.81301 
L 249.862732 243.584982 
L 248.431764 243.374857 
L 247.002314 243.185474 
L 245.574601 243.019624 
L 244.148835 242.880046 
L 242.725212 242.769428 
L 241.303906 242.69041 
L 239.885064 242.645586 
L 238.468782 242.637508 
L 237.05413 242.668352 
L 235.641922 242.739269 
L 234.234118 242.851211 
L 232.832659 243.005103 
L 231.44158 243.201851 
L 230.069772 243.444973 
L 228.719789 243.740743 
L 227.393326 244.095312 
L 226.161631 244.503237 
L 225.141727 244.990201 
L 224.388522 245.542878 
L 224.163477 245.915128 
L 224.154988 246.251381 
L 224.384267 246.654199 
L 224.95603 247.06689 
L 226.0478 247.493113 
L 227.288839 247.830661 
L 228.636403 248.100548 
L 230.025243 248.327992 
L 231.42283 248.513449 
L 232.828096 248.658414 
L 234.239935 248.764396 
L 235.657215 248.832926 
L 237.078767 248.865552 
L 238.5034 248.863847 
L 239.9299 248.829408 
L 241.357242 248.763864 
L 242.786392 248.669348 
L 244.21792 248.548768 
L 245.652076 248.405144 
L 247.089096 248.241559 
L 248.529211 248.061156 
L 249.972648 247.867143 
L 251.419642 247.662791 
L 252.870431 247.451439 
L 254.325162 247.236644 
L 255.775701 247.024294 
L 257.220112 246.819758 
L 258.659415 246.62783 
L 260.092781 246.453581 
L 261.509292 246.307898 
L 262.907303 246.204649 
L 264.287369 246.156449 
L 265.650395 246.174823 
" style="fill:none;stroke:#000000;stroke-linecap:square;stroke-opacity:0.7;stroke-width:1.5;"/>
   </g>
   <g id="line2d_34">
    <path clip-path="url(#p79ff0eb837)" d="M 240.086985 246.316854 
L 240.077978 246.13637 
L 240.051044 245.95768 
L 240.006453 245.782559 
L 239.944647 245.612748 
L 239.86624 245.449935 
L 239.772012 245.295738 
L 239.6629 245.151689 
L 239.539986 245.01922 
L 239.404494 244.899647 
L 239.25777 244.79416 
L 239.101271 244.703805 
L 238.936554 244.629482 
L 238.765255 244.571929 
L 238.589077 244.531717 
L 238.409771 244.509247 
L 238.229118 244.504742 
L 238.048915 244.518247 
L 237.870951 244.549626 
L 237.696996 244.59857 
L 237.528779 244.66459 
L 237.367971 244.747031 
L 237.216171 244.845074 
L 237.074887 244.957744 
L 236.945524 245.083922 
L 236.829367 245.222353 
L 236.72757 245.371662 
L 236.641145 245.530364 
L 236.570951 245.696883 
L 236.517686 245.869563 
L 236.48188 246.046689 
L 236.463887 246.2265 
L 236.463887 246.407209 
L 236.48188 246.58702 
L 236.517686 246.764146 
L 236.570951 246.936826 
L 236.641145 247.103345 
L 236.72757 247.262047 
L 236.829367 247.411356 
L 236.945524 247.549787 
L 237.074887 247.675965 
L 237.216171 247.788635 
L 237.367971 247.886678 
L 237.528779 247.969119 
L 237.696996 248.035139 
L 237.870951 248.084083 
L 238.048915 248.115462 
L 238.229118 248.128967 
L 238.409771 248.124462 
L 238.589077 248.101992 
L 238.765255 248.06178 
L 238.936554 248.004227 
L 239.101271 247.929904 
L 239.25777 247.839549 
L 239.404494 247.734061 
L 239.539986 247.614489 
L 239.6629 247.48202 
L 239.772012 247.337971 
L 239.86624 247.183774 
L 239.944647 247.020961 
L 240.006453 246.85115 
L 240.051044 246.676029 
L 240.077978 246.497339 
L 240.086985 246.316854 
" style="fill:none;stroke:#000000;stroke-linecap:square;stroke-opacity:0.7;stroke-width:1.5;"/>
   </g>
   <g id="line2d_35">
    <path clip-path="url(#p79ff0eb837)" d="M 265.649824 181.293975 
L 264.226677 181.019606 
L 262.802255 180.744696 
L 261.383584 180.475625 
L 259.969976 180.217148 
L 258.560321 179.973775 
L 257.149452 179.747461 
L 255.736123 179.53824 
L 254.320514 179.346187 
L 252.902803 179.171377 
L 251.483169 179.013882 
L 250.06179 178.873778 
L 248.638845 178.751139 
L 247.214511 178.646038 
L 245.788966 178.55855 
L 244.362404 178.488749 
L 242.935343 178.436816 
L 241.508216 178.40309 
L 240.081359 178.38792 
L 238.655106 178.391654 
L 237.229792 178.414639 
L 235.808297 178.457688 
L 234.39404 178.52402 
L 232.987343 178.617548 
L 231.588468 178.742088 
L 230.199884 178.901257 
L 228.851323 179.103566 
L 227.556485 179.369477 
L 226.319178 179.717856 
L 225.259349 180.137733 
L 224.50687 180.63202 
L 224.171332 181.078093 
L 224.128776 181.324821 
L 224.218356 181.49566 
L 224.617591 181.744517 
L 225.672562 181.989472 
L 226.965877 182.171327 
L 228.325935 182.283565 
L 229.744954 182.361707 
L 231.173636 182.422386 
L 232.606637 182.468071 
L 234.043711 182.501132 
L 235.484553 182.523976 
L 236.926263 182.538261 
L 238.367259 182.54379 
L 239.807508 182.540099 
L 241.246978 182.526724 
L 242.685635 182.503204 
L 244.123513 182.469087 
L 245.560714 182.424035 
L 246.997125 182.367775 
L 248.432626 182.300039 
L 249.867093 182.220557 
L 251.300445 182.129058 
L 252.736884 182.026065 
L 254.179639 181.915404 
L 255.627397 181.801934 
L 257.070192 181.691279 
L 258.506729 181.588296 
L 259.939471 181.496942 
L 261.370286 181.419329 
L 262.79909 181.357266 
L 264.225806 181.312541 
L 265.650358 181.286922 
" style="fill:none;stroke:#000000;stroke-linecap:square;stroke-opacity:0.7;stroke-width:1.5;"/>
   </g>
   <g id="line2d_36">
    <path clip-path="url(#p79ff0eb837)" d="M 240.27708 180.938187 
L 240.27065 180.809347 
L 240.251423 180.681789 
L 240.219592 180.556778 
L 240.175471 180.435558 
L 240.119501 180.319333 
L 240.052236 180.209259 
L 239.974345 180.106429 
L 239.886603 180.011866 
L 239.789881 179.926509 
L 239.685142 179.851206 
L 239.573425 179.786706 
L 239.455841 179.73365 
L 239.333558 179.692565 
L 239.207793 179.66386 
L 239.079795 179.64782 
L 238.950835 179.644604 
L 238.822196 179.654244 
L 238.695156 179.676645 
L 238.570978 179.711583 
L 238.450896 179.758712 
L 238.336103 179.817563 
L 238.227739 179.887551 
L 238.126883 179.967981 
L 238.034537 180.058053 
L 237.951618 180.156873 
L 237.878949 180.263457 
L 237.817255 180.376748 
L 237.767147 180.495618 
L 237.729124 180.618886 
L 237.703563 180.745328 
L 237.690719 180.873687 
L 237.690719 181.002687 
L 237.703563 181.131045 
L 237.729124 181.257487 
L 237.767147 181.380756 
L 237.817255 181.499626 
L 237.878949 181.612916 
L 237.951618 181.719501 
L 238.034537 181.81832 
L 238.126883 181.908392 
L 238.227739 181.988822 
L 238.336103 182.058811 
L 238.450896 182.117662 
L 238.570978 182.16479 
L 238.695156 182.199729 
L 238.822196 182.222129 
L 238.950835 182.23177 
L 239.079795 182.228553 
L 239.207793 182.212513 
L 239.333558 182.183808 
L 239.455841 182.142723 
L 239.573425 182.089667 
L 239.685142 182.025168 
L 239.789881 181.949865 
L 239.886603 181.864508 
L 239.974345 181.769944 
L 240.052236 181.667114 
L 240.119501 181.55704 
L 240.175471 181.440816 
L 240.219592 181.319596 
L 240.251423 181.194585 
L 240.27065 181.067026 
L 240.27708 180.938187 
" style="fill:none;stroke:#000000;stroke-linecap:square;stroke-opacity:0.7;stroke-width:1.5;"/>
   </g>
   <g id="line2d_37">
    <path clip-path="url(#p79ff0eb837)" d="M 265.649615 116.412275 
L 264.332133 116.136394 
L 262.963018 115.835168 
L 261.560612 115.557725 
L 260.159875 115.270734 
L 258.767932 114.988588 
L 257.394351 114.742449 
L 256.026529 114.539504 
L 254.651501 114.383035 
L 253.254878 114.264316 
L 251.839397 114.172727 
L 250.417775 114.101519 
L 248.993441 114.048984 
L 247.566438 114.013651 
L 246.13681 113.994036 
L 244.704895 113.988667 
L 243.273327 113.997022 
L 241.842936 114.019766 
L 240.413974 114.057636 
L 238.986691 114.111366 
L 237.561334 114.181686 
L 236.138148 114.269323 
L 234.717375 114.374998 
L 233.299255 114.499432 
L 231.884025 114.643341 
L 230.47316 114.807377 
L 229.084451 114.995687 
L 227.725325 115.221528 
L 226.397545 115.498203 
L 225.169748 115.828118 
L 224.317989 116.190839 
L 224.1499 116.340548 
L 224.140717 116.421307 
L 224.207884 116.53404 
L 224.691205 116.787674 
L 225.79726 117.118269 
L 227.085252 117.381908 
L 228.430351 117.581433 
L 229.825499 117.740807 
L 231.220251 117.86904 
L 232.599087 117.955336 
L 233.983578 117.994629 
L 235.387614 117.995866 
L 236.808195 117.970491 
L 238.234813 117.926157 
L 239.666374 117.866669 
L 241.103088 117.795774 
L 242.545163 117.717308 
L 243.992082 117.635154 
L 245.440114 117.551665 
L 246.888716 117.46737 
L 248.337876 117.382712 
L 249.786763 117.298179 
L 251.235048 117.214229 
L 252.682758 117.131302 
L 254.129924 117.049832 
L 255.576573 116.970254 
L 257.022733 116.893003 
L 258.468433 116.818511 
L 259.916132 116.746481 
L 261.359631 116.673037 
L 262.794481 116.592699 
L 264.221615 116.499924 
L 265.650136 116.401537 
" style="fill:none;stroke:#000000;stroke-linecap:square;stroke-opacity:0.7;stroke-width:1.5;"/>
   </g>
   <g id="line2d_38">
    <path clip-path="url(#p79ff0eb837)" d="M 244.135468 115.80794 
L 244.12906 115.679553 
L 244.109901 115.552443 
L 244.078182 115.427871 
L 244.034216 115.307077 
L 243.978442 115.19126 
L 243.911413 115.081573 
L 243.833796 114.979104 
L 243.746362 114.884873 
L 243.64998 114.799816 
L 243.545609 114.724777 
L 243.434284 114.660504 
L 243.317113 114.607634 
L 243.19526 114.566694 
L 243.069937 114.53809 
L 242.942388 114.522106 
L 242.813881 114.518901 
L 242.685694 114.528507 
L 242.5591 114.550829 
L 242.435358 114.585645 
L 242.315698 114.632608 
L 242.201308 114.691253 
L 242.093325 114.760995 
L 241.992824 114.841142 
L 241.900802 114.930898 
L 241.818173 115.029371 
L 241.745761 115.135581 
L 241.684283 115.248473 
L 241.634351 115.366926 
L 241.596461 115.489761 
L 241.57099 115.615759 
L 241.558191 115.743667 
L 241.558191 115.872214 
L 241.57099 116.000121 
L 241.596461 116.126119 
L 241.634351 116.248955 
L 241.684283 116.367407 
L 241.745761 116.4803 
L 241.818173 116.58651 
L 241.900802 116.684982 
L 241.992824 116.774738 
L 242.093325 116.854885 
L 242.201308 116.924628 
L 242.315698 116.983272 
L 242.435358 117.030236 
L 242.5591 117.065051 
L 242.685694 117.087373 
L 242.813881 117.096979 
L 242.942388 117.093775 
L 243.069937 117.077791 
L 243.19526 117.049186 
L 243.317113 117.008246 
L 243.434284 116.955376 
L 243.545609 116.891103 
L 243.64998 116.816065 
L 243.746362 116.731007 
L 243.833796 116.636776 
L 243.911413 116.534308 
L 243.978442 116.42462 
L 244.034216 116.308804 
L 244.078182 116.188009 
L 244.109901 116.063438 
L 244.12906 115.936327 
L 244.135468 115.80794 
" style="fill:none;stroke:#000000;stroke-linecap:square;stroke-opacity:0.7;stroke-width:1.5;"/>
   </g>
   <g id="line2d_39">
    <path clip-path="url(#p79ff0eb837)" d="M 265.649996 51.438154 
L 264.226554 51.170662 
L 262.807252 50.90582 
L 261.402434 50.657666 
L 260.008724 50.436802 
L 258.608159 50.24529 
L 257.196165 50.078051 
L 255.774309 49.929994 
L 254.348597 49.798256 
L 252.920642 49.682159 
L 251.490598 49.581067 
L 250.058622 49.494346 
L 248.624874 49.421358 
L 247.189514 49.36146 
L 245.752703 49.31401 
L 244.314709 49.278373 
L 242.876638 49.254302 
L 241.438814 49.242016 
L 240.001315 49.241759 
L 238.564223 49.253775 
L 237.127617 49.278306 
L 235.691575 49.315595 
L 234.25629 49.365887 
L 232.826806 49.430569 
L 231.406228 49.514228 
L 229.995128 49.621855 
L 228.602872 49.758354 
L 227.278788 49.942584 
L 226.028063 50.208145 
L 224.906794 50.562843 
L 224.413417 50.87623 
L 224.168395 51.291801 
L 224.150111 51.681707 
L 224.349793 52.0792 
L 224.768518 52.392626 
L 225.759608 52.667577 
L 227.045406 52.890625 
L 228.386103 53.041831 
L 229.775686 53.142676 
L 231.205143 53.218384 
L 232.639427 53.28004 
L 234.074564 53.328138 
L 235.510483 53.36304 
L 236.947109 53.385106 
L 238.384367 53.394698 
L 239.822183 53.39218 
L 241.26048 53.377914 
L 242.699183 53.352265 
L 244.138213 53.315599 
L 245.577495 53.268282 
L 247.016948 53.21068 
L 248.456124 53.14309 
L 249.894619 53.065491 
L 251.332353 52.977777 
L 252.769246 52.879843 
L 254.205219 52.771584 
L 255.640192 52.652894 
L 257.074084 52.523669 
L 258.506818 52.383803 
L 259.938313 52.233191 
L 261.368491 52.07173 
L 262.797273 51.899313 
L 264.224579 51.715836 
L 265.650332 51.521195 
" style="fill:none;stroke:#000000;stroke-linecap:square;stroke-opacity:0.7;stroke-width:1.5;"/>
   </g>
   <g id="line2d_40">
    <path clip-path="url(#p79ff0eb837)" d="M 231.819986 51.393159 
L 231.813243 51.258049 
L 231.793081 51.124282 
L 231.7597 50.993188 
L 231.713433 50.866069 
L 231.654738 50.744188 
L 231.584199 50.628757 
L 231.502518 50.520922 
L 231.410506 50.421757 
L 231.309077 50.332246 
L 231.19924 50.253278 
L 231.082086 50.185639 
L 230.95878 50.130001 
L 230.830547 50.086917 
L 230.698661 50.056815 
L 230.564433 50.039994 
L 230.429197 50.036622 
L 230.294298 50.046731 
L 230.161076 50.070222 
L 230.030854 50.10686 
L 229.904928 50.156283 
L 229.784548 50.217998 
L 229.670911 50.291392 
L 229.565147 50.375736 
L 229.468306 50.470192 
L 229.381351 50.573821 
L 229.305147 50.685593 
L 229.24045 50.804396 
L 229.187903 50.929051 
L 229.148029 51.058319 
L 229.121225 51.190914 
L 229.107755 51.32552 
L 229.107755 51.460797 
L 229.121225 51.595403 
L 229.148029 51.727998 
L 229.187903 51.857266 
L 229.24045 51.981921 
L 229.305147 52.100725 
L 229.381351 52.212496 
L 229.468306 52.316125 
L 229.565147 52.410581 
L 229.670911 52.494925 
L 229.784548 52.568319 
L 229.904928 52.630034 
L 230.030854 52.679457 
L 230.161076 52.716096 
L 230.294298 52.739586 
L 230.429197 52.749696 
L 230.564433 52.746323 
L 230.698661 52.729502 
L 230.830547 52.6994 
L 230.95878 52.656316 
L 231.082086 52.600678 
L 231.19924 52.533039 
L 231.309077 52.454072 
L 231.410506 52.36456 
L 231.502518 52.265395 
L 231.584199 52.157561 
L 231.654738 52.04213 
L 231.713433 51.920249 
L 231.7597 51.793129 
L 231.793081 51.662035 
L 231.813243 51.528268 
L 231.819986 51.393159 
" style="fill:none;stroke:#000000;stroke-linecap:square;stroke-opacity:0.7;stroke-width:1.5;"/>
   </g>
   <g id="line2d_41">
    <path clip-path="url(#p79ff0eb837)" d="M 330.53456 311.060079 
L 329.472899 310.48113 
L 328.288869 310.004934 
L 326.976895 309.588238 
L 325.565226 309.178521 
L 324.165312 308.782247 
L 322.784069 308.418682 
L 321.409505 308.10084 
L 320.021464 307.829561 
L 318.621998 307.603581 
L 317.214861 307.421767 
L 315.800097 307.281543 
L 314.377755 307.179619 
L 312.948102 307.112652 
L 311.511469 307.077236 
L 310.068226 307.069886 
L 308.618779 307.087039 
L 307.163554 307.125043 
L 305.70299 307.180162 
L 304.243386 307.249568 
L 302.792683 307.336215 
L 301.351675 307.444992 
L 299.921089 307.580638 
L 298.5016 307.747749 
L 297.093812 307.950795 
L 295.698239 308.19413 
L 294.315282 308.482019 
L 292.945753 308.818548 
L 291.630965 309.203077 
L 290.499445 309.624198 
L 289.54141 310.213565 
L 289.086652 310.728061 
L 289.014963 310.990343 
L 289.066217 311.197188 
L 289.35349 311.512507 
L 290.143806 311.884952 
L 291.176298 312.015344 
L 292.565937 312.04911 
L 293.996698 312.038408 
L 295.466016 312.005875 
L 296.947078 311.971105 
L 298.427845 311.936976 
L 299.908421 311.903355 
L 301.388911 311.870114 
L 302.869417 311.837121 
L 304.350042 311.804247 
L 305.830693 311.771364 
L 307.31141 311.738381 
L 308.792262 311.705299 
L 310.273226 311.672138 
L 311.754282 311.638916 
L 313.235407 311.605654 
L 314.71658 311.572371 
L 316.197756 311.539086 
L 317.678884 311.505821 
L 319.159942 311.472593 
L 320.640908 311.439423 
L 322.121762 311.40633 
L 323.602578 311.373314 
L 325.08336 311.340288 
L 326.564093 311.307138 
L 328.044889 311.273747 
L 329.424105 311.226761 
L 330.53457 311.060232 
" style="fill:none;stroke:#000000;stroke-linecap:square;stroke-opacity:0.7;stroke-width:1.5;"/>
   </g>
   <g id="line2d_42">
    <path clip-path="url(#p79ff0eb837)" d="M 312.678592 309.545371 
L 312.672039 309.414064 
L 312.652444 309.284062 
L 312.620003 309.156657 
L 312.575037 309.033116 
L 312.517994 308.914665 
L 312.449441 308.802483 
L 312.370059 308.697683 
L 312.280636 308.601309 
L 312.182062 308.514317 
L 312.075317 308.437572 
L 311.96146 308.371837 
L 311.841624 308.317765 
L 311.717 308.275893 
L 311.588826 308.246638 
L 311.458376 308.230291 
L 311.326947 308.227013 
L 311.195844 308.236838 
L 311.066371 308.259668 
L 310.939815 308.295275 
L 310.817433 308.343307 
L 310.700441 308.403285 
L 310.590002 308.474613 
L 310.487215 308.556584 
L 310.3931 308.648381 
L 310.308592 308.749093 
L 310.234532 308.857719 
L 310.171656 308.973179 
L 310.120589 309.094326 
L 310.081837 309.219955 
L 310.055787 309.348819 
L 310.042697 309.479636 
L 310.042697 309.611106 
L 310.055787 309.741923 
L 310.081837 309.870786 
L 310.120589 309.996416 
L 310.171656 310.117562 
L 310.234532 310.233022 
L 310.308592 310.341648 
L 310.3931 310.44236 
L 310.487215 310.534158 
L 310.590002 310.616128 
L 310.700441 310.687457 
L 310.817433 310.747435 
L 310.939815 310.795466 
L 311.066371 310.831074 
L 311.195844 310.853903 
L 311.326947 310.863728 
L 311.458376 310.86045 
L 311.588826 310.844103 
L 311.717 310.814848 
L 311.841624 310.772977 
L 311.96146 310.718905 
L 312.075317 310.653169 
L 312.182062 310.576424 
L 312.280636 310.489432 
L 312.370059 310.393058 
L 312.449441 310.288259 
L 312.517994 310.176076 
L 312.575037 310.057626 
L 312.620003 309.934084 
L 312.652444 309.806679 
L 312.672039 309.676678 
L 312.678592 309.545371 
" style="fill:none;stroke:#000000;stroke-linecap:square;stroke-opacity:0.7;stroke-width:1.5;"/>
   </g>
   <g id="line2d_43">
    <path clip-path="url(#p79ff0eb837)" d="M 330.534569 246.086728 
L 329.151792 245.853698 
L 327.740804 245.580503 
L 326.309497 245.293342 
L 324.884021 245.018307 
L 323.449109 244.751723 
L 322.005843 244.488312 
L 320.565055 244.224425 
L 319.133093 243.955629 
L 317.709953 243.676541 
L 316.276345 243.384768 
L 314.853472 243.100106 
L 313.448076 242.840259 
L 312.034123 242.60749 
L 310.604181 242.393634 
L 309.162212 242.191061 
L 307.73734 242.006419 
L 306.335172 241.856925 
L 304.950251 241.75746 
L 303.554926 241.710574 
L 302.144512 241.708749 
L 300.723582 241.74402 
L 299.314592 241.815723 
L 297.923313 241.931804 
L 296.551561 242.100221 
L 295.200797 242.3285 
L 293.908433 242.622571 
L 292.719801 243.005752 
L 291.632048 243.507887 
L 290.6096 244.154358 
L 289.713161 244.892933 
L 289.127608 245.6174 
L 289.002265 246.048189 
L 289.087111 246.359887 
L 289.400922 246.676681 
L 289.873085 246.80947 
L 291.101971 246.789506 
L 292.521168 246.691593 
L 293.963477 246.59942 
L 295.409001 246.522732 
L 296.857265 246.460721 
L 298.307796 246.412573 
L 299.760117 246.37747 
L 301.213751 246.354587 
L 302.669081 246.342936 
L 304.127615 246.340468 
L 305.589546 246.344681 
L 307.055025 246.353035 
L 308.523577 246.362947 
L 309.989914 246.371775 
L 311.455385 246.377651 
L 312.921434 246.380572 
L 314.387996 246.380824 
L 315.855008 246.378693 
L 317.322404 246.374467 
L 318.790089 246.368428 
L 320.257827 246.360766 
L 321.725603 246.351567 
L 323.193448 246.340915 
L 324.661388 246.328892 
L 326.129452 246.315582 
L 327.597669 246.301066 
L 329.066067 246.285429 
L 330.534674 246.268753 
" style="fill:none;stroke:#000000;stroke-linecap:square;stroke-opacity:0.7;stroke-width:1.5;"/>
   </g>
   <g id="line2d_44">
    <path clip-path="url(#p79ff0eb837)" d="M 303.656534 243.838366 
L 303.649678 243.700998 
L 303.629179 243.564996 
L 303.59524 243.431711 
L 303.548199 243.302467 
L 303.488523 243.178549 
L 303.416806 243.061188 
L 303.33376 242.951552 
L 303.24021 242.850729 
L 303.137086 242.759722 
L 303.025413 242.679434 
L 302.906301 242.610665 
L 302.780934 242.554097 
L 302.650558 242.510293 
L 302.516467 242.479688 
L 302.379996 242.462586 
L 302.2425 242.459157 
L 302.105346 242.469435 
L 301.969897 242.493319 
L 301.8375 242.53057 
L 301.709468 242.580818 
L 301.587077 242.643565 
L 301.471541 242.718186 
L 301.364009 242.803939 
L 301.26555 242.899974 
L 301.177142 243.005335 
L 301.099663 243.118974 
L 301.033885 243.239764 
L 300.98046 243.366502 
L 300.93992 243.49793 
L 300.912667 243.632742 
L 300.898973 243.769597 
L 300.898973 243.907135 
L 300.912667 244.04399 
L 300.93992 244.178802 
L 300.98046 244.31023 
L 301.033885 244.436968 
L 301.099663 244.557758 
L 301.177142 244.671397 
L 301.26555 244.776758 
L 301.364009 244.872793 
L 301.471541 244.958546 
L 301.587077 245.033167 
L 301.709468 245.095914 
L 301.8375 245.146162 
L 301.969897 245.183413 
L 302.105346 245.207297 
L 302.2425 245.217575 
L 302.379996 245.214146 
L 302.516467 245.197044 
L 302.650558 245.166439 
L 302.780934 245.122635 
L 302.906301 245.066067 
L 303.025413 244.997298 
L 303.137086 244.91701 
L 303.24021 244.826003 
L 303.33376 244.72518 
L 303.416806 244.615544 
L 303.488523 244.498183 
L 303.548199 244.374265 
L 303.59524 244.245021 
L 303.629179 244.111736 
L 303.649678 243.975734 
L 303.656534 243.838366 
" style="fill:none;stroke:#000000;stroke-linecap:square;stroke-opacity:0.7;stroke-width:1.5;"/>
   </g>
   <g id="line2d_45">
    <path clip-path="url(#p79ff0eb837)" d="M 330.534585 181.291705 
L 329.699895 180.959042 
L 328.525896 180.494702 
L 327.206285 179.904 
L 325.898308 179.398945 
L 324.558541 178.96405 
L 323.188473 178.591441 
L 321.790162 178.273055 
L 320.366131 178.000448 
L 318.919273 177.764674 
L 317.456949 177.55761 
L 315.990432 177.377605 
L 314.520585 177.224472 
L 313.047881 177.097986 
L 311.572791 176.997922 
L 310.095792 176.924052 
L 308.617361 176.87615 
L 307.137975 176.853986 
L 305.658117 176.857331 
L 304.178267 176.885953 
L 302.69891 176.939619 
L 301.220603 177.018094 
L 299.754004 177.123013 
L 298.307372 177.263502 
L 296.881646 177.449908 
L 295.477428 177.691961 
L 294.109641 177.997746 
L 292.823344 178.382303 
L 291.636221 178.866872 
L 290.559052 179.467807 
L 289.616344 180.194609 
L 289.098218 180.793715 
L 289.006381 181.169281 
L 289.077807 181.366851 
L 289.53221 181.682981 
L 290.650471 182.167238 
L 291.888781 182.524285 
L 293.206473 182.776279 
L 294.566402 182.926474 
L 295.968323 182.99078 
L 297.420805 182.996441 
L 298.916854 182.975484 
L 300.415319 182.942716 
L 301.911915 182.897436 
L 303.406572 182.838604 
L 304.902304 182.766317 
L 306.400207 182.682283 
L 307.900719 182.588348 
L 309.397039 182.4854 
L 310.877006 182.366441 
L 312.338932 182.221318 
L 313.782361 182.040391 
L 315.23151 181.818378 
L 316.699822 181.566758 
L 318.185624 181.302469 
L 319.656117 181.049041 
L 321.107708 180.823881 
L 322.543723 180.641659 
L 323.967528 180.515733 
L 325.37204 180.460514 
L 326.739499 180.495182 
L 328.059547 180.636643 
L 329.325337 180.898936 
L 330.534564 181.295193 
" style="fill:none;stroke:#000000;stroke-linecap:square;stroke-opacity:0.7;stroke-width:1.5;"/>
   </g>
   <g id="line2d_46">
    <path clip-path="url(#p79ff0eb837)" d="M 313.336736 178.782227 
L 313.330361 178.654493 
L 313.311299 178.528029 
L 313.279741 178.40409 
L 313.235999 178.28391 
L 313.180508 178.168682 
L 313.11382 178.059552 
L 313.036598 177.957605 
L 312.949608 177.863852 
L 312.853716 177.779227 
L 312.749875 177.704571 
L 312.639117 177.640624 
L 312.522541 177.588023 
L 312.401308 177.547291 
L 312.276621 177.518832 
L 312.149721 177.502929 
L 312.021868 177.499741 
L 311.894332 177.509298 
L 311.768382 177.531507 
L 311.645269 177.566146 
L 311.526217 177.61287 
L 311.412408 177.671216 
L 311.304975 177.740604 
L 311.204984 177.820344 
L 311.11343 177.909644 
L 311.031222 178.007616 
L 310.959177 178.113286 
L 310.898011 178.225604 
L 310.848333 178.343455 
L 310.810636 178.465666 
L 310.785295 178.591023 
L 310.772561 178.718281 
L 310.772561 178.846174 
L 310.785295 178.973431 
L 310.810636 179.098789 
L 310.848333 179.221 
L 310.898011 179.33885 
L 310.959177 179.451169 
L 311.031222 179.556839 
L 311.11343 179.654811 
L 311.204984 179.74411 
L 311.304975 179.82385 
L 311.412408 179.893238 
L 311.526217 179.951584 
L 311.645269 179.998309 
L 311.768382 180.032948 
L 311.894332 180.055156 
L 312.021868 180.064713 
L 312.149721 180.061525 
L 312.276621 180.045622 
L 312.401308 180.017163 
L 312.522541 179.976431 
L 312.639117 179.92383 
L 312.749875 179.859884 
L 312.853716 179.785227 
L 312.949608 179.700602 
L 313.036598 179.60685 
L 313.11382 179.504902 
L 313.180508 179.395772 
L 313.235999 179.280544 
L 313.279741 179.160364 
L 313.311299 179.036426 
L 313.330361 178.909961 
L 313.336736 178.782227 
" style="fill:none;stroke:#000000;stroke-linecap:square;stroke-opacity:0.7;stroke-width:1.5;"/>
   </g>
   <g id="line2d_47">
    <path clip-path="url(#p79ff0eb837)" d="M 330.534481 116.249493 
L 329.095796 116.034306 
L 327.661224 115.822043 
L 326.232663 115.619136 
L 324.79882 115.424484 
L 323.357874 115.233586 
L 321.915158 115.043505 
L 320.483152 114.86059 
L 319.061811 114.693898 
L 317.640654 114.547303 
L 316.216833 114.420121 
L 314.790494 114.311579 
L 313.361791 114.220903 
L 311.930877 114.147312 
L 310.497911 114.090025 
L 309.063053 114.048254 
L 307.626465 114.021208 
L 306.188314 114.008094 
L 304.748764 114.008112 
L 303.307985 114.020459 
L 301.866146 114.044328 
L 300.423415 114.078908 
L 298.982324 114.123682 
L 297.550052 114.181835 
L 296.127354 114.258897 
L 294.714496 114.36025 
L 293.311697 114.491097 
L 291.944289 114.655498 
L 290.785165 114.890647 
L 289.836803 115.258191 
L 289.282288 115.671718 
L 289.038498 116.124107 
L 289.023478 116.541055 
L 289.169665 116.791638 
L 289.615533 117.044514 
L 290.75762 117.315584 
L 292.062577 117.517045 
L 293.435324 117.656875 
L 294.858635 117.769413 
L 296.285012 117.863153 
L 297.712353 117.937485 
L 299.140112 117.991867 
L 300.567745 118.025756 
L 301.99472 118.038617 
L 303.421387 118.030123 
L 304.848038 118.000523 
L 306.274481 117.95017 
L 307.700521 117.879414 
L 309.125963 117.788607 
L 310.550609 117.678102 
L 311.974334 117.548247 
L 313.40293 117.400321 
L 314.840813 117.240079 
L 316.286595 117.074901 
L 317.725257 116.913934 
L 319.154501 116.76469 
L 320.575137 116.634018 
L 321.989353 116.528229 
L 323.406308 116.449224 
L 324.827014 116.395614 
L 326.250819 116.365937 
L 327.67706 116.358715 
L 329.105068 116.372454 
L 330.534165 116.405643 
" style="fill:none;stroke:#000000;stroke-linecap:square;stroke-opacity:0.7;stroke-width:1.5;"/>
   </g>
   <g id="line2d_48">
    <path clip-path="url(#p79ff0eb837)" d="M 302.561049 115.735048 
L 302.554584 115.605514 
L 302.535254 115.477268 
L 302.503251 115.351584 
L 302.458893 115.229711 
L 302.40262 115.112861 
L 302.334993 115.002194 
L 302.256683 114.89881 
L 302.168468 114.803737 
L 302.071226 114.71792 
L 301.965922 114.642212 
L 301.853603 114.577364 
L 301.735386 114.524023 
L 301.612445 114.482717 
L 301.486002 114.453857 
L 301.357314 114.43773 
L 301.22766 114.434497 
L 301.098328 114.444189 
L 300.970604 114.46671 
L 300.845757 114.501837 
L 300.725028 114.549219 
L 300.609616 114.608388 
L 300.500669 114.678753 
L 300.39927 114.759616 
L 300.306426 114.850173 
L 300.22306 114.949525 
L 300.150001 115.056684 
L 300.087974 115.170584 
L 300.037596 115.290095 
L 299.999368 115.414027 
L 299.973669 115.54115 
L 299.960756 115.6702 
L 299.960756 115.799895 
L 299.973669 115.928945 
L 299.999368 116.056068 
L 300.037596 116.180001 
L 300.087974 116.299511 
L 300.150001 116.413411 
L 300.22306 116.52057 
L 300.306426 116.619922 
L 300.39927 116.710479 
L 300.500669 116.791343 
L 300.609616 116.861708 
L 300.725028 116.920876 
L 300.845757 116.968259 
L 300.970604 117.003385 
L 301.098328 117.025906 
L 301.22766 117.035598 
L 301.357314 117.032365 
L 301.486002 117.016238 
L 301.612445 116.987379 
L 301.735386 116.946073 
L 301.853603 116.892731 
L 301.965922 116.827884 
L 302.071226 116.752175 
L 302.168468 116.666358 
L 302.256683 116.571285 
L 302.334993 116.467902 
L 302.40262 116.357235 
L 302.458893 116.240384 
L 302.503251 116.118511 
L 302.535254 115.992827 
L 302.554584 115.864581 
L 302.561049 115.735048 
" style="fill:none;stroke:#000000;stroke-linecap:square;stroke-opacity:0.7;stroke-width:1.5;"/>
   </g>
   <g id="line2d_49">
    <path clip-path="url(#p79ff0eb837)" d="M 330.534738 51.474429 
L 329.130636 51.124608 
L 327.724713 50.786259 
L 326.316907 50.459809 
L 324.907152 50.145681 
L 323.495384 49.8443 
L 322.081537 49.556088 
L 320.665545 49.281466 
L 319.247341 49.020855 
L 317.826886 48.774679 
L 316.40529 48.543876 
L 314.983317 48.330072 
L 313.561166 48.134896 
L 312.139038 47.959958 
L 310.717128 47.806849 
L 309.295624 47.677145 
L 307.874706 47.572405 
L 306.454544 47.49417 
L 305.035298 47.443967 
L 303.617114 47.423309 
L 302.200118 47.433696 
L 300.78585 47.476709 
L 299.38487 47.557002 
L 298.002273 47.682578 
L 296.641429 47.861126 
L 295.30534 48.099859 
L 293.996505 48.405607 
L 292.716826 48.784986 
L 291.49455 49.237067 
L 290.476522 49.751586 
L 289.674288 50.366869 
L 289.131782 51.051714 
L 289.018071 51.467744 
L 289.109986 51.803615 
L 289.445639 52.163012 
L 290.087878 52.397558 
L 291.215548 52.524905 
L 292.577505 52.532814 
L 294.023385 52.517342 
L 295.47267 52.492221 
L 296.925257 52.459431 
L 298.381039 52.420975 
L 299.839912 52.378882 
L 301.301542 52.335212 
L 302.76292 52.291874 
L 304.224312 52.249277 
L 305.685747 52.207343 
L 307.147233 52.165995 
L 308.608778 52.125155 
L 310.070391 52.084747 
L 311.532079 52.044692 
L 312.99385 52.004914 
L 314.455712 51.965335 
L 315.917673 51.925878 
L 317.379725 51.886465 
L 318.841713 51.847023 
L 320.303605 51.807477 
L 321.765409 51.767747 
L 323.227132 51.727758 
L 324.688784 51.687432 
L 326.150371 51.646691 
L 327.611902 51.605458 
L 329.073386 51.563656 
L 330.534829 51.521207 
" style="fill:none;stroke:#000000;stroke-linecap:square;stroke-opacity:0.7;stroke-width:1.5;"/>
   </g>
   <g id="line2d_50">
    <path clip-path="url(#p79ff0eb837)" d="M 307.703783 50.183271 
L 307.695821 50.023755 
L 307.672017 49.865824 
L 307.632606 49.711049 
L 307.577981 49.560966 
L 307.508683 49.417068 
L 307.425403 49.280785 
L 307.328966 49.153472 
L 307.220333 49.036393 
L 307.100582 48.930712 
L 306.970904 48.837479 
L 306.832587 48.757622 
L 306.687006 48.691934 
L 306.535608 48.641067 
L 306.379898 48.605527 
L 306.221423 48.585667 
L 306.061758 48.581686 
L 305.90249 48.593621 
L 305.745202 48.621355 
L 305.591457 48.664612 
L 305.442783 48.722963 
L 305.300658 48.795826 
L 305.166493 48.882479 
L 305.041623 48.982059 
L 304.927289 49.093578 
L 304.824627 49.215926 
L 304.734656 49.347888 
L 304.658272 49.488153 
L 304.596233 49.635326 
L 304.549157 49.787945 
L 304.51751 49.944493 
L 304.501607 50.103414 
L 304.501607 50.263128 
L 304.51751 50.422049 
L 304.549157 50.578597 
L 304.596233 50.731216 
L 304.658272 50.878389 
L 304.734656 51.018654 
L 304.824627 51.150616 
L 304.927289 51.272964 
L 305.041623 51.384483 
L 305.166493 51.484063 
L 305.300658 51.570716 
L 305.442783 51.643579 
L 305.591457 51.70193 
L 305.745202 51.745187 
L 305.90249 51.772921 
L 306.061758 51.784856 
L 306.221423 51.780875 
L 306.379898 51.761015 
L 306.535608 51.725475 
L 306.687006 51.674608 
L 306.832587 51.60892 
L 306.970904 51.529063 
L 307.100582 51.43583 
L 307.220333 51.330149 
L 307.328966 51.21307 
L 307.425403 51.085757 
L 307.508683 50.949474 
L 307.577981 50.805576 
L 307.632606 50.655493 
L 307.672017 50.500718 
L 307.695821 50.342787 
L 307.703783 50.183271 
" style="fill:none;stroke:#000000;stroke-linecap:square;stroke-opacity:0.7;stroke-width:1.5;"/>
   </g>
  </g>
 </g>
 <defs>
  <clipPath id="p79ff0eb837">
   <rect height="329.04" width="329.04" x="15.48" y="15.48"/>
  </clipPath>
 </defs>
</svg>
