<?xml version="1.0" encoding="utf-8" standalone="no"?>
<!DOCTYPE svg PUBLIC "-//W3C//DTD SVG 1.1//EN"
  "http://www.w3.org/Graphics/SVG/1.1/DTD/svg11.dtd">
<!-- Created with matplotlib (http://matplotlib.org/) -->
<svg height="360pt" version="1.1" viewBox="0 0 360 360" width="360pt" xmlns="http://www.w3.org/2000/svg" xmlns:xlink="http://www.w3.org/1999/xlink">
 <defs>
  <style type="text/css">
*{stroke-linecap:butt;stroke-linejoin:round;}
  </style>
 </defs>
 <g id="figure_1">
  <g id="patch_1">
   <path d="M 0 360 
L 360 360 
L 360 0 
L 0 0 
z
" style="fill:#ffffff;"/>
  </g>
  <g id="axes_1">
   <g id="line2d_1">
    <path clip-path="url(#p9975451b51)" d="M 70.303585 309.769602 
L 70.337297 307.041958 
L 70.431133 304.308995 
L 70.576091 301.571001 
L 70.758211 298.814974 
L 70.9292 296.072572 
L 70.984148 293.486424 
L 70.670036 291.329271 
L 69.783196 289.942196 
L 68.203958 289.202064 
L 65.892336 289.005798 
L 63.245137 289.109779 
L 60.491857 289.289374 
L 57.742331 289.464977 
L 55.005399 289.598103 
L 52.273711 289.677611 
L 49.548042 289.694498 
L 46.8198 289.645113 
L 44.085301 289.537435 
L 41.345271 289.381125 
L 38.5863 289.195858 
L 35.857784 289.038211 
L 33.349308 289.050557 
L 31.375699 289.495449 
L 30.165407 290.535838 
L 29.570984 292.313643 
L 29.475543 294.747912 
L 29.613492 297.440207 
L 29.797432 300.20002 
L 29.964303 302.943821 
L 30.084824 305.679444 
L 30.149464 308.409793 
L 30.149666 311.134935 
L 30.084722 313.864675 
L 29.963875 316.600697 
L 29.797275 319.34382 
L 29.612782 322.100806 
L 29.475258 324.803727 
L 29.575484 327.222921 
L 30.159711 328.991848 
L 31.364065 330.03784 
L 33.33783 330.489185 
L 35.864578 330.502486 
L 38.588975 330.342181 
L 41.34986 330.157742 
L 44.08958 330.001183 
L 46.823959 329.894015 
L 49.553138 329.844794 
L 52.278547 329.86116 
L 55.009715 329.940854 
L 57.746965 330.074176 
L 60.494834 330.250333 
L 63.242521 330.429584 
L 65.902253 330.534026 
L 68.225699 330.330843 
L 69.758296 329.608031 
L 70.673069 328.202317 
L 70.982292 326.072792 
L 70.930246 323.466179 
L 70.758465 320.729382 
L 70.57636 317.967493 
L 70.430865 315.230355 
L 70.337504 312.499432 
L 70.303308 309.76808 
" style="fill:none;stroke:#000000;stroke-linecap:square;stroke-opacity:0.7;stroke-width:1.5;"/>
   </g>
   <g id="line2d_2">
    <path clip-path="url(#p9975451b51)" d="M 70.586695 301.214465 
L 70.556883 300.617116 
L 70.467741 300.025703 
L 70.320158 299.446105 
L 70.115598 298.884081 
L 69.856095 298.345218 
L 69.544228 297.83487 
L 69.183097 297.358111 
L 68.77629 296.919678 
L 68.327851 296.523928 
L 67.842237 296.174795 
L 67.324273 295.875749 
L 66.779108 295.629761 
L 66.212159 295.439276 
L 65.629062 295.306188 
L 65.03561 295.231819 
L 64.437703 295.216908 
L 63.841283 295.261603 
L 63.252276 295.365461 
L 62.676537 295.527449 
L 62.119788 295.745957 
L 61.587562 296.018813 
L 61.085148 296.343306 
L 60.61754 296.716211 
L 60.189385 297.133822 
L 59.804939 297.591988 
L 59.468021 298.086155 
L 59.181981 298.611414 
L 58.94966 299.162542 
L 58.773369 299.734063 
L 58.65486 300.320298 
L 58.595309 300.915419 
L 58.595309 301.513512 
L 58.65486 302.108633 
L 58.773369 302.694867 
L 58.94966 303.266388 
L 59.181981 303.817517 
L 59.468021 304.342775 
L 59.804939 304.836943 
L 60.189385 305.295109 
L 60.61754 305.712719 
L 61.085148 306.085624 
L 61.587562 306.410117 
L 62.119788 306.682973 
L 62.676537 306.901481 
L 63.252276 307.063469 
L 63.841283 307.167327 
L 64.437703 307.212022 
L 65.03561 307.197112 
L 65.629062 307.122743 
L 66.212159 306.989654 
L 66.779108 306.79917 
L 67.324273 306.553182 
L 67.842237 306.254135 
L 68.327851 305.905002 
L 68.77629 305.509253 
L 69.183097 305.070819 
L 69.544228 304.59406 
L 69.856095 304.083713 
L 70.115598 303.544849 
L 70.320158 302.982826 
L 70.467741 302.403228 
L 70.556883 301.811815 
L 70.586695 301.214465 
" style="fill:none;stroke:#000000;stroke-linecap:square;stroke-opacity:0.7;stroke-width:1.5;"/>
   </g>
   <g id="line2d_3">
    <path clip-path="url(#p9975451b51)" d="M 67.855313 244.886214 
L 67.991791 242.146819 
L 68.374979 239.37633 
L 68.934615 236.572836 
L 69.596157 233.740901 
L 70.28937 230.888983 
L 70.847777 228.158967 
L 70.942335 225.865132 
L 70.289559 224.600162 
L 68.755522 224.125085 
L 66.29491 224.382491 
L 63.520267 224.99452 
L 60.668957 225.690191 
L 57.851811 226.333145 
L 55.052975 226.85369 
L 52.281923 227.182066 
L 49.551375 227.25482 
L 46.803745 227.047827 
L 44.017595 226.613505 
L 41.207089 226.022239 
L 38.371604 225.345073 
L 35.535533 224.66366 
L 32.846277 224.179233 
L 30.79182 224.273037 
L 29.76033 225.105123 
L 29.473957 226.915117 
L 29.863387 229.503512 
L 30.513875 232.309915 
L 31.205246 235.155636 
L 31.824127 237.965469 
L 32.302107 240.758493 
L 32.57183 243.521554 
L 32.574342 246.24853 
L 32.304475 249.005347 
L 31.823115 251.798856 
L 31.20374 254.615701 
L 30.516512 257.461043 
L 29.858326 260.271007 
L 29.473022 262.881236 
L 29.765091 264.669495 
L 30.793437 265.499871 
L 32.862597 265.592401 
L 35.541169 265.103624 
L 38.369977 264.424686 
L 41.210931 263.747652 
L 44.021633 263.156008 
L 46.797537 262.721479 
L 49.552557 262.5166 
L 52.287652 262.587115 
L 55.051745 262.915473 
L 57.848503 263.437676 
L 60.672917 264.080957 
L 63.52629 264.773909 
L 66.294205 265.392643 
L 68.780474 265.647671 
L 70.292467 265.167166 
L 70.948299 263.899115 
L 70.849081 261.607098 
L 70.287857 258.871862 
L 69.595215 256.025659 
L 68.933935 253.195892 
L 68.375121 250.392204 
L 67.991375 247.620842 
L 67.855714 244.884142 
" style="fill:none;stroke:#000000;stroke-linecap:square;stroke-opacity:0.7;stroke-width:1.5;"/>
   </g>
   <g id="line2d_4">
    <path clip-path="url(#p9975451b51)" d="M 70.39836 229.904775 
L 70.376007 229.456885 
L 70.309169 229.013447 
L 70.198511 228.578867 
L 70.045134 228.157465 
L 69.85056 227.753428 
L 69.616724 227.370773 
L 69.34595 227.013301 
L 69.040928 226.684566 
L 68.704691 226.387835 
L 68.34058 226.126057 
L 67.952214 225.901834 
L 67.543452 225.717393 
L 67.118357 225.574569 
L 66.681153 225.47478 
L 66.236187 225.419019 
L 65.787879 225.407839 
L 65.340686 225.441351 
L 64.899052 225.519223 
L 64.467366 225.640681 
L 64.049919 225.804517 
L 63.650859 226.009103 
L 63.274152 226.252406 
L 62.923542 226.532008 
L 62.602513 226.84513 
L 62.314257 227.188661 
L 62.061638 227.559185 
L 61.847167 227.953021 
L 61.672974 228.366254 
L 61.540792 228.794777 
L 61.451934 229.234333 
L 61.407283 229.680551 
L 61.407283 230.128998 
L 61.451934 230.575217 
L 61.540792 231.014772 
L 61.672974 231.443296 
L 61.847167 231.856529 
L 62.061638 232.250364 
L 62.314257 232.620889 
L 62.602513 232.964419 
L 62.923542 233.277541 
L 63.274152 233.557143 
L 63.650859 233.800446 
L 64.049919 234.005033 
L 64.467366 234.168869 
L 64.899052 234.290326 
L 65.340686 234.368198 
L 65.787879 234.401711 
L 66.236187 234.390531 
L 66.681153 234.334769 
L 67.118357 234.23498 
L 67.543452 234.092156 
L 67.952214 233.907715 
L 68.34058 233.683492 
L 68.704691 233.421714 
L 69.040928 233.124983 
L 69.34595 232.796248 
L 69.616724 232.438777 
L 69.85056 232.056121 
L 70.045134 231.652084 
L 70.198511 231.230682 
L 70.309169 230.796102 
L 70.376007 230.352664 
L 70.39836 229.904775 
" style="fill:none;stroke:#000000;stroke-linecap:square;stroke-opacity:0.7;stroke-width:1.5;"/>
   </g>
   <g id="line2d_5">
    <path clip-path="url(#p9975451b51)" d="M 68.878427 180.000803 
L 68.971144 177.261942 
L 69.233062 174.502686 
L 69.62419 171.724661 
L 70.099236 168.918195 
L 70.591523 166.095738 
L 70.950474 163.418411 
L 70.877618 161.203268 
L 70.124891 159.860071 
L 68.552447 159.272686 
L 66.165075 159.344258 
L 63.436037 159.758332 
L 60.610904 160.255605 
L 57.816875 160.714736 
L 55.041893 161.076304 
L 52.283647 161.299815 
L 49.548659 161.348737 
L 46.804053 161.208626 
L 44.037035 160.910524 
L 41.253498 160.493942 
L 38.438471 160.006527 
L 35.635569 159.527243 
L 33.012874 159.243395 
L 31.017951 159.48086 
L 29.881707 160.402153 
L 29.467668 162.212492 
L 29.658069 164.731991 
L 30.111884 167.50021 
L 30.607635 170.322278 
L 31.046628 173.108546 
L 31.376795 175.880056 
L 31.559908 178.633751 
L 31.561473 181.366556 
L 31.378317 184.11632 
L 31.046314 186.887886 
L 30.606672 189.677637 
L 30.112762 192.49978 
L 29.656445 195.273289 
L 29.469203 197.821793 
L 29.882586 199.570715 
L 30.982638 200.519161 
L 33.024093 200.758323 
L 35.638076 200.474904 
L 38.436543 199.994445 
L 41.249535 199.506391 
L 44.030265 199.090768 
L 46.798165 198.794072 
L 49.546766 198.653 
L 52.279642 198.699053 
L 55.034968 198.923465 
L 57.811627 199.286682 
L 60.60839 199.745023 
L 63.432382 200.239783 
L 66.165546 200.662786 
L 68.580231 200.721087 
L 70.123879 200.140542 
L 70.873852 198.815145 
L 70.952473 196.584597 
L 70.592525 193.899321 
L 70.097816 191.081298 
L 69.624335 188.275408 
L 69.23316 185.496299 
L 68.970745 182.737228 
L 68.87885 180.000073 
" style="fill:none;stroke:#000000;stroke-linecap:square;stroke-opacity:0.7;stroke-width:1.5;"/>
   </g>
   <g id="line2d_6">
    <path clip-path="url(#p9975451b51)" d="M 55.650115 167.552576 
L 55.619282 166.934787 
L 55.527091 166.323139 
L 55.374458 165.723709 
L 55.162899 165.142455 
L 54.894517 164.585154 
L 54.571979 164.057345 
L 54.198492 163.564273 
L 53.777766 163.110838 
L 53.313983 162.701548 
L 52.811753 162.340469 
L 52.276067 162.03119 
L 51.712248 161.776786 
L 51.125901 161.579783 
L 50.522852 161.442141 
L 49.909095 161.365228 
L 49.29073 161.349807 
L 48.673902 161.396032 
L 48.064742 161.503443 
L 47.469304 161.670973 
L 46.893505 161.896958 
L 46.343069 162.17915 
L 45.823465 162.514746 
L 45.339857 162.90041 
L 44.897052 163.33231 
L 44.499451 163.806152 
L 44.151006 164.317228 
L 43.855178 164.860458 
L 43.614909 165.430444 
L 43.432586 166.021521 
L 43.310021 166.627814 
L 43.248433 167.243297 
L 43.248433 167.861854 
L 43.310021 168.477338 
L 43.432586 169.083631 
L 43.614909 169.674707 
L 43.855178 170.244693 
L 44.151006 170.787923 
L 44.499451 171.298999 
L 44.897052 171.772842 
L 45.339857 172.204741 
L 45.823465 172.590405 
L 46.343069 172.926001 
L 46.893505 173.208194 
L 47.469304 173.434178 
L 48.064742 173.601709 
L 48.673902 173.70912 
L 49.29073 173.755345 
L 49.909095 173.739924 
L 50.522852 173.66301 
L 51.125901 173.525368 
L 51.712248 173.328366 
L 52.276067 173.073961 
L 52.811753 172.764683 
L 53.313983 172.403604 
L 53.777766 171.994313 
L 54.198492 171.540878 
L 54.571979 171.047806 
L 54.894517 170.519997 
L 55.162899 169.962696 
L 55.374458 169.381442 
L 55.527091 168.782013 
L 55.619282 168.170364 
L 55.650115 167.552576 
" style="fill:none;stroke:#000000;stroke-linecap:square;stroke-opacity:0.7;stroke-width:1.5;"/>
   </g>
   <g id="line2d_7">
    <path clip-path="url(#p9975451b51)" d="M 68.971418 115.118801 
L 69.104355 112.515469 
L 69.484097 109.864311 
L 70.016372 107.144652 
L 70.56051 104.422488 
L 70.923759 101.8108 
L 70.95318 99.34789 
L 70.452326 97.235641 
L 69.352627 95.674882 
L 67.635014 94.719634 
L 65.43118 94.355126 
L 62.913471 94.488373 
L 60.271888 94.908501 
L 57.533445 95.466982 
L 54.835847 95.973995 
L 52.196401 96.298914 
L 49.587976 96.369988 
L 46.963561 96.165729 
L 44.300344 95.739864 
L 41.563888 95.185282 
L 38.871682 94.671224 
L 36.282855 94.378204 
L 33.892333 94.463115 
L 31.900553 95.115435 
L 30.4952 96.365166 
L 29.687806 98.23188 
L 29.465171 100.525956 
L 29.688085 103.089309 
L 30.157858 105.756184 
L 30.720964 108.500598 
L 31.191813 111.179121 
L 31.457816 113.810381 
L 31.458332 116.41579 
L 31.191423 119.049124 
L 30.722838 121.727894 
L 30.158656 124.47352 
L 29.685279 127.136022 
L 29.471589 129.69789 
L 29.683949 131.999599 
L 30.490961 133.859141 
L 31.890954 135.110307 
L 33.896557 135.766961 
L 36.268104 135.85904 
L 38.865992 135.55833 
L 41.561423 135.047447 
L 44.296115 134.493928 
L 46.959071 134.066554 
L 49.589955 133.859988 
L 52.187684 133.931916 
L 54.829711 134.261088 
L 57.536245 134.762605 
L 60.282569 135.323252 
L 62.910221 135.747881 
L 65.431606 135.870539 
L 67.637475 135.51666 
L 69.351681 134.553567 
L 70.448729 133.001676 
L 70.95376 130.873764 
L 70.926156 128.430319 
L 70.558081 125.807029 
L 70.017009 123.085654 
L 69.483952 120.365767 
L 69.103907 117.714875 
L 68.97182 115.113237 
" style="fill:none;stroke:#000000;stroke-linecap:square;stroke-opacity:0.7;stroke-width:1.5;"/>
   </g>
   <g id="line2d_8">
    <path clip-path="url(#p9975451b51)" d="M 41.205206 110.487643 
L 41.180207 109.98676 
L 41.105462 109.490855 
L 40.981711 109.004856 
L 40.810186 108.533594 
L 40.59259 108.081752 
L 40.331087 107.653821 
L 40.028275 107.254054 
L 39.687164 106.886424 
L 39.311144 106.554584 
L 38.903952 106.261832 
L 38.469634 106.011079 
L 38.012508 105.804816 
L 37.537116 105.645093 
L 37.048184 105.533497 
L 36.550569 105.471138 
L 36.049218 105.458635 
L 35.549114 105.496113 
L 35.055226 105.583198 
L 34.572464 105.719027 
L 34.105625 105.902248 
L 33.659348 106.13104 
L 33.23807 106.403131 
L 32.845976 106.715815 
L 32.486964 107.065985 
L 32.164602 107.450162 
L 31.882093 107.864526 
L 31.642246 108.30496 
L 31.447443 108.767086 
L 31.299621 109.246312 
L 31.20025 109.737875 
L 31.150316 110.23689 
L 31.150316 110.738396 
L 31.20025 111.237411 
L 31.299621 111.728974 
L 31.447443 112.2082 
L 31.642246 112.670326 
L 31.882093 113.11076 
L 32.164602 113.525124 
L 32.486964 113.909301 
L 32.845976 114.259471 
L 33.23807 114.572155 
L 33.659348 114.844246 
L 34.105625 115.073038 
L 34.572464 115.256259 
L 35.055226 115.392088 
L 35.549114 115.479173 
L 36.049218 115.516651 
L 36.550569 115.504148 
L 37.048184 115.441789 
L 37.537116 115.330193 
L 38.012508 115.17047 
L 38.469634 114.964207 
L 38.903952 114.713453 
L 39.311144 114.420702 
L 39.687164 114.088862 
L 40.028275 113.721232 
L 40.331087 113.321465 
L 40.59259 112.893534 
L 40.810186 112.441692 
L 40.981711 111.97043 
L 41.105462 111.484431 
L 41.180207 110.988526 
L 41.205206 110.487643 
" style="fill:none;stroke:#000000;stroke-linecap:square;stroke-opacity:0.7;stroke-width:1.5;"/>
   </g>
   <g id="line2d_9">
    <path clip-path="url(#p9975451b51)" d="M 67.503204 50.234173 
L 67.694483 47.568448 
L 68.2171 44.863797 
L 68.965897 42.104349 
L 69.80181 39.295819 
L 70.532993 36.547086 
L 70.966692 33.944087 
L 70.816931 31.720382 
L 69.91783 30.258092 
L 68.261843 29.539347 
L 65.891803 29.559815 
L 63.244377 30.091532 
L 60.475021 30.865041 
L 57.665541 31.696372 
L 54.923593 32.400742 
L 52.227689 32.849406 
L 49.571061 32.947897 
L 46.893563 32.664026 
L 44.17786 32.074054 
L 41.402351 31.287896 
L 38.598471 30.461924 
L 35.865279 29.778321 
L 33.338232 29.469851 
L 31.280626 29.800679 
L 30.010068 30.88344 
L 29.479297 32.738347 
L 29.655735 35.216807 
L 30.27095 37.906993 
L 31.076018 40.69542 
L 31.890482 43.491784 
L 32.541605 46.219163 
L 32.909569 48.906579 
L 32.910401 51.559084 
L 32.540247 54.247138 
L 31.88965 56.975115 
L 31.074887 59.770139 
L 30.271469 62.555379 
L 29.651076 65.260628 
L 29.48551 67.7111 
L 30.003025 69.570234 
L 31.273216 70.656108 
L 33.318998 70.995665 
L 35.874506 70.683057 
L 38.598533 70.000289 
L 41.406639 69.174102 
L 44.182981 68.387303 
L 46.893219 67.797359 
L 49.579792 67.516046 
L 52.229855 67.612769 
L 54.92269 68.062915 
L 57.673372 68.767586 
L 60.48013 69.599133 
L 63.238313 70.368689 
L 65.905903 70.910163 
L 68.263265 70.913993 
L 69.911144 70.209684 
L 70.813921 68.744823 
L 70.965082 66.528226 
L 70.536112 63.915946 
L 69.80039 61.166982 
L 68.965471 58.356361 
L 68.216915 55.595687 
L 67.693475 52.890631 
L 67.504053 50.228996 
" style="fill:none;stroke:#000000;stroke-linecap:square;stroke-opacity:0.7;stroke-width:1.5;"/>
   </g>
   <g id="line2d_10">
    <path clip-path="url(#p9975451b51)" d="M 42.524102 35.601078 
L 42.497632 35.070708 
L 42.418486 34.545609 
L 42.287451 34.030999 
L 42.105827 33.531994 
L 41.875422 33.053552 
L 41.598524 32.600429 
L 41.277886 32.177127 
L 40.916693 31.787855 
L 40.518537 31.436479 
L 40.087373 31.126494 
L 39.627487 30.860979 
L 39.14345 30.642573 
L 38.640072 30.473447 
L 38.122356 30.355281 
L 37.595447 30.289251 
L 37.064581 30.276012 
L 36.535036 30.315696 
L 36.012073 30.407908 
L 35.500891 30.551733 
L 35.006568 30.74574 
L 34.53402 30.988002 
L 34.08794 31.27611 
L 33.672764 31.607202 
L 33.292617 31.977987 
L 32.951277 32.38478 
L 32.652137 32.823538 
L 32.39817 33.2899 
L 32.191899 33.779232 
L 32.035375 34.28667 
L 31.930154 34.807171 
L 31.87728 35.335563 
L 31.87728 35.866593 
L 31.930154 36.394985 
L 32.035375 36.915486 
L 32.191899 37.422924 
L 32.39817 37.912256 
L 32.652137 38.378618 
L 32.951277 38.817376 
L 33.292617 39.224169 
L 33.672764 39.594954 
L 34.08794 39.926046 
L 34.53402 40.214154 
L 35.006568 40.456416 
L 35.500891 40.650423 
L 36.012073 40.794247 
L 36.535036 40.88646 
L 37.064581 40.926144 
L 37.595447 40.912905 
L 38.122356 40.846875 
L 38.640072 40.728709 
L 39.14345 40.559583 
L 39.627487 40.341177 
L 40.087373 40.075662 
L 40.518537 39.765677 
L 40.916693 39.414301 
L 41.277886 39.025029 
L 41.598524 38.601727 
L 41.875422 38.148604 
L 42.105827 37.670162 
L 42.287451 37.171157 
L 42.418486 36.656547 
L 42.497632 36.131448 
L 42.524102 35.601078 
" style="fill:none;stroke:#000000;stroke-linecap:square;stroke-opacity:0.7;stroke-width:1.5;"/>
   </g>
   <g id="line2d_11">
    <path clip-path="url(#p9975451b51)" d="M 132.947586 309.773298 
L 133.129788 307.158297 
L 133.634131 304.495547 
L 134.345366 301.756742 
L 135.089709 298.997103 
L 135.658363 296.326662 
L 135.8817 293.80013 
L 135.520781 291.624772 
L 134.487009 290.082935 
L 132.778891 289.214185 
L 130.489645 289.011737 
L 127.910132 289.342263 
L 125.218031 289.968085 
L 122.445312 290.726117 
L 119.732018 291.399297 
L 117.079171 291.832473 
L 114.469803 291.928088 
L 111.838138 291.65385 
L 109.159834 291.086783 
L 106.401786 290.345358 
L 103.666845 289.629773 
L 101.012185 289.129318 
L 98.560458 289.031359 
L 96.520763 289.560121 
L 95.147351 290.763007 
L 94.449648 292.637842 
L 94.399598 295.021455 
L 94.824464 297.643468 
L 95.499241 300.357022 
L 96.256705 303.130192 
L 96.881562 305.823605 
L 97.237154 308.4664 
L 97.238214 311.071304 
L 96.880711 313.714973 
L 96.25731 316.409575 
L 95.499405 319.181102 
L 94.824026 321.890317 
L 94.402387 324.522294 
L 94.445098 326.885004 
L 95.146698 328.773009 
L 96.511361 329.97374 
L 98.55928 330.50434 
L 101.005243 330.41683 
L 103.659695 329.907154 
L 106.400787 329.194393 
L 109.164507 328.45234 
L 111.838409 327.883715 
L 114.471957 327.611751 
L 117.078946 327.706085 
L 119.734465 328.140968 
L 122.447898 328.812306 
L 125.219969 329.572264 
L 127.904502 330.196838 
L 130.502305 330.526193 
L 132.764058 330.328506 
L 134.487721 329.452353 
L 135.517509 327.921909 
L 135.879543 325.73114 
L 135.663756 323.221924 
L 135.087554 320.544473 
L 134.345468 317.7804 
L 133.633839 315.038777 
L 133.128603 312.377161 
L 132.948579 309.765533 
" style="fill:none;stroke:#000000;stroke-linecap:square;stroke-opacity:0.7;stroke-width:1.5;"/>
   </g>
   <g id="line2d_12">
    <path clip-path="url(#p9975451b51)" d="M 119.92519 321.970547 
L 119.897141 321.408542 
L 119.813275 320.852123 
L 119.674423 320.306818 
L 119.481967 319.778049 
L 119.237819 319.27107 
L 118.944405 318.790919 
L 118.604641 318.342369 
L 118.221905 317.929877 
L 117.8 317.557544 
L 117.343118 317.229069 
L 116.855802 316.947716 
L 116.342893 316.716283 
L 115.80949 316.537069 
L 115.260894 316.411856 
L 114.702557 316.341887 
L 114.140027 316.327858 
L 113.578896 316.369909 
L 113.02474 316.467622 
L 112.483067 316.620025 
L 111.95926 316.825604 
L 111.458525 317.082316 
L 110.985839 317.387609 
L 110.545899 317.73845 
L 110.143077 318.131351 
L 109.781378 318.562407 
L 109.464395 319.027336 
L 109.195279 319.521515 
L 108.976705 320.040034 
L 108.810845 320.577739 
L 108.699347 321.129287 
L 108.64332 321.689195 
L 108.64332 322.251899 
L 108.699347 322.811808 
L 108.810845 323.363355 
L 108.976705 323.90106 
L 109.195279 324.419579 
L 109.464395 324.913759 
L 109.781378 325.378687 
L 110.143077 325.809744 
L 110.545899 326.202645 
L 110.985839 326.553485 
L 111.458525 326.858778 
L 111.95926 327.11549 
L 112.483067 327.321069 
L 113.02474 327.473472 
L 113.578896 327.571185 
L 114.140027 327.613236 
L 114.702557 327.599207 
L 115.260894 327.529239 
L 115.80949 327.404025 
L 116.342893 327.224811 
L 116.855802 326.993378 
L 117.343118 326.712026 
L 117.8 326.383551 
L 118.221905 326.011217 
L 118.604641 325.598725 
L 118.944405 325.150175 
L 119.237819 324.670025 
L 119.481967 324.163045 
L 119.674423 323.634276 
L 119.813275 323.088972 
L 119.897141 322.532552 
L 119.92519 321.970547 
" style="fill:none;stroke:#000000;stroke-linecap:square;stroke-opacity:0.7;stroke-width:1.5;"/>
   </g>
   <g id="line2d_13">
    <path clip-path="url(#p9975451b51)" d="M 135.219068 244.884786 
L 135.254259 242.170426 
L 135.350454 239.450145 
L 135.4989 236.725384 
L 135.683712 233.983483 
L 135.839049 231.273163 
L 135.850988 228.723839 
L 135.479449 226.603555 
L 134.523833 225.167194 
L 132.947838 224.391802 
L 130.663093 224.119778 
L 128.063512 224.193923 
L 125.33365 224.365072 
L 122.591835 224.542474 
L 119.866488 224.678823 
L 117.148542 224.761166 
L 114.437602 224.779046 
L 111.723094 224.728093 
L 109.001227 224.617163 
L 106.273471 224.457052 
L 103.531401 224.272302 
L 100.83572 224.13676 
L 98.373195 224.197155 
L 96.407864 224.705146 
L 95.156732 225.794093 
L 94.505562 227.575154 
L 94.35156 229.96171 
L 94.461978 232.620109 
L 94.641406 235.359132 
L 94.812205 238.091393 
L 94.935972 240.813867 
L 95.002503 243.530709 
L 95.002729 246.242059 
L 94.935923 248.958415 
L 94.811959 251.681504 
L 94.641687 254.412356 
L 94.460875 257.147648 
L 94.352985 259.816141 
L 94.50647 262.183423 
L 95.15084 263.966546 
L 96.399164 265.059481 
L 98.359626 265.571104 
L 100.836444 265.63601 
L 103.530131 265.496545 
L 106.275592 265.312959 
L 109.002776 265.152386 
L 111.723832 265.042217 
L 114.439342 264.991529 
L 117.150996 265.008418 
L 119.869015 265.090396 
L 122.593559 265.226984 
L 125.329995 265.406411 
L 128.049812 265.577194 
L 130.674799 265.644893 
L 132.942357 265.383363 
L 134.519008 264.601249 
L 135.474347 263.172717 
L 135.849585 261.053407 
L 135.841283 258.505317 
L 135.682606 255.791896 
L 135.499625 253.0426 
L 135.350397 250.317861 
L 135.254036 247.599839 
L 135.219325 244.883916 
" style="fill:none;stroke:#000000;stroke-linecap:square;stroke-opacity:0.7;stroke-width:1.5;"/>
   </g>
   <g id="line2d_14">
    <path clip-path="url(#p9975451b51)" d="M 135.510243 253.392819 
L 135.481514 252.817176 
L 135.395612 252.247253 
L 135.25339 251.688716 
L 135.056264 251.147114 
L 134.80619 250.627832 
L 134.505656 250.136029 
L 134.157647 249.676593 
L 133.765623 249.254092 
L 133.333479 248.872722 
L 132.86551 248.536276 
L 132.366368 248.248096 
L 131.841012 248.011046 
L 131.294664 247.827483 
L 130.732755 247.699231 
L 130.160868 247.627564 
L 129.584687 247.613195 
L 129.009938 247.656267 
L 128.442334 247.756351 
L 127.887516 247.912452 
L 127.350998 248.12302 
L 126.838111 248.385962 
L 126.353954 248.698664 
L 125.903337 249.058018 
L 125.49074 249.460454 
L 125.120263 249.901972 
L 124.795588 250.378183 
L 124.519941 250.884355 
L 124.296063 251.415457 
L 124.126178 251.966211 
L 124.011974 252.531143 
L 123.954587 253.104639 
L 123.954587 253.680999 
L 124.011974 254.254495 
L 124.126178 254.819428 
L 124.296063 255.370182 
L 124.519941 255.901284 
L 124.795588 256.407456 
L 125.120263 256.883667 
L 125.49074 257.325184 
L 125.903337 257.72762 
L 126.353954 258.086975 
L 126.838111 258.399677 
L 127.350998 258.662619 
L 127.887516 258.873187 
L 128.442334 259.029288 
L 129.009938 259.129372 
L 129.584687 259.172444 
L 130.160868 259.158075 
L 130.732755 259.086408 
L 131.294664 258.958156 
L 131.841012 258.774593 
L 132.366368 258.537543 
L 132.86551 258.249363 
L 133.333479 257.912916 
L 133.765623 257.531547 
L 134.157647 257.109045 
L 134.505656 256.64961 
L 134.80619 256.157807 
L 135.056264 255.638525 
L 135.25339 255.096923 
L 135.395612 254.538386 
L 135.481514 253.968463 
L 135.510243 253.392819 
" style="fill:none;stroke:#000000;stroke-linecap:square;stroke-opacity:0.7;stroke-width:1.5;"/>
   </g>
   <g id="line2d_15">
    <path clip-path="url(#p9975451b51)" d="M 131.546044 180.002679 
L 131.736637 177.262486 
L 132.260834 174.478481 
L 133.006928 171.643269 
L 133.863735 168.784389 
L 134.759436 165.906153 
L 135.550656 163.097986 
L 135.876195 160.716647 
L 135.359297 159.562529 
L 133.89653 159.241212 
L 131.328484 159.742624 
L 128.500655 160.575705 
L 125.620184 161.471267 
L 122.764214 162.307695 
L 119.944681 163.01056 
L 117.168968 163.460973 
L 114.432101 163.559439 
L 111.683644 163.273642 
L 108.881479 162.683173 
L 106.039139 161.901213 
L 103.176275 161.026508 
L 100.307097 160.140683 
L 97.536414 159.409854 
L 95.42468 159.300788 
L 94.523722 160.0042 
L 94.419299 161.810928 
L 95.05235 164.48946 
L 95.916385 167.338205 
L 96.804145 170.213898 
L 97.615705 173.064473 
L 98.26722 175.870095 
L 98.63658 178.637846 
L 98.636752 181.368886 
L 98.265733 184.129884 
L 97.615321 186.943606 
L 96.802471 189.792642 
L 95.915615 192.664812 
L 95.049868 195.51587 
L 94.410075 198.203743 
L 94.528768 200.009152 
L 95.434848 200.703005 
L 97.561845 200.584918 
L 100.314506 199.856224 
L 103.180252 198.972486 
L 106.048487 198.097875 
L 108.89224 197.316106 
L 111.683631 196.724577 
L 114.444286 196.442525 
L 117.17477 196.540513 
L 119.948053 196.99141 
L 122.77364 197.694927 
L 125.62862 198.532567 
L 128.507284 199.42634 
L 131.331905 200.259778 
L 133.878829 200.765978 
L 135.368458 200.440274 
L 135.881517 199.235172 
L 135.545046 196.88603 
L 134.757318 194.087334 
L 133.862448 191.210588 
L 133.004798 188.354077 
L 132.260995 185.51948 
L 131.735676 182.733759 
L 131.546868 179.998714 
" style="fill:none;stroke:#000000;stroke-linecap:square;stroke-opacity:0.7;stroke-width:1.5;"/>
   </g>
   <g id="line2d_16">
    <path clip-path="url(#p9975451b51)" d="M 121.352568 189.298797 
L 121.317049 188.587112 
L 121.210846 187.8825 
L 121.035014 187.191963 
L 120.791301 186.522366 
L 120.482128 185.880362 
L 120.110568 185.272331 
L 119.680315 184.704318 
L 119.195643 184.181967 
L 118.661371 183.710469 
L 118.082808 183.29451 
L 117.465703 182.938224 
L 116.816191 182.645153 
L 116.140725 182.418209 
L 115.44602 182.259647 
L 114.738979 182.171043 
L 114.02663 182.153278 
L 113.316052 182.206529 
L 112.614306 182.330265 
L 111.928368 182.523259 
L 111.265055 182.78359 
L 110.630958 183.108672 
L 110.03238 183.495275 
L 109.47527 183.939556 
L 108.965164 184.437099 
L 108.507132 184.98296 
L 108.105727 185.571713 
L 107.764937 186.197509 
L 107.488149 186.854126 
L 107.278116 187.535039 
L 107.136922 188.233481 
L 107.065973 188.942511 
L 107.065973 189.655082 
L 107.136922 190.364112 
L 107.278116 191.062555 
L 107.488149 191.743468 
L 107.764937 192.400085 
L 108.105727 193.02588 
L 108.507132 193.614634 
L 108.965164 194.160495 
L 109.47527 194.658038 
L 110.03238 195.102319 
L 110.630958 195.488921 
L 111.265055 195.814004 
L 111.928368 196.074335 
L 112.614306 196.267328 
L 113.316052 196.391065 
L 114.02663 196.444315 
L 114.738979 196.42655 
L 115.44602 196.337947 
L 116.140725 196.179385 
L 116.816191 195.95244 
L 117.465703 195.659369 
L 118.082808 195.303084 
L 118.661371 194.887125 
L 119.195643 194.415627 
L 119.680315 193.893276 
L 120.110568 193.325262 
L 120.482128 192.717232 
L 120.791301 192.075228 
L 121.035014 191.40563 
L 121.210846 190.715094 
L 121.317049 190.010482 
L 121.352568 189.298797 
" style="fill:none;stroke:#000000;stroke-linecap:square;stroke-opacity:0.7;stroke-width:1.5;"/>
   </g>
   <g id="line2d_17">
    <path clip-path="url(#p9975451b51)" d="M 134.9145 115.116111 
L 134.961975 112.396566 
L 135.095709 109.668214 
L 135.300096 106.931323 
L 135.552918 104.169809 
L 135.785975 101.430658 
L 135.87326 98.861363 
L 135.554507 96.709671 
L 134.644674 95.305154 
L 133.054835 94.545225 
L 130.7549 94.352157 
L 128.121364 94.497259 
L 125.368529 94.743303 
L 122.615278 94.988227 
L 119.880052 95.176294 
L 117.153073 95.289835 
L 114.435834 95.314156 
L 111.714357 95.243337 
L 108.982839 95.090352 
L 106.242793 94.871072 
L 103.479166 94.614905 
L 100.757226 94.400532 
L 98.268073 94.390363 
L 96.291856 94.846218 
L 95.059915 95.911904 
L 94.450062 97.692101 
L 94.366985 100.111664 
L 94.554142 102.793329 
L 94.807534 105.556233 
L 95.041145 108.301456 
L 95.211893 111.034594 
L 95.304381 113.759398 
L 95.304716 116.475806 
L 95.211765 119.199745 
L 95.040555 121.933655 
L 94.80771 124.678148 
L 94.55372 127.437936 
L 94.366292 130.131704 
L 94.453535 132.528835 
L 95.053701 134.310811 
L 96.28347 135.379951 
L 98.251433 135.84146 
L 100.762534 135.832683 
L 103.479574 135.616199 
L 106.245652 135.360847 
L 108.985094 135.140891 
L 111.716212 134.988554 
L 114.438958 134.917938 
L 117.155713 134.941558 
L 119.882141 135.055598 
L 122.618282 135.243903 
L 125.369424 135.488668 
L 128.117023 135.734356 
L 130.76648 135.881614 
L 133.062863 135.681247 
L 134.62749 134.934339 
L 135.555235 133.519294 
L 135.871227 131.385932 
L 135.787995 128.803841 
L 135.552719 126.067805 
L 135.300551 123.299767 
L 135.095516 120.563268 
L 134.962079 117.837043 
L 134.914358 115.114397 
" style="fill:none;stroke:#000000;stroke-linecap:square;stroke-opacity:0.7;stroke-width:1.5;"/>
   </g>
   <g id="line2d_18">
    <path clip-path="url(#p9975451b51)" d="M 132.748028 128.738897 
L 132.714353 128.064169 
L 132.613665 127.396147 
L 132.446964 126.741469 
L 132.215906 126.106643 
L 131.922788 125.497977 
L 131.570523 124.921521 
L 131.162612 124.383004 
L 130.703109 123.887778 
L 130.196581 123.440764 
L 129.648062 123.046406 
L 129.063003 122.708622 
L 128.447219 122.430769 
L 127.80683 122.21561 
L 127.1482 122.065282 
L 126.477875 121.981279 
L 125.802517 121.964437 
L 125.128838 122.014922 
L 124.463533 122.132233 
L 123.813215 122.315204 
L 123.184347 122.562017 
L 122.583178 122.870218 
L 122.015683 123.236745 
L 121.487503 123.657955 
L 121.003886 124.129661 
L 120.56964 124.647176 
L 120.189079 125.205357 
L 119.865986 125.798655 
L 119.603572 126.421175 
L 119.404445 127.066729 
L 119.270583 127.728902 
L 119.203319 128.401113 
L 119.203319 129.076681 
L 119.270583 129.748892 
L 119.404445 130.411065 
L 119.603572 131.056619 
L 119.865986 131.679139 
L 120.189079 132.272437 
L 120.56964 132.830618 
L 121.003886 133.348133 
L 121.487503 133.819839 
L 122.015683 134.241049 
L 122.583178 134.607576 
L 123.184347 134.915777 
L 123.813215 135.16259 
L 124.463533 135.345561 
L 125.128838 135.462872 
L 125.802517 135.513357 
L 126.477875 135.496515 
L 127.1482 135.412512 
L 127.80683 135.262184 
L 128.447219 135.047025 
L 129.063003 134.769173 
L 129.648062 134.431389 
L 130.196581 134.03703 
L 130.703109 133.590016 
L 131.162612 133.09479 
L 131.570523 132.556273 
L 131.922788 131.979817 
L 132.215906 131.371151 
L 132.446964 130.736325 
L 132.613665 130.081648 
L 132.714353 129.413625 
L 132.748028 128.738897 
" style="fill:none;stroke:#000000;stroke-linecap:square;stroke-opacity:0.7;stroke-width:1.5;"/>
   </g>
   <g id="line2d_19">
    <path clip-path="url(#p9975451b51)" d="M 128.987734 50.23262 
L 129.415193 47.750504 
L 130.553677 45.075571 
L 132.040114 42.290417 
L 133.509737 39.498819 
L 134.788193 36.715988 
L 135.667626 33.997709 
L 135.831729 31.59064 
L 135.027034 30.059389 
L 133.268903 29.465974 
L 130.729706 29.832631 
L 127.987198 30.829352 
L 125.206437 32.164146 
L 122.402401 33.662094 
L 119.64376 35.099035 
L 116.997226 36.111088 
L 114.508806 36.334778 
L 111.962555 35.691834 
L 109.262718 34.433683 
L 106.459182 32.920717 
L 103.6761 31.489013 
L 100.896055 30.283368 
L 98.211343 29.555111 
L 95.998623 29.631465 
L 94.707994 30.663246 
L 94.359038 32.666102 
L 94.923231 35.307051 
L 96.030494 38.067494 
L 97.418802 40.848287 
L 98.933198 43.66113 
L 100.294032 46.386221 
L 101.136069 48.985974 
L 101.13625 51.473092 
L 100.295651 54.066991 
L 98.942391 56.789172 
L 97.425706 59.597701 
L 96.040883 62.376332 
L 94.922194 65.147646 
L 94.368237 67.789098 
L 94.695013 69.762509 
L 95.957913 70.820486 
L 98.184532 70.916282 
L 100.887392 70.182673 
L 103.658381 68.982477 
L 106.44322 67.548768 
L 109.255244 66.035725 
L 111.947479 64.774766 
L 114.504144 64.126383 
L 116.996141 64.353251 
L 119.626546 65.35827 
L 122.393917 66.793108 
L 125.199443 68.296174 
L 127.970146 69.626042 
L 130.73069 70.631626 
L 133.274507 70.991285 
L 135.016945 70.40635 
L 135.82474 68.897723 
L 135.672644 66.487503 
L 134.791935 63.749364 
L 133.513863 60.973516 
L 132.042007 58.178892 
L 130.5542 55.383754 
L 129.417252 52.719945 
L 128.987023 50.230876 
" style="fill:none;stroke:#000000;stroke-linecap:square;stroke-opacity:0.7;stroke-width:1.5;"/>
   </g>
   <g id="line2d_20">
    <path clip-path="url(#p9975451b51)" d="M 116.164052 41.683249 
L 116.132384 41.048735 
L 116.037697 40.420526 
L 115.880931 39.804867 
L 115.663644 39.207876 
L 115.387996 38.635487 
L 115.056726 38.093388 
L 114.673126 37.586966 
L 114.24101 37.121255 
L 113.76467 36.700883 
L 113.248843 36.330028 
L 112.698653 36.012376 
L 112.119569 35.751083 
L 111.517347 35.548747 
L 110.897971 35.407379 
L 110.267597 35.328383 
L 109.63249 35.312544 
L 108.998962 35.360021 
L 108.37331 35.47034 
L 107.76175 35.642406 
L 107.170362 35.874509 
L 106.605023 36.164342 
L 106.071351 36.509024 
L 105.57465 36.905129 
L 105.119856 37.348722 
L 104.71149 37.835394 
L 104.353611 38.360307 
L 104.049774 38.918245 
L 103.803 39.503662 
L 103.61574 40.110742 
L 103.489857 40.73345 
L 103.426601 41.365597 
L 103.426601 42.000902 
L 103.489857 42.633049 
L 103.61574 43.255757 
L 103.803 43.862836 
L 104.049774 44.448254 
L 104.353611 45.006192 
L 104.71149 45.531105 
L 105.119856 46.017777 
L 105.57465 46.46137 
L 106.071351 46.857475 
L 106.605023 47.202157 
L 107.170362 47.49199 
L 107.76175 47.724093 
L 108.37331 47.896159 
L 108.998962 48.006478 
L 109.63249 48.053955 
L 110.267597 48.038116 
L 110.897971 47.95912 
L 111.517347 47.817751 
L 112.119569 47.615415 
L 112.698653 47.354123 
L 113.248843 47.036471 
L 113.76467 46.665616 
L 114.24101 46.245244 
L 114.673126 45.779533 
L 115.056726 45.273111 
L 115.387996 44.731012 
L 115.663644 44.158622 
L 115.880931 43.561632 
L 116.037697 42.945973 
L 116.132384 42.317764 
L 116.164052 41.683249 
" style="fill:none;stroke:#000000;stroke-linecap:square;stroke-opacity:0.7;stroke-width:1.5;"/>
   </g>
   <g id="line2d_21">
    <path clip-path="url(#p9975451b51)" d="M 199.116105 309.772437 
L 199.241279 307.206544 
L 199.596986 304.580766 
L 200.076723 301.872284 
L 200.519889 299.206045 
L 200.7516 296.657059 
L 200.636282 294.251186 
L 200.014091 292.190138 
L 198.839567 290.596743 
L 197.112172 289.551087 
L 194.959996 289.064061 
L 192.50183 289.048206 
L 189.923765 289.343349 
L 187.23322 289.813344 
L 184.549571 290.27567 
L 181.937017 290.580948 
L 179.365741 290.649097 
L 176.77482 290.455049 
L 174.132691 290.059236 
L 171.418808 289.569355 
L 168.784515 289.164643 
L 166.261777 289.009723 
L 163.923573 289.237005 
L 161.96747 290.002403 
L 160.514205 291.310911 
L 159.606414 293.167648 
L 159.252561 295.406958 
L 159.329227 297.90783 
L 159.682074 300.513393 
L 160.168628 303.222337 
L 160.602166 305.882879 
L 160.853316 308.48444 
L 160.854049 311.051875 
L 160.601425 313.654628 
L 160.169461 316.316164 
L 159.682673 319.027453 
L 159.326277 321.631752 
L 159.256326 324.125086 
L 159.605062 326.378791 
L 160.516334 328.223602 
L 161.958376 329.535083 
L 163.933343 330.302155 
L 166.251817 330.531448 
L 168.785722 330.371977 
L 171.418961 329.970696 
L 174.132648 329.480215 
L 176.772633 329.083377 
L 179.36502 328.890357 
L 181.933531 328.957598 
L 184.549669 329.26437 
L 187.233214 329.724042 
L 189.929756 330.196369 
L 192.502712 330.495182 
L 194.956006 330.468807 
L 197.120682 329.988026 
L 198.838041 328.94308 
L 200.010806 327.354459 
L 200.637822 325.276447 
L 200.752312 322.887597 
L 200.518084 320.328599 
L 200.077224 317.665929 
L 199.596872 314.95765 
L 199.241077 312.331719 
L 199.116282 309.766981 
" style="fill:none;stroke:#000000;stroke-linecap:square;stroke-opacity:0.7;stroke-width:1.5;"/>
   </g>
   <g id="line2d_22">
    <path clip-path="url(#p9975451b51)" d="M 197.915081 323.294567 
L 197.880419 322.60005 
L 197.776778 321.912436 
L 197.605187 321.238558 
L 197.367353 320.585113 
L 197.065638 319.958596 
L 196.703042 319.365233 
L 196.283167 318.810922 
L 195.810188 318.301172 
L 195.288804 317.841048 
L 194.724198 317.435123 
L 194.12198 317.087433 
L 193.488136 316.801431 
L 192.828965 316.579962 
L 192.151018 316.425225 
L 191.461033 316.338758 
L 190.765868 316.321422 
L 190.072431 316.373388 
L 189.387614 316.49414 
L 188.718223 316.682477 
L 188.070911 316.936528 
L 187.452111 317.253769 
L 186.867973 317.631045 
L 186.324302 318.064609 
L 185.826501 318.550149 
L 185.379519 319.082842 
L 184.987796 319.657393 
L 184.655228 320.268092 
L 184.385117 320.90887 
L 184.18015 321.573357 
L 184.042363 322.254951 
L 183.973125 322.946877 
L 183.973125 323.642258 
L 184.042363 324.334184 
L 184.18015 325.015777 
L 184.385117 325.680265 
L 184.655228 326.321042 
L 184.987796 326.931741 
L 185.379519 327.506292 
L 185.826501 328.038985 
L 186.324302 328.524526 
L 186.867973 328.958089 
L 187.452111 329.335366 
L 188.070911 329.652606 
L 188.718223 329.906657 
L 189.387614 330.094995 
L 190.072431 330.215746 
L 190.765868 330.267712 
L 191.461033 330.250376 
L 192.151018 330.16391 
L 192.828965 330.009173 
L 193.488136 329.787703 
L 194.12198 329.501702 
L 194.724198 329.154011 
L 195.288804 328.748087 
L 195.810188 328.287963 
L 196.283167 327.778212 
L 196.703042 327.223901 
L 197.065638 326.630538 
L 197.367353 326.004022 
L 197.605187 325.350577 
L 197.776778 324.676699 
L 197.880419 323.989084 
L 197.915081 323.294567 
" style="fill:none;stroke:#000000;stroke-linecap:square;stroke-opacity:0.7;stroke-width:1.5;"/>
   </g>
   <g id="line2d_23">
    <path clip-path="url(#p9975451b51)" d="M 196.227296 244.887319 
L 196.425141 242.144636 
L 196.968019 239.355563 
L 197.737161 236.512378 
L 198.61682 233.647342 
L 199.537846 230.761472 
L 200.37442 227.930982 
L 200.767804 225.526471 
L 200.293919 224.409343 
L 198.864462 224.133811 
L 196.263946 224.700684 
L 193.416511 225.571808 
L 190.530204 226.491333 
L 187.66725 227.350791 
L 184.839959 228.076773 
L 182.060126 228.544069 
L 179.320877 228.646958 
L 176.569684 228.351184 
L 173.761409 227.740608 
L 170.911522 226.935795 
L 168.043068 226.038155 
L 165.162491 225.124572 
L 162.370126 224.340443 
L 160.243388 224.165433 
L 159.381933 224.824004 
L 159.330393 226.617675 
L 160.021939 229.327108 
L 160.918317 232.191598 
L 161.829527 235.073198 
L 162.664291 237.931221 
L 163.338312 240.743807 
L 163.722006 243.515221 
L 163.723099 246.248309 
L 163.339261 249.012778 
L 162.667359 251.83331 
L 161.831749 254.689523 
L 160.921632 257.567017 
L 160.024384 260.433936 
L 159.323863 263.141884 
L 159.382796 264.951216 
L 160.245198 265.605034 
L 162.37839 265.425333 
L 165.154409 264.646378 
L 168.03246 263.73445 
L 170.90724 262.836484 
L 173.759025 262.031174 
L 176.556132 261.418236 
L 179.320173 261.124702 
L 182.052689 261.225125 
L 184.830006 261.691209 
L 187.663037 262.417123 
L 190.524796 263.277542 
L 193.408974 264.19513 
L 196.255283 265.065695 
L 198.820927 265.638826 
L 200.302994 265.359054 
L 200.76754 264.242834 
L 200.376335 261.833616 
L 199.535523 259.00808 
L 198.617388 256.119968 
L 197.735413 253.254703 
L 196.968139 250.413122 
L 196.424688 247.622698 
L 196.227693 244.8829 
" style="fill:none;stroke:#000000;stroke-linecap:square;stroke-opacity:0.7;stroke-width:1.5;"/>
   </g>
   <g id="line2d_24">
    <path clip-path="url(#p9975451b51)" d="M 173.327827 233.363014 
L 173.298627 232.777921 
L 173.211314 232.198642 
L 173.066759 231.630935 
L 172.866396 231.080443 
L 172.612217 230.552635 
L 172.306749 230.052759 
L 171.953027 229.585781 
L 171.554567 229.156343 
L 171.115329 228.768713 
L 170.639678 228.426744 
L 170.132341 228.133833 
L 169.598361 227.892892 
L 169.043044 227.706315 
L 168.47191 227.575958 
L 167.890635 227.503114 
L 167.304995 227.488509 
L 166.720811 227.532288 
L 166.143889 227.634015 
L 165.579963 227.792679 
L 165.034637 228.006704 
L 164.51333 228.273962 
L 164.021225 228.591797 
L 163.563211 228.957051 
L 163.14384 229.366094 
L 162.767281 229.814859 
L 162.437276 230.298888 
L 162.157105 230.81337 
L 161.929551 231.35319 
L 161.756877 231.912986 
L 161.640799 232.487192 
L 161.58247 233.070103 
L 161.58247 233.655925 
L 161.640799 234.238836 
L 161.756877 234.813042 
L 161.929551 235.372838 
L 162.157105 235.912659 
L 162.437276 236.42714 
L 162.767281 236.911169 
L 163.14384 237.359935 
L 163.563211 237.768977 
L 164.021225 238.134231 
L 164.51333 238.452066 
L 165.034637 238.719325 
L 165.579963 238.933349 
L 166.143889 239.092014 
L 166.720811 239.19374 
L 167.304995 239.237519 
L 167.890635 239.222914 
L 168.47191 239.150071 
L 169.043044 239.019713 
L 169.598361 238.833137 
L 170.132341 238.592196 
L 170.639678 238.299285 
L 171.115329 237.957315 
L 171.554567 237.569685 
L 171.953027 237.140247 
L 172.306749 236.673269 
L 172.612217 236.173393 
L 172.866396 235.645586 
L 173.066759 235.095093 
L 173.211314 234.527387 
L 173.298627 233.948108 
L 173.327827 233.363014 
" style="fill:none;stroke:#000000;stroke-linecap:square;stroke-opacity:0.7;stroke-width:1.5;"/>
   </g>
   <g id="line2d_25">
    <path clip-path="url(#p9975451b51)" d="M 200.204313 180.000515 
L 200.232058 177.271952 
L 200.308671 174.539526 
L 200.427612 171.803355 
L 200.577804 169.051878 
L 200.716895 166.314277 
L 200.748398 163.727964 
L 200.424475 161.571576 
L 199.538074 160.187864 
L 197.961956 159.446336 
L 195.650225 159.236896 
L 193.003869 159.31454 
L 190.256118 159.461467 
L 187.509937 159.606222 
L 184.774564 159.715398 
L 182.043305 159.780261 
L 179.316665 159.793976 
L 176.588059 159.753767 
L 173.854603 159.665717 
L 171.116763 159.537166 
L 168.363049 159.384552 
L 165.638109 159.257666 
L 163.128912 159.290025 
L 161.157059 159.741586 
L 159.949692 160.77998 
L 159.351475 162.555313 
L 159.239334 164.990005 
L 159.34848 167.680321 
L 159.499507 170.434476 
L 159.636937 173.175642 
L 159.735652 175.909979 
L 159.788337 178.640204 
L 159.788478 181.366437 
L 159.735548 184.096199 
L 159.636608 186.830864 
L 159.499401 189.571308 
L 159.347776 192.322718 
L 159.239213 195.023368 
L 159.355982 197.443375 
L 159.944042 199.209513 
L 161.145329 200.253553 
L 163.117661 200.711502 
L 165.64468 200.74495 
L 168.36588 200.615348 
L 171.12147 200.463593 
L 173.859129 200.334825 
L 176.592492 200.247171 
L 179.321847 200.207106 
L 182.048316 200.220418 
L 184.779161 200.285393 
L 187.514741 200.394689 
L 190.259293 200.540039 
L 193.001663 200.686745 
L 195.660204 200.764654 
L 197.984207 200.548261 
L 199.51307 199.824191 
L 200.427736 198.421516 
L 200.74635 196.29306 
L 200.717829 193.686101 
L 200.57808 190.954098 
L 200.427833 188.196955 
L 200.308398 185.461702 
L 200.232263 182.731268 
L 200.204034 179.999016 
" style="fill:none;stroke:#000000;stroke-linecap:square;stroke-opacity:0.7;stroke-width:1.5;"/>
   </g>
   <g id="line2d_26">
    <path clip-path="url(#p9975451b51)" d="M 172.431571 181.427599 
L 172.400157 180.798162 
L 172.306227 180.17498 
L 172.150716 179.564247 
L 171.935168 178.972033 
L 171.661725 178.404224 
L 171.333106 177.866462 
L 170.952575 177.364092 
L 170.523916 176.902108 
L 170.051389 176.4851 
L 169.539688 176.117212 
L 168.993901 175.802102 
L 168.419451 175.5429 
L 167.822047 175.342183 
L 167.207627 175.201946 
L 166.582298 175.123582 
L 165.952273 175.10787 
L 165.323814 175.154966 
L 164.703167 175.264403 
L 164.096502 175.435092 
L 163.509845 175.665338 
L 162.94903 175.952851 
L 162.419628 176.294775 
L 161.926901 176.687712 
L 161.475747 177.127755 
L 161.070649 177.610532 
L 160.715633 178.131245 
L 160.414227 178.684719 
L 160.169427 179.265452 
L 159.983667 179.867674 
L 159.858791 180.485399 
L 159.796041 181.112489 
L 159.796041 181.74271 
L 159.858791 182.369799 
L 159.983667 182.987524 
L 160.169427 183.589746 
L 160.414227 184.170479 
L 160.715633 184.723953 
L 161.070649 185.244666 
L 161.475747 185.727443 
L 161.926901 186.167487 
L 162.419628 186.560423 
L 162.94903 186.902347 
L 163.509845 187.18986 
L 164.096502 187.420106 
L 164.703167 187.590795 
L 165.323814 187.700232 
L 165.952273 187.747328 
L 166.582298 187.731616 
L 167.207627 187.653252 
L 167.822047 187.513015 
L 168.419451 187.312298 
L 168.993901 187.053096 
L 169.539688 186.737986 
L 170.051389 186.370099 
L 170.523916 185.95309 
L 170.952575 185.491106 
L 171.333106 184.988736 
L 171.661725 184.450974 
L 171.935168 183.883165 
L 172.150716 183.290951 
L 172.306227 182.680218 
L 172.400157 182.057037 
L 172.431571 181.427599 
" style="fill:none;stroke:#000000;stroke-linecap:square;stroke-opacity:0.7;stroke-width:1.5;"/>
   </g>
   <g id="line2d_27">
    <path clip-path="url(#p9975451b51)" d="M 198.730467 115.118566 
L 198.860338 112.506684 
L 199.232687 109.849477 
L 199.757972 107.128952 
L 200.30447 104.398759 
L 200.680599 101.775945 
L 200.730171 99.305099 
L 200.249062 97.18784 
L 199.163858 95.634828 
L 197.453048 94.697346 
L 195.24114 94.351976 
L 192.715276 94.50461 
L 190.062652 94.935233 
L 187.317974 95.493182 
L 184.617812 95.992638 
L 181.97199 96.31083 
L 179.354226 96.380086 
L 176.721859 96.180499 
L 174.053819 95.762357 
L 171.316377 95.213302 
L 168.614142 94.694054 
L 166.013831 94.385707 
L 163.616649 94.449986 
L 161.62282 95.083455 
L 160.228002 96.320322 
L 159.439233 98.184314 
L 159.23636 100.487073 
L 159.477021 103.059678 
L 159.954703 105.737351 
L 160.514641 108.485608 
L 160.97761 111.167931 
L 161.237774 113.806319 
L 161.23813 116.421314 
L 160.977064 119.06177 
L 160.516222 121.74437 
L 159.955291 124.492984 
L 159.474271 127.165543 
L 159.242966 129.738806 
L 159.434911 132.045987 
L 160.224249 133.904171 
L 161.613359 135.142659 
L 163.620239 135.779614 
L 166.000656 135.851851 
L 168.608449 135.535517 
L 171.314426 135.019217 
L 174.050818 134.47123 
L 176.71891 134.051705 
L 179.357114 133.849717 
L 181.964393 133.920186 
L 184.613408 134.242684 
L 187.322046 134.736586 
L 190.072137 135.296453 
L 192.710436 135.731436 
L 195.24253 135.873661 
L 197.453292 135.539663 
L 199.162564 134.593432 
L 200.245427 133.050437 
L 200.730153 130.917539 
L 200.683377 128.465936 
L 200.302264 125.832017 
L 199.75863 123.101452 
L 199.23256 120.380832 
L 198.859966 117.723994 
L 198.730801 115.11337 
" style="fill:none;stroke:#000000;stroke-linecap:square;stroke-opacity:0.7;stroke-width:1.5;"/>
   </g>
   <g id="line2d_28">
    <path clip-path="url(#p9975451b51)" d="M 172.977521 119.871808 
L 172.947569 119.271657 
L 172.858009 118.677469 
L 172.709733 118.095152 
L 172.504214 117.530491 
L 172.243493 116.9891 
L 171.930163 116.476359 
L 171.567338 115.997363 
L 171.158623 115.556873 
L 170.70808 115.159266 
L 170.220188 114.808496 
L 169.699794 114.508046 
L 169.152071 114.260904 
L 168.582463 114.069526 
L 167.99663 113.935813 
L 167.400394 113.861095 
L 166.799682 113.846114 
L 166.200463 113.89102 
L 165.608694 113.995365 
L 165.030254 114.158112 
L 164.470893 114.377645 
L 163.93617 114.651782 
L 163.431399 114.977797 
L 162.961598 115.352452 
L 162.531434 115.772021 
L 162.145184 116.232337 
L 161.806685 116.728823 
L 161.519303 117.256545 
L 161.285893 117.810259 
L 161.108775 118.384462 
L 160.989709 118.973446 
L 160.929879 119.571359 
L 160.929879 120.172258 
L 160.989709 120.770171 
L 161.108775 121.359155 
L 161.285893 121.933358 
L 161.519303 122.487072 
L 161.806685 123.014794 
L 162.145184 123.51128 
L 162.531434 123.971595 
L 162.961598 124.391165 
L 163.431399 124.765819 
L 163.93617 125.091835 
L 164.470893 125.365971 
L 165.030254 125.585504 
L 165.608694 125.748252 
L 166.200463 125.852597 
L 166.799682 125.897502 
L 167.400394 125.882522 
L 167.99663 125.807804 
L 168.582463 125.674091 
L 169.152071 125.482713 
L 169.699794 125.235571 
L 170.220188 124.935121 
L 170.70808 124.58435 
L 171.158623 124.186744 
L 171.567338 123.746254 
L 171.930163 123.267258 
L 172.243493 122.754517 
L 172.504214 122.213125 
L 172.709733 121.648465 
L 172.858009 121.066148 
L 172.947569 120.47196 
L 172.977521 119.871808 
" style="fill:none;stroke:#000000;stroke-linecap:square;stroke-opacity:0.7;stroke-width:1.5;"/>
   </g>
   <g id="line2d_29">
    <path clip-path="url(#p9975451b51)" d="M 195.875817 50.234431 
L 196.108353 47.514064 
L 196.733547 44.745733 
L 197.612731 41.914791 
L 198.604249 39.054099 
L 199.611003 36.186783 
L 200.451215 33.40891 
L 200.755062 31.044184 
L 200.189738 29.829313 
L 198.670302 29.468814 
L 196.128608 29.965869 
L 193.328101 30.866926 
L 190.451279 31.883761 
L 187.597163 32.855355 
L 184.782072 33.685739 
L 182.025374 34.223266 
L 179.319858 34.34078 
L 176.585778 33.996444 
L 173.803585 33.293304 
L 170.963507 32.374758 
L 168.090759 31.367823 
L 165.242118 30.382857 
L 162.502733 29.624281 
L 160.390489 29.54391 
L 159.424874 30.326099 
L 159.292324 32.147905 
L 159.937269 34.787601 
L 160.885254 37.614762 
L 161.901811 40.49276 
L 162.848472 43.338588 
L 163.621052 46.138276 
L 164.064315 48.883704 
L 164.064617 51.583797 
L 163.618673 54.332312 
L 162.848052 57.127957 
L 161.898324 59.977677 
L 160.883674 62.856645 
L 159.932716 65.679907 
L 159.2829 68.347937 
L 159.433823 70.166908 
L 160.430552 70.926441 
L 162.538775 70.830081 
L 165.256215 70.073573 
L 168.103593 69.091202 
L 170.973823 68.083288 
L 173.813049 67.167796 
L 176.596326 66.46324 
L 179.329904 66.122316 
L 182.032751 66.240161 
L 184.794073 66.780047 
L 187.604203 67.609471 
L 190.462784 68.583764 
L 193.342427 69.598497 
L 196.133031 70.500594 
L 198.678363 71.002994 
L 200.197812 70.630828 
L 200.763704 69.385307 
L 200.446621 67.034039 
L 199.606978 64.264173 
L 198.601839 61.400061 
L 197.609439 58.542509 
L 196.733521 55.712316 
L 196.106644 52.941676 
L 195.877154 50.228961 
" style="fill:none;stroke:#000000;stroke-linecap:square;stroke-opacity:0.7;stroke-width:1.5;"/>
   </g>
   <g id="line2d_30">
    <path clip-path="url(#p9975451b51)" d="M 198.956884 36.97271 
L 198.925484 36.343551 
L 198.831596 35.720644 
L 198.676153 35.110182 
L 198.4607 34.51823 
L 198.187378 33.950672 
L 197.858904 33.413148 
L 197.478542 32.911 
L 197.050073 32.44922 
L 196.577754 32.032396 
L 196.06628 31.664671 
L 195.520734 31.3497 
L 194.946538 31.090613 
L 194.349399 30.889985 
L 193.735251 30.74981 
L 193.110197 30.67148 
L 192.480451 30.655776 
L 191.85227 30.702851 
L 191.231898 30.81224 
L 190.625501 30.982853 
L 190.039104 31.212997 
L 189.478536 31.500383 
L 188.949369 31.842156 
L 188.45686 32.234919 
L 188.005905 32.674767 
L 187.600986 33.157331 
L 187.246127 33.677814 
L 186.944855 34.231043 
L 186.700163 34.811519 
L 186.514485 35.413475 
L 186.389664 36.030927 
L 186.326942 36.657739 
L 186.326942 37.287681 
L 186.389664 37.914493 
L 186.514485 38.531945 
L 186.700163 39.1339 
L 186.944855 39.714377 
L 187.246127 40.267606 
L 187.600986 40.788088 
L 188.005905 41.270652 
L 188.45686 41.710501 
L 188.949369 42.103263 
L 189.478536 42.445036 
L 190.039104 42.732423 
L 190.625501 42.962566 
L 191.231898 43.13318 
L 191.85227 43.242568 
L 192.480451 43.289644 
L 193.110197 43.273939 
L 193.735251 43.19561 
L 194.349399 43.055434 
L 194.946538 42.854806 
L 195.520734 42.595719 
L 196.06628 42.280748 
L 196.577754 41.913023 
L 197.050073 41.4962 
L 197.478542 41.034419 
L 197.858904 40.532272 
L 198.187378 39.994748 
L 198.4607 39.42719 
L 198.676153 38.835238 
L 198.831596 38.224775 
L 198.925484 37.601869 
L 198.956884 36.97271 
" style="fill:none;stroke:#000000;stroke-linecap:square;stroke-opacity:0.7;stroke-width:1.5;"/>
   </g>
   <g id="line2d_31">
    <path clip-path="url(#p9975451b51)" d="M 261.346682 309.77167 
L 261.529419 307.022488 
L 262.034503 304.229756 
L 262.753888 301.386954 
L 263.582251 298.522914 
L 264.455644 295.637341 
L 265.262247 292.79774 
L 265.652927 290.394814 
L 265.194682 289.278317 
L 263.761751 289.021431 
L 261.161041 289.577507 
L 258.30371 290.414155 
L 255.418592 291.283848 
L 252.556818 292.092076 
L 249.729231 292.76936 
L 246.944521 293.20321 
L 244.197662 293.297886 
L 241.438885 293.022246 
L 238.62827 292.453296 
L 235.779251 291.699247 
L 232.912302 290.852405 
L 230.029823 289.982996 
L 227.229615 289.225077 
L 225.110145 289.044126 
L 224.253678 289.694315 
L 224.218804 291.494777 
L 224.894054 294.207493 
L 225.750853 297.080505 
L 226.611172 299.960588 
L 227.394624 302.817108 
L 228.021726 305.631187 
L 228.376922 308.408095 
L 228.3762 311.149304 
L 228.017808 313.920398 
L 227.390623 316.7424 
L 226.606231 319.597415 
L 225.74626 322.472471 
L 224.88928 325.343874 
L 224.210639 328.057775 
L 224.255961 329.852285 
L 225.119655 330.497221 
L 227.259886 330.306974 
L 230.042851 329.549703 
L 232.926681 328.681878 
L 235.80014 327.835159 
L 238.649963 327.081311 
L 241.450488 326.512432 
L 244.220086 326.241779 
L 246.96107 326.337571 
L 249.744365 326.773152 
L 252.57767 327.451696 
L 255.437388 328.260881 
L 258.32089 329.129954 
L 261.17461 329.964272 
L 263.739073 330.520441 
L 265.203916 330.264302 
L 265.652001 329.089156 
L 265.255027 326.7291 
L 264.454616 323.896585 
L 263.581223 321.010786 
L 262.751908 318.148869 
L 262.034697 315.306683 
L 261.528594 312.512351 
L 261.347406 309.767803 
" style="fill:none;stroke:#000000;stroke-linecap:square;stroke-opacity:0.7;stroke-width:1.5;"/>
   </g>
   <g id="line2d_32">
    <path clip-path="url(#p9975451b51)" d="M 233.249195 325.294619 
L 233.227198 324.853873 
L 233.161427 324.417506 
L 233.052534 323.989857 
L 232.901602 323.575175 
L 232.710131 323.177582 
L 232.480024 322.801029 
L 232.213568 322.449258 
L 231.913411 322.125766 
L 231.582536 321.833767 
L 231.224232 321.576164 
L 230.842059 321.355516 
L 230.439816 321.174017 
L 230.0215 321.033471 
L 229.591269 320.935273 
L 229.153399 320.880401 
L 228.712241 320.869399 
L 228.27218 320.902377 
L 227.837589 320.979007 
L 227.412787 321.098528 
L 227.001997 321.259751 
L 226.609301 321.461075 
L 226.238601 321.700498 
L 225.893583 321.975641 
L 225.577674 322.283769 
L 225.294015 322.621821 
L 225.045425 322.986436 
L 224.834374 323.373991 
L 224.662959 323.780634 
L 224.532885 324.202324 
L 224.445444 324.634869 
L 224.401505 325.073972 
L 224.401505 325.515267 
L 224.445444 325.954369 
L 224.532885 326.386915 
L 224.662959 326.808604 
L 224.834374 327.215247 
L 225.045425 327.602802 
L 225.294015 327.967418 
L 225.577674 328.305469 
L 225.893583 328.613598 
L 226.238601 328.888741 
L 226.609301 329.128164 
L 227.001997 329.329488 
L 227.412787 329.490711 
L 227.837589 329.610231 
L 228.27218 329.686861 
L 228.712241 329.71984 
L 229.153399 329.708838 
L 229.591269 329.653965 
L 230.0215 329.555768 
L 230.439816 329.415221 
L 230.842059 329.233722 
L 231.224232 329.013075 
L 231.582536 328.755471 
L 231.913411 328.463473 
L 232.213568 328.13998 
L 232.480024 327.78821 
L 232.710131 327.411656 
L 232.901602 327.014063 
L 233.052534 326.599381 
L 233.161427 326.171732 
L 233.227198 325.735366 
L 233.249195 325.294619 
" style="fill:none;stroke:#000000;stroke-linecap:square;stroke-opacity:0.7;stroke-width:1.5;"/>
   </g>
   <g id="line2d_33">
    <path clip-path="url(#p9975451b51)" d="M 262.361917 244.886151 
L 262.496307 242.129682 
L 262.875783 239.34018 
L 263.428009 236.516211 
L 264.080245 233.671057 
L 264.778988 230.803323 
L 265.408254 227.998997 
L 265.63519 225.633907 
L 265.09359 224.480328 
L 263.640411 224.118277 
L 261.090793 224.501895 
L 258.255974 225.162159 
L 255.390582 225.85753 
L 252.557547 226.491152 
L 249.739083 227.005102 
L 246.949082 227.33034 
L 244.199888 227.402501 
L 241.433404 227.197147 
L 238.627943 226.767479 
L 235.798413 226.184749 
L 232.952339 225.515252 
L 230.087402 224.818627 
L 227.318607 224.237762 
L 225.228149 224.207401 
L 224.320939 224.924932 
L 224.158076 226.713401 
L 224.656022 229.384587 
L 225.339755 232.232588 
L 226.022933 235.090773 
L 226.632685 237.927034 
L 227.108506 240.731384 
L 227.374338 243.509767 
L 227.374233 246.263394 
L 227.107177 249.038621 
L 226.632925 251.84752 
L 226.022489 254.68231 
L 225.338876 257.539334 
L 224.6543 260.388529 
L 224.149283 263.074204 
L 224.327009 264.856281 
L 225.236921 265.566297 
L 227.342588 265.527775 
L 230.092799 264.948706 
L 232.953594 264.253929 
L 235.80576 263.584364 
L 238.635893 263.001371 
L 241.431254 262.571584 
L 244.20445 262.368849 
L 246.958268 262.439223 
L 249.741412 262.764585 
L 252.557934 263.280417 
L 255.398826 263.914398 
L 258.263288 264.607427 
L 261.086072 265.269227 
L 263.630533 265.659244 
L 265.099641 265.289964 
L 265.643182 264.097445 
L 265.404475 261.757196 
L 264.778648 258.962618 
L 264.079408 256.095202 
L 263.427064 253.252176 
L 262.87599 250.428233 
L 262.49587 247.637687 
L 262.362345 244.8842 
" style="fill:none;stroke:#000000;stroke-linecap:square;stroke-opacity:0.7;stroke-width:1.5;"/>
   </g>
   <g id="line2d_34">
    <path clip-path="url(#p9975451b51)" d="M 241.317398 256.399072 
L 241.278917 255.628039 
L 241.163857 254.864668 
L 240.973362 254.116547 
L 240.709325 253.39111 
L 240.37437 252.695568 
L 239.971825 252.036833 
L 239.505692 251.421452 
L 238.980603 250.855541 
L 238.401777 250.344724 
L 237.774966 249.894078 
L 237.106401 249.508081 
L 236.402724 249.19057 
L 235.67093 248.9447 
L 234.918293 248.772916 
L 234.152291 248.676923 
L 233.380537 248.657677 
L 232.610702 248.715368 
L 231.850437 248.849423 
L 231.107298 249.05851 
L 230.388669 249.340551 
L 229.701694 249.692743 
L 229.0532 250.111585 
L 228.449631 250.592915 
L 227.896987 251.131949 
L 227.400759 251.72333 
L 226.965879 252.361181 
L 226.596671 253.039162 
L 226.296801 253.750536 
L 226.069252 254.488232 
L 225.916285 255.244919 
L 225.839419 256.013076 
L 225.839419 256.785069 
L 225.916285 257.553226 
L 226.069252 258.309913 
L 226.296801 259.047609 
L 226.596671 259.758982 
L 226.965879 260.436964 
L 227.400759 261.074814 
L 227.896987 261.666196 
L 228.449631 262.20523 
L 229.0532 262.68656 
L 229.701694 263.105402 
L 230.388669 263.457594 
L 231.107298 263.739634 
L 231.850437 263.948722 
L 232.610702 264.082777 
L 233.380537 264.140468 
L 234.152291 264.121222 
L 234.918293 264.025229 
L 235.67093 263.853444 
L 236.402724 263.607575 
L 237.106401 263.290064 
L 237.774966 262.904067 
L 238.401777 262.453421 
L 238.980603 261.942604 
L 239.505692 261.376693 
L 239.971825 260.761312 
L 240.37437 260.102577 
L 240.709325 259.407035 
L 240.973362 258.681598 
L 241.163857 257.933477 
L 241.278917 257.170106 
L 241.317398 256.399072 
" style="fill:none;stroke:#000000;stroke-linecap:square;stroke-opacity:0.7;stroke-width:1.5;"/>
   </g>
   <g id="line2d_35">
    <path clip-path="url(#p9975451b51)" d="M 262.364227 180.001848 
L 262.516799 177.277324 
L 262.938412 174.521189 
L 263.552574 171.730522 
L 264.273946 168.899974 
L 264.998607 166.067929 
L 265.540792 163.371819 
L 265.578408 161.135029 
L 264.856663 159.786393 
L 263.273217 159.244222 
L 260.861748 159.44737 
L 258.125674 160.058022 
L 255.279204 160.795212 
L 252.459628 161.497617 
L 249.68092 162.071853 
L 246.929085 162.433429 
L 244.208503 162.512465 
L 241.478399 162.284597 
L 238.710032 161.807549 
L 235.910002 161.159358 
L 233.071855 160.425464 
L 230.262493 159.721571 
L 227.621423 159.271707 
L 225.57762 159.423708 
L 224.469504 160.325688 
L 224.116304 162.15189 
L 224.459512 164.695923 
L 225.123531 167.468669 
L 225.86308 170.317068 
L 226.541076 173.126612 
L 227.070137 175.896606 
L 227.366072 178.642054 
L 227.366709 181.358461 
L 227.069854 184.097706 
L 226.541826 186.874261 
L 225.863665 189.683191 
L 225.125091 192.525909 
L 224.456032 195.304636 
L 224.120171 197.876111 
L 224.469175 199.666565 
L 225.566415 200.577144 
L 227.629073 200.733506 
L 230.263385 200.278041 
L 233.068379 199.575423 
L 235.910822 198.842303 
L 238.710929 198.193527 
L 241.472256 197.715341 
L 244.211798 197.489401 
L 246.927953 197.567028 
L 249.676147 197.928912 
L 252.461119 198.50304 
L 255.280278 199.205518 
L 258.120833 199.940495 
L 260.856833 200.558869 
L 263.313597 200.752231 
L 264.850364 200.210841 
L 265.576904 198.895139 
L 265.542105 196.623736 
L 264.999091 193.926114 
L 264.271395 191.096294 
L 263.551963 188.268308 
L 262.938484 185.476153 
L 262.515832 182.719474 
L 262.365119 179.999417 
" style="fill:none;stroke:#000000;stroke-linecap:square;stroke-opacity:0.7;stroke-width:1.5;"/>
   </g>
   <g id="line2d_36">
    <path clip-path="url(#p9975451b51)" d="M 264.405763 167.851032 
L 264.384696 167.428923 
L 264.321706 167.011008 
L 264.217417 166.601442 
L 264.072868 166.204295 
L 263.889493 165.823514 
L 263.669116 165.462883 
L 263.413927 165.125987 
L 263.126462 164.816173 
L 262.809578 164.536521 
L 262.466425 164.289811 
L 262.100412 164.078493 
L 261.715178 163.904669 
L 261.31455 163.770065 
L 260.902511 163.67602 
L 260.483156 163.623468 
L 260.060652 163.612931 
L 259.639199 163.644515 
L 259.222985 163.717905 
L 258.816146 163.832371 
L 258.422726 163.986777 
L 258.046635 164.179588 
L 257.69161 164.408887 
L 257.361181 164.672396 
L 257.05863 164.967495 
L 256.786966 165.291253 
L 256.548887 165.64045 
L 256.34676 166.011618 
L 256.182594 166.401066 
L 256.05802 166.804924 
L 255.974276 167.21918 
L 255.932195 167.639715 
L 255.932195 168.06235 
L 255.974276 168.482885 
L 256.05802 168.89714 
L 256.182594 169.300999 
L 256.34676 169.690447 
L 256.548887 170.061615 
L 256.786966 170.410812 
L 257.05863 170.73457 
L 257.361181 171.029669 
L 257.69161 171.293178 
L 258.046635 171.522477 
L 258.422726 171.715287 
L 258.816146 171.869693 
L 259.222985 171.98416 
L 259.639199 172.05755 
L 260.060652 172.089134 
L 260.483156 172.078597 
L 260.902511 172.026045 
L 261.31455 171.932 
L 261.715178 171.797396 
L 262.100412 171.623572 
L 262.466425 171.412254 
L 262.809578 171.165544 
L 263.126462 170.885892 
L 263.413927 170.576078 
L 263.669116 170.239182 
L 263.889493 169.878551 
L 264.072868 169.49777 
L 264.217417 169.100623 
L 264.321706 168.691057 
L 264.384696 168.273142 
L 264.405763 167.851032 
" style="fill:none;stroke:#000000;stroke-linecap:square;stroke-opacity:0.7;stroke-width:1.5;"/>
   </g>
   <g id="line2d_37">
    <path clip-path="url(#p9975451b51)" d="M 260.989045 115.118427 
L 261.194999 112.379207 
L 261.757814 109.59251 
L 262.553063 106.749243 
L 263.45933 103.883747 
L 264.404549 100.998796 
L 265.256436 98.172103 
L 265.651252 95.770225 
L 265.173116 94.64312 
L 263.732581 94.365774 
L 261.137716 94.937172 
L 258.294029 95.826425 
L 255.407627 96.771226 
L 252.54407 97.657371 
L 249.717478 98.408602 
L 246.940544 98.893086 
L 244.205632 98.999846 
L 241.458878 98.692919 
L 238.652033 98.059951 
L 235.801583 97.228481 
L 232.932788 96.30467 
L 230.054389 95.368347 
L 227.266204 94.572451 
L 225.138098 94.397635 
L 224.268037 95.063194 
L 224.215601 96.863922 
L 224.915468 99.567229 
L 225.832199 102.428315 
L 226.769514 105.310853 
L 227.630941 108.169345 
L 228.328985 110.980594 
L 228.726973 113.748918 
L 228.728156 116.477198 
L 228.329977 119.237872 
L 227.633871 122.057671 
L 226.771571 124.914441 
L 225.835663 127.792373 
L 224.917496 130.655994 
L 224.209024 133.360354 
L 224.268976 135.174238 
L 225.140628 135.834753 
L 227.275997 135.655222 
L 230.047055 134.864064 
L 232.922712 133.929746 
L 235.798226 133.005372 
L 238.650426 132.173552 
L 241.445388 131.538334 
L 244.206098 131.233757 
L 246.933608 131.337866 
L 249.707806 131.821214 
L 252.540798 132.572721 
L 255.402981 133.459644 
L 258.28733 134.402431 
L 261.129332 135.291485 
L 263.693097 135.869201 
L 265.181887 135.587437 
L 265.651041 134.459598 
L 265.258121 132.05293 
L 264.401844 129.231648 
L 263.459751 126.344862 
L 262.551102 123.479304 
L 261.757924 120.637721 
L 261.194423 117.849493 
L 260.989536 115.113691 
" style="fill:none;stroke:#000000;stroke-linecap:square;stroke-opacity:0.7;stroke-width:1.5;"/>
   </g>
   <g id="line2d_38">
    <path clip-path="url(#p9975451b51)" d="M 238.668108 120.241922 
L 238.642179 119.722395 
L 238.564651 119.208031 
L 238.436295 118.703942 
L 238.258385 118.215138 
L 238.03269 117.746478 
L 237.761453 117.302618 
L 237.447369 116.887971 
L 237.093561 116.506656 
L 236.703544 116.162464 
L 236.281195 115.858816 
L 235.830712 115.598729 
L 235.35657 115.384788 
L 234.863483 115.21912 
L 234.356351 115.10337 
L 233.840214 115.03869 
L 233.320201 115.025721 
L 232.801482 115.064594 
L 232.289211 115.154921 
L 231.788479 115.295806 
L 231.304262 115.485846 
L 230.841374 115.723155 
L 230.404415 116.005374 
L 229.997726 116.329697 
L 229.625351 116.692902 
L 229.290989 117.091378 
L 228.997965 117.521166 
L 228.74919 117.977994 
L 228.547136 118.457322 
L 228.393812 118.954386 
L 228.290742 119.464246 
L 228.238949 119.981835 
L 228.238949 120.502009 
L 228.290742 121.019598 
L 228.393812 121.529458 
L 228.547136 122.026522 
L 228.74919 122.50585 
L 228.997965 122.962678 
L 229.290989 123.392466 
L 229.625351 123.790943 
L 229.997726 124.154147 
L 230.404415 124.47847 
L 230.841374 124.760689 
L 231.304262 124.997998 
L 231.788479 125.188039 
L 232.289211 125.328923 
L 232.801482 125.41925 
L 233.320201 125.458123 
L 233.840214 125.445154 
L 234.356351 125.380474 
L 234.863483 125.264724 
L 235.35657 125.099056 
L 235.830712 124.885115 
L 236.281195 124.625028 
L 236.703544 124.32138 
L 237.093561 123.977188 
L 237.447369 123.595874 
L 237.761453 123.181226 
L 238.03269 122.737366 
L 238.258385 122.268706 
L 238.436295 121.779902 
L 238.564651 121.275814 
L 238.642179 120.761449 
L 238.668108 120.241922 
" style="fill:none;stroke:#000000;stroke-linecap:square;stroke-opacity:0.7;stroke-width:1.5;"/>
   </g>
   <g id="line2d_39">
    <path clip-path="url(#p9975451b51)" d="M 264.15608 50.23168 
L 264.219884 47.484967 
L 264.400733 44.725441 
L 264.674657 41.953618 
L 265.013703 39.160146 
L 265.370502 36.350274 
L 265.626637 33.673169 
L 265.5029 31.46518 
L 264.734845 30.133303 
L 263.178964 29.523257 
L 260.792811 29.531432 
L 258.065636 29.832382 
L 255.2547 30.191076 
L 252.470242 30.51732 
L 249.70056 30.76962 
L 246.942064 30.923445 
L 244.197897 30.956708 
L 241.447871 30.860541 
L 238.683633 30.654063 
L 235.907757 30.360956 
L 233.106958 30.011854 
L 230.311321 29.662394 
L 227.691345 29.470277 
L 225.706558 29.746081 
L 224.575913 30.676068 
L 224.12926 32.467524 
L 224.243939 34.989503 
L 224.575283 37.754132 
L 224.93126 40.561308 
L 225.241788 43.33978 
L 225.471331 46.107018 
L 225.596975 48.862637 
L 225.597702 51.605433 
L 225.471639 54.358663 
L 225.240907 57.126034 
L 224.930244 59.906635 
L 224.574973 62.714543 
L 224.240934 65.483437 
L 224.134602 68.027308 
L 224.574151 69.763995 
L 225.678307 70.71338 
L 227.70124 70.995685 
L 230.31923 70.800227 
L 233.111341 70.449962 
L 235.910156 70.100984 
L 238.684319 69.808346 
L 241.44913 69.602798 
L 244.201609 69.506338 
L 246.944392 69.538299 
L 249.701087 69.693105 
L 252.471995 69.946411 
L 255.258229 70.271857 
L 258.068782 70.629238 
L 260.797598 70.937786 
L 263.214539 70.930219 
L 264.728464 70.328818 
L 265.498438 69.02042 
L 265.628392 66.790981 
L 265.371731 64.108107 
L 265.012416 61.300754 
L 264.674933 58.508404 
L 264.400851 55.735786 
L 264.21954 52.975989 
L 264.156473 50.231367 
" style="fill:none;stroke:#000000;stroke-linecap:square;stroke-opacity:0.7;stroke-width:1.5;"/>
   </g>
   <g id="line2d_40">
    <path clip-path="url(#p9975451b51)" d="M 264.123925 62.422068 
L 264.084628 61.634686 
L 263.967129 60.855129 
L 263.772595 60.091145 
L 263.502959 59.350327 
L 263.160902 58.640038 
L 262.749822 57.967336 
L 262.273806 57.338907 
L 261.737583 56.760997 
L 261.146484 56.239349 
L 260.506383 55.779147 
L 259.823642 55.384966 
L 259.105045 55.060723 
L 258.357735 54.80964 
L 257.589139 54.634213 
L 256.806895 54.536185 
L 256.018778 54.516531 
L 255.232621 54.575445 
L 254.456236 54.712343 
L 253.69734 54.925863 
L 252.963474 55.213884 
L 252.261933 55.573543 
L 251.599688 56.001266 
L 250.983322 56.492802 
L 250.41896 57.043265 
L 249.912211 57.647186 
L 249.46811 58.298561 
L 249.091073 58.990917 
L 248.784846 59.717374 
L 248.552472 60.470712 
L 248.396261 61.243442 
L 248.317766 62.027887 
L 248.317766 62.816249 
L 248.396261 63.600693 
L 248.552472 64.373424 
L 248.784846 65.126761 
L 249.091073 65.853218 
L 249.46811 66.545575 
L 249.912211 67.19695 
L 250.41896 67.80087 
L 250.983322 68.351334 
L 251.599688 68.842869 
L 252.261933 69.270592 
L 252.963474 69.630251 
L 253.69734 69.918272 
L 254.456236 70.131793 
L 255.232621 70.26869 
L 256.018778 70.327605 
L 256.806895 70.30795 
L 257.589139 70.209922 
L 258.357735 70.034495 
L 259.105045 69.783412 
L 259.823642 69.459169 
L 260.506383 69.064988 
L 261.146484 68.604787 
L 261.737583 68.083139 
L 262.273806 67.505229 
L 262.749822 66.8768 
L 263.160902 66.204098 
L 263.502959 65.493808 
L 263.772595 64.75299 
L 263.967129 63.989006 
L 264.084628 63.20945 
L 264.123925 62.422068 
" style="fill:none;stroke:#000000;stroke-linecap:square;stroke-opacity:0.7;stroke-width:1.5;"/>
   </g>
   <g id="line2d_41">
    <path clip-path="url(#p9975451b51)" d="M 330.003714 309.77028 
L 330.045396 307.171763 
L 330.17782 304.539594 
L 330.352636 301.870445 
L 330.504445 299.242201 
L 330.507517 296.73669 
L 330.23637 294.392503 
L 329.544385 292.394879 
L 328.371366 290.840972 
L 326.694679 289.781463 
L 324.607042 289.203958 
L 322.206216 289.011971 
L 319.67025 289.061597 
L 317.022507 289.229175 
L 314.364589 289.39982 
L 311.740438 289.511136 
L 309.127424 289.535343 
L 306.509209 289.466092 
L 303.872601 289.320225 
L 301.203034 289.141402 
L 298.604643 289.013333 
L 296.130333 289.069249 
L 293.855402 289.430271 
L 291.958067 290.244242 
L 290.532979 291.535394 
L 289.59386 293.333127 
L 289.123454 295.511271 
L 289.004905 297.952147 
L 289.100795 300.517524 
L 289.274962 303.186129 
L 289.430217 305.83972 
L 289.526545 308.464723 
L 289.529303 311.067981 
L 289.433612 313.690263 
L 289.273748 316.341525 
L 289.100355 319.008524 
L 289.004236 321.577537 
L 289.1264 324.016256 
L 289.588895 326.203802 
L 290.531343 327.994705 
L 291.94358 329.289174 
L 293.856874 330.106194 
L 296.115274 330.472386 
L 298.593734 330.524762 
L 301.18997 330.39545 
L 303.861853 330.220282 
L 306.507618 330.076972 
L 309.126383 330.001605 
L 311.730511 330.025255 
L 314.359149 330.141077 
L 317.020317 330.310131 
L 319.67355 330.475369 
L 322.208398 330.529825 
L 324.606417 330.331699 
L 326.696074 329.760794 
L 328.373896 328.690218 
L 329.541898 327.153629 
L 330.237502 325.137499 
L 330.506879 322.807011 
L 330.504213 320.29321 
L 330.353103 317.670567 
L 330.177426 315.00288 
L 330.045978 312.370549 
L 330.002986 309.768734 
" style="fill:none;stroke:#000000;stroke-linecap:square;stroke-opacity:0.7;stroke-width:1.5;"/>
   </g>
   <g id="line2d_42">
    <path clip-path="url(#p9975451b51)" d="M 330.196896 323.701716 
L 330.16347 323.03196 
L 330.063524 322.368861 
L 329.898051 321.719008 
L 329.668696 321.08886 
L 329.377738 320.48468 
L 329.028069 319.912472 
L 328.623164 319.377923 
L 328.167048 318.886347 
L 327.664252 318.442627 
L 327.119775 318.051175 
L 326.539028 317.71588 
L 325.927782 317.440075 
L 325.292112 317.226502 
L 324.638335 317.077281 
L 323.97295 316.993898 
L 323.30257 316.97718 
L 322.633855 317.027293 
L 321.973454 317.143739 
L 321.327928 317.325362 
L 320.703694 317.570356 
L 320.106955 317.876286 
L 319.543643 318.240112 
L 319.019355 318.658217 
L 318.539302 319.126448 
L 318.108256 319.640149 
L 317.7305 320.194216 
L 317.409787 320.783142 
L 317.149307 321.401074 
L 316.951648 322.041871 
L 316.818773 322.699164 
L 316.752004 323.366421 
L 316.752004 324.037011 
L 316.818773 324.704268 
L 316.951648 325.361561 
L 317.149307 326.002358 
L 317.409787 326.62029 
L 317.7305 327.209216 
L 318.108256 327.763283 
L 318.539302 328.276984 
L 319.019355 328.745214 
L 319.543643 329.16332 
L 320.106955 329.527146 
L 320.703694 329.833076 
L 321.327928 330.07807 
L 321.973454 330.259692 
L 322.633855 330.376139 
L 323.30257 330.426252 
L 323.97295 330.409534 
L 324.638335 330.32615 
L 325.292112 330.17693 
L 325.927782 329.963356 
L 326.539028 329.687552 
L 327.119775 329.352257 
L 327.664252 328.960805 
L 328.167048 328.517085 
L 328.623164 328.025508 
L 329.028069 327.49096 
L 329.377738 326.918752 
L 329.668696 326.314572 
L 329.898051 325.684424 
L 330.063524 325.034571 
L 330.16347 324.371472 
L 330.196896 323.701716 
" style="fill:none;stroke:#000000;stroke-linecap:square;stroke-opacity:0.7;stroke-width:1.5;"/>
   </g>
   <g id="line2d_43">
    <path clip-path="url(#p9975451b51)" d="M 329.205908 244.885255 
L 329.270183 242.167578 
L 329.451964 239.436763 
L 329.727168 236.693505 
L 330.064165 233.91934 
L 330.380451 231.167002 
L 330.532483 228.588714 
L 330.252488 226.426571 
L 329.355465 225.019112 
L 327.758402 224.276823 
L 325.447712 224.12946 
L 322.805188 224.345158 
L 320.03856 224.676449 
L 317.275544 225.003238 
L 314.534517 225.256906 
L 311.805098 225.411535 
L 309.090193 225.444927 
L 306.36905 225.34819 
L 303.633305 225.140684 
L 300.885707 224.846406 
L 298.108718 224.50468 
L 295.376105 224.209869 
L 292.875573 224.141756 
L 290.890984 224.565951 
L 289.660786 225.623588 
L 289.074773 227.414451 
L 289.044188 229.844743 
L 289.307282 232.535743 
L 289.64681 235.312518 
L 289.959079 238.065942 
L 290.189908 240.804175 
L 290.316098 243.530486 
L 290.316699 246.244122 
L 290.189928 248.968794 
L 289.958177 251.70783 
L 289.646523 254.461217 
L 289.306861 257.234776 
L 289.043084 259.937414 
L 289.079017 262.348906 
L 289.654563 264.135733 
L 290.880731 265.198175 
L 292.861252 265.628938 
L 295.382854 265.56128 
L 298.11009 265.264519 
L 300.889319 264.923231 
L 303.635661 264.628485 
L 306.371173 264.422127 
L 309.094505 264.325595 
L 311.808575 264.357719 
L 314.536718 264.512959 
L 317.278786 264.767283 
L 320.040366 265.09419 
L 322.800944 265.424463 
L 325.457753 265.642153 
L 327.774042 265.487541 
L 329.333336 264.761193 
L 330.254077 263.338316 
L 330.531138 261.199653 
L 330.382268 258.603938 
L 330.064255 255.856699 
L 329.727668 253.076125 
L 329.451744 250.333251 
L 329.270379 247.604597 
L 329.205672 244.883402 
" style="fill:none;stroke:#000000;stroke-linecap:square;stroke-opacity:0.7;stroke-width:1.5;"/>
   </g>
   <g id="line2d_44">
    <path clip-path="url(#p9975451b51)" d="M 300.741927 229.960704 
L 300.713281 229.38673 
L 300.627628 228.818461 
L 300.48582 228.261544 
L 300.289265 227.721514 
L 300.039917 227.203738 
L 299.740255 226.713362 
L 299.393256 226.25526 
L 299.002369 225.833984 
L 298.571478 225.453721 
L 298.104867 225.118251 
L 297.607173 224.830907 
L 297.083342 224.594545 
L 296.538579 224.411514 
L 295.9783 224.283634 
L 295.408072 224.212175 
L 294.833563 224.197848 
L 294.260482 224.240795 
L 293.694525 224.340588 
L 293.141316 224.496237 
L 292.606354 224.706194 
L 292.094956 224.968373 
L 291.612203 225.280167 
L 291.162894 225.63848 
L 290.751494 226.039748 
L 290.382092 226.479984 
L 290.058358 226.954814 
L 289.783512 227.459517 
L 289.560283 227.989078 
L 289.390891 228.538234 
L 289.277018 229.101528 
L 289.219798 229.67336 
L 289.219798 230.248048 
L 289.277018 230.81988 
L 289.390891 231.383173 
L 289.560283 231.932329 
L 289.783512 232.461891 
L 290.058358 232.966594 
L 290.382092 233.441423 
L 290.751494 233.88166 
L 291.162894 234.282928 
L 291.612203 234.64124 
L 292.094956 234.953035 
L 292.606354 235.215214 
L 293.141316 235.425171 
L 293.694525 235.58082 
L 294.260482 235.680613 
L 294.833563 235.72356 
L 295.408072 235.709232 
L 295.9783 235.637773 
L 296.538579 235.509893 
L 297.083342 235.326863 
L 297.607173 235.090501 
L 298.104867 234.803157 
L 298.571478 234.467687 
L 299.002369 234.087424 
L 299.393256 233.666148 
L 299.740255 233.208045 
L 300.039917 232.717669 
L 300.289265 232.199893 
L 300.48582 231.659864 
L 300.627628 231.102946 
L 300.713281 230.534677 
L 300.741927 229.960704 
" style="fill:none;stroke:#000000;stroke-linecap:square;stroke-opacity:0.7;stroke-width:1.5;"/>
   </g>
   <g id="line2d_45">
    <path clip-path="url(#p9975451b51)" d="M 328.079194 180.001959 
L 328.207363 177.320147 
L 328.569639 174.608184 
L 329.099497 171.861157 
L 329.711759 169.067613 
L 330.250428 166.329521 
L 330.529773 163.765212 
L 330.282244 161.580024 
L 329.354361 160.126128 
L 327.715994 159.364486 
L 325.395164 159.269822 
L 322.766836 159.636491 
L 320.016291 160.208562 
L 317.235342 160.812832 
L 314.49226 161.305721 
L 311.779413 161.616605 
L 309.107081 161.685676 
L 306.417906 161.490003 
L 303.688863 161.079316 
L 300.929779 160.520352 
L 298.146154 159.910287 
L 295.433064 159.41353 
L 292.937255 159.243639 
L 290.920732 159.653564 
L 289.64209 160.752954 
L 289.051976 162.577259 
L 289.096923 165.007549 
L 289.537095 167.679029 
L 290.132425 170.459376 
L 290.718772 173.23177 
L 291.173563 175.957426 
L 291.42753 178.661492 
L 291.428152 181.33841 
L 291.172978 184.036144 
L 290.718945 186.769033 
L 290.134456 189.53955 
L 289.538007 192.312353 
L 289.095513 194.99665 
L 289.054938 197.403256 
L 289.633677 199.236163 
L 290.908951 200.34014 
L 292.915461 200.757485 
L 295.428237 200.588803 
L 298.138232 200.091242 
L 300.932251 199.482214 
L 303.688875 198.920989 
L 306.406944 198.51077 
L 309.105683 198.316658 
L 311.782156 198.383157 
L 314.488298 198.694399 
L 317.22985 199.188276 
L 320.01394 199.791882 
L 322.763541 200.362352 
L 325.405738 200.735828 
L 327.710583 200.629879 
L 329.347775 199.880424 
L 330.279653 198.422115 
L 330.527984 196.248597 
L 330.25312 193.674573 
L 329.711541 190.934975 
L 329.099936 188.139611 
L 328.569573 185.393443 
L 328.207438 182.6809 
L 328.079116 179.999366 
" style="fill:none;stroke:#000000;stroke-linecap:square;stroke-opacity:0.7;stroke-width:1.5;"/>
   </g>
   <g id="line2d_46">
    <path clip-path="url(#p9975451b51)" d="M 300.066595 187.643294 
L 300.043167 187.17386 
L 299.973114 186.709092 
L 299.857134 186.253609 
L 299.696378 185.811937 
L 299.492445 185.388465 
L 299.247361 184.987404 
L 298.963563 184.612737 
L 298.643869 184.26819 
L 298.291459 183.957186 
L 297.909834 183.682816 
L 297.502787 183.447807 
L 297.074363 183.254495 
L 296.62882 183.104801 
L 296.170587 183.000212 
L 295.704217 182.941768 
L 295.234345 182.93005 
L 294.765642 182.965175 
L 294.302765 183.046793 
L 293.850315 183.174092 
L 293.412787 183.345809 
L 292.994532 183.560236 
L 292.599705 183.815243 
L 292.23223 184.108294 
L 291.89576 184.436477 
L 291.593639 184.796532 
L 291.328868 185.184879 
L 291.104081 185.597658 
L 290.921509 186.030768 
L 290.782969 186.479904 
L 290.689837 186.940603 
L 290.643038 187.408285 
L 290.643038 187.878302 
L 290.689837 188.345985 
L 290.782969 188.806683 
L 290.921509 189.255819 
L 291.104081 189.688929 
L 291.328868 190.101709 
L 291.593639 190.490056 
L 291.89576 190.85011 
L 292.23223 191.178294 
L 292.599705 191.471345 
L 292.994532 191.726351 
L 293.412787 191.940778 
L 293.850315 192.112495 
L 294.302765 192.239795 
L 294.765642 192.321412 
L 295.234345 192.356537 
L 295.704217 192.344819 
L 296.170587 192.286375 
L 296.62882 192.181787 
L 297.074363 192.032092 
L 297.502787 191.83878 
L 297.909834 191.603771 
L 298.291459 191.329401 
L 298.643869 191.018397 
L 298.963563 190.67385 
L 299.247361 190.299184 
L 299.492445 189.898122 
L 299.696378 189.474651 
L 299.857134 189.032978 
L 299.973114 188.577495 
L 300.043167 188.112727 
L 300.066595 187.643294 
" style="fill:none;stroke:#000000;stroke-linecap:square;stroke-opacity:0.7;stroke-width:1.5;"/>
   </g>
   <g id="line2d_47">
    <path clip-path="url(#p9975451b51)" d="M 325.925564 115.117203 
L 326.298689 112.710003 
L 327.275201 110.116621 
L 328.477586 107.376136 
L 329.536412 104.690194 
L 330.271107 102.045124 
L 330.533632 99.474597 
L 330.120921 97.223863 
L 328.971842 95.553407 
L 327.127832 94.586741 
L 324.779169 94.361088 
L 322.164583 94.765671 
L 319.511119 95.592116 
L 316.821534 96.707373 
L 314.110947 97.887736 
L 311.551274 98.750588 
L 309.176938 98.934433 
L 306.718862 98.38295 
L 304.079596 97.306421 
L 301.342781 96.117723 
L 298.66793 95.12487 
L 296.032573 94.49568 
L 293.518028 94.385864 
L 291.390134 94.986894 
L 289.895009 96.313751 
L 289.113077 98.325513 
L 289.063386 100.750076 
L 289.595893 103.391178 
L 290.507062 106.052985 
L 291.670335 108.760604 
L 292.80272 111.437075 
L 293.520963 113.940929 
L 293.515765 116.306398 
L 292.795196 118.818609 
L 291.658893 121.496497 
L 290.501606 124.192111 
L 289.587948 126.870876 
L 289.062343 129.491908 
L 289.117585 131.929518 
L 289.900426 133.926374 
L 291.398484 135.248034 
L 293.546899 135.848791 
L 296.039904 135.736084 
L 298.694495 135.09563 
L 301.363971 134.110546 
L 304.08379 132.91647 
L 306.727544 131.851926 
L 309.171836 131.295842 
L 311.562226 131.485645 
L 314.106028 132.341141 
L 316.826544 133.529193 
L 319.52046 134.63875 
L 322.182615 135.473284 
L 324.784795 135.870128 
L 327.132991 135.642879 
L 328.978944 134.672097 
L 330.119846 133.006186 
L 330.534829 130.736037 
L 330.271218 128.185514 
L 329.529691 125.528368 
L 328.475209 122.844967 
L 327.27387 120.113891 
L 326.298084 117.518384 
L 325.925915 115.114933 
" style="fill:none;stroke:#000000;stroke-linecap:square;stroke-opacity:0.7;stroke-width:1.5;"/>
   </g>
   <g id="line2d_48">
    <path clip-path="url(#p9975451b51)" d="M 326.522084 111.024977 
L 326.489949 110.381109 
L 326.393866 109.743639 
L 326.234789 109.118904 
L 326.014299 108.513112 
L 325.734587 107.932284 
L 325.398433 107.382193 
L 325.009179 106.868306 
L 324.570692 106.395729 
L 324.08733 105.96916 
L 323.563898 105.592838 
L 323.005597 105.270503 
L 322.417977 105.005359 
L 321.806876 104.80004 
L 321.17837 104.656587 
L 320.538703 104.576426 
L 319.894233 104.560354 
L 319.251365 104.608531 
L 318.616489 104.720476 
L 317.995914 104.895079 
L 317.395808 105.130604 
L 316.822134 105.424709 
L 316.280594 105.774472 
L 315.776571 106.176418 
L 315.315073 106.62655 
L 314.900687 107.120396 
L 314.537532 107.653047 
L 314.229216 108.219211 
L 313.978803 108.813259 
L 313.788783 109.429288 
L 313.661045 110.061176 
L 313.596856 110.702642 
L 313.596856 111.347312 
L 313.661045 111.988779 
L 313.788783 112.620667 
L 313.978803 113.236696 
L 314.229216 113.830744 
L 314.537532 114.396908 
L 314.900687 114.929559 
L 315.315073 115.423405 
L 315.776571 115.873537 
L 316.280594 116.275483 
L 316.822134 116.625246 
L 317.395808 116.919351 
L 317.995914 117.154876 
L 318.616489 117.329478 
L 319.251365 117.441424 
L 319.894233 117.4896 
L 320.538703 117.473528 
L 321.17837 117.393368 
L 321.806876 117.249915 
L 322.417977 117.044596 
L 323.005597 116.779452 
L 323.563898 116.457117 
L 324.08733 116.080795 
L 324.570692 115.654226 
L 325.009179 115.181649 
L 325.398433 114.667762 
L 325.734587 114.11767 
L 326.014299 113.536843 
L 326.234789 112.931051 
L 326.393866 112.306316 
L 326.489949 111.668846 
L 326.522084 111.024977 
" style="fill:none;stroke:#000000;stroke-linecap:square;stroke-opacity:0.7;stroke-width:1.5;"/>
   </g>
   <g id="line2d_49">
    <path clip-path="url(#p9975451b51)" d="M 329.768698 50.231732 
L 329.803823 47.494293 
L 329.902474 44.751753 
L 330.054599 42.003225 
L 330.2462 39.236973 
L 330.437431 36.472828 
L 330.529775 33.853761 
L 330.269354 31.676053 
L 329.418703 30.316296 
L 327.858996 29.61404 
L 325.51499 29.472229 
L 322.839368 29.607942 
L 320.068442 29.804129 
L 317.309297 29.988396 
L 314.561737 30.128133 
L 311.820056 30.211755 
L 309.085 30.229531 
L 306.347157 30.177531 
L 303.60235 30.064418 
L 300.851173 29.900696 
L 298.079977 29.704439 
L 295.328923 29.521989 
L 292.780897 29.491865 
L 290.803802 29.88598 
L 289.62512 30.891322 
L 289.07208 32.660183 
L 289.028651 35.134419 
L 289.19321 37.851009 
L 289.390858 40.624541 
L 289.56584 43.378674 
L 289.692461 46.124759 
L 289.760504 48.864976 
L 289.760693 51.599436 
L 289.692295 54.338916 
L 289.565421 57.085469 
L 289.391167 59.839738 
L 289.193464 62.612389 
L 289.025893 65.339091 
L 289.079739 67.802233 
L 289.617174 69.557274 
L 290.788381 70.568896 
L 292.765551 70.9741 
L 295.334776 70.940793 
L 298.080656 70.758052 
L 300.852349 70.562248 
L 303.602903 70.398038 
L 306.347601 70.285161 
L 309.086352 70.233189 
L 311.820899 70.250662 
L 314.562141 70.334894 
L 317.31056 70.47475 
L 320.069165 70.658108 
L 322.838808 70.853771 
L 325.524832 70.99648 
L 327.873874 70.837145 
L 329.409826 70.151577 
L 330.263232 68.799347 
L 330.529797 66.623745 
L 330.438891 63.991456 
L 330.245763 61.225487 
L 330.054893 58.459382 
L 329.902409 55.711143 
L 329.803791 52.968211 
L 329.768728 50.231353 
" style="fill:none;stroke:#000000;stroke-linecap:square;stroke-opacity:0.7;stroke-width:1.5;"/>
   </g>
   <g id="line2d_50">
    <path clip-path="url(#p9975451b51)" d="M 298.310402 34.59445 
L 298.284964 34.084756 
L 298.208904 33.580127 
L 298.082976 33.085579 
L 297.908434 32.606027 
L 297.68701 32.146236 
L 297.420907 31.710778 
L 297.112768 31.303978 
L 296.765657 30.929881 
L 296.383022 30.592203 
L 295.968667 30.294302 
L 295.526709 30.039138 
L 295.061541 29.829246 
L 294.577787 29.666713 
L 294.080253 29.553155 
L 293.573885 29.489698 
L 293.063715 29.476976 
L 292.554813 29.515113 
L 292.052238 29.60373 
L 291.560983 29.741948 
L 291.085931 29.928392 
L 290.631804 30.161209 
L 290.203115 30.438086 
L 289.804124 30.756271 
L 289.438796 31.112601 
L 289.110764 31.503536 
L 288.823285 31.925189 
L 288.579218 32.373371 
L 288.380989 32.843626 
L 288.230567 33.331283 
L 288.129447 33.831493 
L 288.078635 34.339285 
L 288.078635 34.849614 
L 288.129447 35.357407 
L 288.230567 35.857617 
L 288.380989 36.345273 
L 288.579218 36.815529 
L 288.823285 37.263711 
L 289.110764 37.685364 
L 289.438796 38.076298 
L 289.804124 38.432629 
L 290.203115 38.750813 
L 290.631804 39.02769 
L 291.085931 39.260508 
L 291.560983 39.446952 
L 292.052238 39.585169 
L 292.554813 39.673787 
L 293.063715 39.711924 
L 293.573885 39.699201 
L 294.080253 39.635745 
L 294.577787 39.522186 
L 295.061541 39.359653 
L 295.526709 39.149762 
L 295.968667 38.894597 
L 296.383022 38.596696 
L 296.765657 38.259019 
L 297.112768 37.884922 
L 297.420907 37.478122 
L 297.68701 37.042663 
L 297.908434 36.582873 
L 298.082976 36.103321 
L 298.208904 35.608773 
L 298.284964 35.104144 
L 298.310402 34.59445 
" style="fill:none;stroke:#000000;stroke-linecap:square;stroke-opacity:0.7;stroke-width:1.5;"/>
   </g>
  </g>
 </g>
 <defs>
  <clipPath id="p9975451b51">
   <rect height="329.04" width="329.04" x="15.48" y="15.48"/>
  </clipPath>
 </defs>
</svg>
