<?xml version="1.0" encoding="utf-8" standalone="no"?>
<!DOCTYPE svg PUBLIC "-//W3C//DTD SVG 1.1//EN"
  "http://www.w3.org/Graphics/SVG/1.1/DTD/svg11.dtd">
<!-- Created with matplotlib (http://matplotlib.org/) -->
<svg height="360pt" version="1.1" viewBox="0 0 360 360" width="360pt" xmlns="http://www.w3.org/2000/svg" xmlns:xlink="http://www.w3.org/1999/xlink">
 <defs>
  <style type="text/css">
*{stroke-linecap:butt;stroke-linejoin:round;}
  </style>
 </defs>
 <g id="figure_1">
  <g id="patch_1">
   <path d="M 0 360 
L 360 360 
L 360 0 
L 0 0 
z
" style="fill:#ffffff;"/>
  </g>
  <g id="axes_1">
   <g id="line2d_1">
    <path clip-path="url(#pff912d7dda)" d="M 65.631144 309.768371 
L 65.872121 307.031376 
L 66.520804 304.238291 
L 67.422357 301.376745 
L 68.43303 298.495493 
L 69.479772 295.593775 
L 70.454125 292.734192 
L 71.004972 290.287417 
L 70.607121 289.219148 
L 69.210167 289.042077 
L 66.558863 289.769921 
L 63.68022 290.775158 
L 60.778642 291.821497 
L 57.900481 292.812483 
L 55.054069 293.667902 
L 52.276073 294.22677 
L 49.551373 294.349852 
L 46.798034 293.993185 
L 43.989689 293.265359 
L 41.119745 292.326203 
L 38.229559 291.299205 
L 35.332618 290.259403 
L 32.515036 289.333854 
L 30.366515 289.012971 
L 29.558433 289.608768 
L 29.63104 291.389928 
L 30.475797 294.148344 
L 31.501396 297.036501 
L 32.541121 299.935527 
L 33.508399 302.811815 
L 34.307448 305.636316 
L 34.767193 308.405034 
L 34.76829 311.126185 
L 34.307554 313.886084 
L 33.509243 316.720734 
L 32.541171 319.594462 
L 31.503166 322.487676 
L 30.477559 325.379946 
L 29.629756 328.117197 
L 29.557462 329.921836 
L 30.363686 330.518089 
L 32.517759 330.193564 
L 35.328369 329.2705 
L 38.22871 328.232708 
L 41.121308 327.203229 
L 43.989245 326.265819 
L 46.799028 325.536548 
L 49.552682 325.181242 
L 52.273676 325.303366 
L 55.057257 325.863181 
L 57.898286 326.717232 
L 60.779651 327.710319 
L 63.682835 328.755375 
L 66.559118 329.757891 
L 69.158875 330.480532 
L 70.608988 330.315726 
L 71.005961 329.246619 
L 70.456012 326.791563 
L 69.477701 323.940011 
L 68.434087 321.032317 
L 67.41976 318.14887 
L 66.520852 315.290606 
L 65.871366 312.495233 
L 65.631748 309.762526 
" style="fill:none;stroke:#000000;stroke-linecap:square;stroke-opacity:0.7;stroke-width:1.5;"/>
   </g>
   <g id="line2d_2">
    <path clip-path="url(#pff912d7dda)" d="M 63.652463 309.765225 
L 63.585767 308.288955 
L 63.386342 306.827357 
L 63.05617 305.394957 
L 62.598533 304.00599 
L 62.017978 302.674262 
L 61.320275 301.413007 
L 60.51236 300.234759 
L 59.60226 299.15123 
L 58.599021 298.173188 
L 57.512614 297.310352 
L 56.353835 296.571298 
L 55.134202 295.963372 
L 53.865835 295.492614 
L 52.56134 295.163705 
L 51.233682 294.979911 
L 49.896056 294.943061 
L 48.561755 295.05352 
L 47.24404 295.310191 
L 45.956009 295.710522 
L 44.71046 296.250535 
L 43.519774 296.924863 
L 42.395784 297.726805 
L 41.34966 298.64839 
L 40.3918 299.680459 
L 39.531723 300.812754 
L 38.777977 302.034024 
L 38.138053 303.332129 
L 37.618311 304.69417 
L 37.223916 306.106609 
L 36.958788 307.555409 
L 36.825562 309.026171 
L 36.825562 310.504278 
L 36.958788 311.97504 
L 37.223916 313.42384 
L 37.618311 314.836279 
L 38.138053 316.19832 
L 38.777977 317.496425 
L 39.531723 318.717695 
L 40.3918 319.849991 
L 41.34966 320.882059 
L 42.395784 321.803644 
L 43.519774 322.605586 
L 44.71046 323.279914 
L 45.956009 323.819927 
L 47.24404 324.220258 
L 48.561755 324.476929 
L 49.896056 324.587388 
L 51.233682 324.550538 
L 52.56134 324.366744 
L 53.865835 324.037835 
L 55.134202 323.567077 
L 56.353835 322.959151 
L 57.512614 322.220097 
L 58.599021 321.357262 
L 59.60226 320.379219 
L 60.51236 319.29569 
L 61.320275 318.117443 
L 62.017978 316.856187 
L 62.598533 315.524459 
L 63.05617 314.135492 
L 63.386342 312.703092 
L 63.585767 311.241494 
L 63.652463 309.765225 
" style="fill:none;stroke:#000000;stroke-linecap:square;stroke-opacity:0.7;stroke-width:1.5;"/>
   </g>
   <g id="line2d_3">
    <path clip-path="url(#pff912d7dda)" d="M 69.880613 244.885077 
L 69.971475 242.322625 
L 70.23668 239.703302 
L 70.584876 237.016271 
L 70.887733 234.384229 
L 70.989861 231.878795 
L 70.761933 229.522328 
L 70.071918 227.499699 
L 68.869158 225.910584 
L 67.159126 224.826798 
L 65.049435 224.259415 
L 62.641037 224.123566 
L 60.104515 224.285274 
L 57.449711 224.613788 
L 54.779791 224.95325 
L 52.173262 225.180249 
L 49.599524 225.231257 
L 47.010481 225.087267 
L 44.378236 224.794353 
L 41.69176 224.441768 
L 39.092019 224.174827 
L 36.616956 224.14596 
L 34.324383 224.477335 
L 32.401732 225.29734 
L 30.940512 226.624602 
L 29.983961 228.452363 
L 29.537835 230.647234 
L 29.489003 233.098722 
L 29.705626 235.665007 
L 30.051709 238.341944 
L 30.37196 240.991777 
L 30.559068 243.589025 
L 30.560086 246.159878 
L 30.372852 248.758425 
L 30.054263 251.407848 
L 29.708468 254.086993 
L 29.486942 256.655348 
L 29.538555 259.096891 
L 29.981073 261.310351 
L 30.93401 263.128736 
L 32.384804 264.459741 
L 34.321884 265.287199 
L 36.593833 265.620431 
L 39.079228 265.589957 
L 41.677096 265.326075 
L 44.36338 264.974809 
L 46.999028 264.680349 
L 49.592688 264.531987 
L 52.154763 264.583809 
L 54.764913 264.816408 
L 57.443868 265.149843 
L 60.11365 265.477048 
L 62.645886 265.646958 
L 65.038886 265.50478 
L 67.169089 264.936216 
L 68.867773 263.857341 
L 70.067968 262.270694 
L 70.764521 260.235123 
L 70.989351 257.891836 
L 70.886727 255.377501 
L 70.585546 252.750611 
L 70.236533 250.063729 
L 69.971652 247.444132 
L 69.880416 244.881196 
" style="fill:none;stroke:#000000;stroke-linecap:square;stroke-opacity:0.7;stroke-width:1.5;"/>
   </g>
   <g id="line2d_4">
    <path clip-path="url(#pff912d7dda)" d="M 56.850616 244.882955 
L 56.81772 243.959906 
L 56.719359 243.046031 
L 56.556511 242.150412 
L 56.330793 241.28195 
L 56.04445 240.449276 
L 55.700326 239.660667 
L 55.301843 238.923959 
L 54.85296 238.246474 
L 54.358139 237.634945 
L 53.822297 237.09545 
L 53.25076 236.633352 
L 52.649208 236.253241 
L 52.023619 235.958896 
L 51.380212 235.753243 
L 50.725379 235.638325 
L 50.06563 235.615284 
L 49.407522 235.684349 
L 48.757594 235.844834 
L 48.122306 236.095145 
L 47.507972 236.432792 
L 46.920697 236.854421 
L 46.366319 237.355841 
L 45.850346 237.932069 
L 45.377906 238.577378 
L 44.953696 239.285354 
L 44.581931 240.048963 
L 44.266305 240.860613 
L 44.009956 241.712239 
L 43.815431 242.595378 
L 43.684664 243.501251 
L 43.618953 244.420856 
L 43.618953 245.345054 
L 43.684664 246.26466 
L 43.815431 247.170533 
L 44.009956 248.053671 
L 44.266305 248.905297 
L 44.581931 249.716948 
L 44.953696 250.480556 
L 45.377906 251.188533 
L 45.850346 251.833842 
L 46.366319 252.41007 
L 46.920697 252.91149 
L 47.507972 253.333119 
L 48.122306 253.670766 
L 48.757594 253.921076 
L 49.407522 254.081561 
L 50.06563 254.150627 
L 50.725379 254.127586 
L 51.380212 254.012668 
L 52.023619 253.807014 
L 52.649208 253.51267 
L 53.25076 253.132559 
L 53.822297 252.67046 
L 54.358139 252.130966 
L 54.85296 251.519437 
L 55.301843 250.841952 
L 55.700326 250.105244 
L 56.04445 249.316634 
L 56.330793 248.483961 
L 56.556511 247.615499 
L 56.719359 246.71988 
L 56.81772 245.806004 
L 56.850616 244.882955 
" style="fill:none;stroke:#000000;stroke-linecap:square;stroke-opacity:0.7;stroke-width:1.5;"/>
   </g>
   <g id="line2d_5">
    <path clip-path="url(#pff912d7dda)" d="M 66.119994 180.00089 
L 66.46385 177.50588 
L 67.383053 174.866017 
L 68.573751 172.119407 
L 69.699754 169.392481 
L 70.55992 166.700076 
L 70.987843 164.09824 
L 70.725907 161.818609 
L 69.681307 160.211285 
L 67.883229 159.364376 
L 65.48904 159.295628 
L 62.843333 159.859196 
L 60.14529 160.800792 
L 57.400183 161.970702 
L 54.680495 163.120088 
L 52.079699 163.920471 
L 49.599702 164.08811 
L 47.087553 163.577905 
L 44.416721 162.564186 
L 41.657032 161.357318 
L 38.944469 160.284389 
L 36.256158 159.513646 
L 33.716253 159.236612 
L 31.575662 159.694332 
L 30.155519 160.932274 
L 29.507074 162.909127 
L 29.617139 165.390479 
L 30.297168 168.063919 
L 31.309349 170.769678 
L 32.508708 173.53062 
L 33.594982 176.216619 
L 34.257393 178.773224 
L 34.252662 181.257031 
L 33.584794 183.807647 
L 32.496474 186.503443 
L 31.295719 189.263533 
L 30.286017 191.964034 
L 29.615897 194.643937 
L 29.507076 197.1039 
L 30.163501 199.082759 
L 31.595353 200.315099 
L 33.736458 200.762139 
L 36.282324 200.486504 
L 38.972619 199.704496 
L 41.688762 198.630901 
L 44.451554 197.422967 
L 47.108609 196.416821 
L 49.625837 195.910504 
L 52.113456 196.086656 
L 54.709614 196.895508 
L 57.433834 198.042166 
L 60.181756 199.21659 
L 62.871029 200.152733 
L 65.530817 200.706779 
L 67.899147 200.633477 
L 69.694824 199.776346 
L 70.731348 198.162424 
L 70.984254 195.86351 
L 70.557681 193.278202 
L 69.683802 190.577139 
L 68.559386 187.844285 
L 67.365526 185.094911 
L 66.45906 182.468878 
L 66.122195 180.000658 
" style="fill:none;stroke:#000000;stroke-linecap:square;stroke-opacity:0.7;stroke-width:1.5;"/>
   </g>
   <g id="line2d_6">
    <path clip-path="url(#pff912d7dda)" d="M 56.015686 180.000686 
L 55.986939 179.700056 
L 55.900984 179.402414 
L 55.758674 179.110718 
L 55.561425 178.827866 
L 55.311196 178.556671 
L 55.010475 178.299827 
L 54.66225 178.059887 
L 54.269981 177.839235 
L 53.837569 177.640065 
L 53.369309 177.464356 
L 52.869856 177.313853 
L 52.344174 177.190054 
L 51.797487 177.094189 
L 51.235228 177.027209 
L 50.662985 176.989781 
L 50.086446 176.982277 
L 49.51134 177.004771 
L 48.943383 177.057039 
L 48.38822 177.138564 
L 47.851368 177.248533 
L 47.338162 177.385854 
L 46.853704 177.549163 
L 46.402807 177.736836 
L 45.989953 177.947008 
L 45.619246 178.17759 
L 45.294369 178.426292 
L 45.018551 178.69064 
L 44.794533 178.968008 
L 44.624543 179.25564 
L 44.510268 179.550676 
L 44.452845 179.850184 
L 44.452845 180.151188 
L 44.510268 180.450696 
L 44.624543 180.745732 
L 44.794533 181.033364 
L 45.018551 181.310732 
L 45.294369 181.57508 
L 45.619246 181.823782 
L 45.989953 182.054364 
L 46.402807 182.264536 
L 46.853704 182.452209 
L 47.338162 182.615518 
L 47.851368 182.752839 
L 48.38822 182.862808 
L 48.943383 182.944333 
L 49.51134 182.996601 
L 50.086446 183.019095 
L 50.662985 183.011591 
L 51.235228 182.974163 
L 51.797487 182.907184 
L 52.344174 182.811318 
L 52.869856 182.687519 
L 53.369309 182.537017 
L 53.837569 182.361307 
L 54.269981 182.162137 
L 54.66225 181.941485 
L 55.010475 181.701545 
L 55.311196 181.444701 
L 55.561425 181.173506 
L 55.758674 180.890654 
L 55.900984 180.598958 
L 55.986939 180.301316 
L 56.015686 180.000686 
" style="fill:none;stroke:#000000;stroke-linecap:square;stroke-opacity:0.7;stroke-width:1.5;"/>
   </g>
   <g id="line2d_7">
    <path clip-path="url(#pff912d7dda)" d="M 69.223241 115.118878 
L 69.310255 112.410655 
L 69.556732 109.682986 
L 69.925234 106.93666 
L 70.368476 104.15207 
L 70.779126 101.397574 
L 70.992603 98.820922 
L 70.737135 96.650985 
L 69.839638 95.228632 
L 68.225669 94.490663 
L 65.911648 94.375996 
L 63.270456 94.66235 
L 60.500764 95.093498 
L 57.729305 95.5253 
L 54.985937 95.865933 
L 52.259422 96.076167 
L 49.555087 96.122014 
L 46.841309 95.990033 
L 44.105637 95.709403 
L 41.353031 95.317123 
L 38.567813 94.86953 
L 35.835898 94.486999 
L 33.334236 94.367432 
L 31.339096 94.774589 
L 30.097002 95.837966 
L 29.521837 97.645353 
L 29.532794 100.076401 
L 29.875642 102.765954 
L 30.319228 105.548991 
L 30.733407 108.308348 
L 31.044334 111.047837 
L 31.216293 113.769749 
L 31.217352 116.472126 
L 31.044723 119.19115 
L 30.732183 121.931507 
L 30.318393 124.691907 
L 29.875341 127.471312 
L 29.531898 130.172328 
L 29.52548 132.587067 
L 30.091229 134.386884 
L 31.327407 135.456826 
L 33.321977 135.869866 
L 35.842844 135.751235 
L 38.569064 135.366671 
L 41.356497 134.91893 
L 44.106735 134.526469 
L 46.842412 134.247713 
L 49.559837 134.115851 
L 52.262758 134.159492 
L 54.986851 134.370456 
L 57.731568 134.712373 
L 60.502638 135.144631 
L 63.265062 135.573833 
L 65.919927 135.86159 
L 68.244935 135.741502 
L 69.814068 135.020353 
L 70.739425 133.580122 
L 70.991458 131.434405 
L 70.781078 128.84006 
L 70.368733 126.091201 
L 69.925824 123.30019 
L 69.556534 120.554101 
L 69.310499 117.828506 
L 69.222975 115.116788 
" style="fill:none;stroke:#000000;stroke-linecap:square;stroke-opacity:0.7;stroke-width:1.5;"/>
   </g>
   <g id="line2d_8">
    <path clip-path="url(#pff912d7dda)" d="M 60.237849 115.118417 
L 60.188121 113.458762 
L 60.039431 111.815601 
L 59.793258 110.205265 
L 59.452047 108.643759 
L 59.01919 107.1466 
L 58.498989 105.728669 
L 57.896614 104.404058 
L 57.218051 103.18593 
L 56.470044 102.086393 
L 55.660027 101.116374 
L 54.796052 100.285514 
L 53.886703 99.60207 
L 52.941019 99.072834 
L 51.968399 98.703066 
L 50.978508 98.496442 
L 49.981184 98.455014 
L 48.986341 98.579194 
L 48.003864 98.867749 
L 47.043518 99.31781 
L 46.114847 99.924905 
L 45.227081 100.683 
L 44.389043 101.58456 
L 43.609062 102.620626 
L 42.894889 103.7809 
L 42.253623 105.053852 
L 41.691636 106.42683 
L 41.214514 107.886189 
L 40.826999 109.417425 
L 40.532941 111.00532 
L 40.335264 112.634093 
L 40.235932 114.287556 
L 40.235932 115.949277 
L 40.335264 117.60274 
L 40.532941 119.231513 
L 40.826999 120.819408 
L 41.214514 122.350644 
L 41.691636 123.810003 
L 42.253623 125.182981 
L 42.894889 126.455933 
L 43.609062 127.616208 
L 44.389043 128.652273 
L 45.227081 129.553834 
L 46.114847 130.311928 
L 47.043518 130.919023 
L 48.003864 131.369084 
L 48.986341 131.657639 
L 49.981184 131.78182 
L 50.978508 131.740392 
L 51.968399 131.533767 
L 52.941019 131.164 
L 53.886703 130.634764 
L 54.796052 129.95132 
L 55.660027 129.120459 
L 56.470044 128.15044 
L 57.218051 127.050903 
L 57.896614 125.832776 
L 58.498989 124.508164 
L 59.01919 123.090233 
L 59.452047 121.593075 
L 59.793258 120.031568 
L 60.039431 118.421232 
L 60.188121 116.778072 
L 60.237849 115.118417 
" style="fill:none;stroke:#000000;stroke-linecap:square;stroke-opacity:0.7;stroke-width:1.5;"/>
   </g>
   <g id="line2d_9">
    <path clip-path="url(#pff912d7dda)" d="M 69.476917 50.237329 
L 69.567098 47.591167 
L 69.830691 44.913702 
L 70.212001 42.19942 
L 70.632712 39.464832 
L 70.932213 36.824957 
L 70.954244 34.352017 
L 70.483486 32.248199 
L 69.427205 30.726329 
L 67.750956 29.820381 
L 65.541398 29.475573 
L 63.011978 29.589722 
L 60.341481 29.932787 
L 57.599149 30.354894 
L 54.896517 30.713133 
L 52.222854 30.939756 
L 49.573681 30.988547 
L 46.915163 30.844643 
L 44.224445 30.54789 
L 41.500595 30.14964 
L 38.783231 29.740536 
L 36.173179 29.494142 
L 33.77648 29.578328 
L 31.801683 30.19276 
L 30.439269 31.398348 
L 29.676059 33.23329 
L 29.465171 35.536533 
L 29.654961 38.117435 
L 30.032618 40.813219 
L 30.448981 43.551712 
L 30.779163 46.244617 
L 30.964528 48.913259 
L 30.964162 51.559503 
L 30.777088 54.22524 
L 30.449369 56.924336 
L 30.035045 59.660887 
L 29.651544 62.349808 
L 29.470206 64.930561 
L 29.672378 67.23558 
L 30.435212 69.066083 
L 31.793194 70.274281 
L 33.776783 70.892367 
L 36.160538 70.981624 
L 38.781145 70.729149 
L 41.502394 70.325911 
L 44.227474 69.923803 
L 46.911951 69.625597 
L 49.575997 69.483856 
L 52.222205 69.533434 
L 54.895568 69.76096 
L 57.603685 70.116071 
L 60.345672 70.539076 
L 63.003277 70.88595 
L 65.544311 70.990792 
L 67.746122 70.658292 
L 69.424197 69.743389 
L 70.479517 68.232436 
L 70.953499 66.114996 
L 70.934894 63.659832 
L 70.631208 61.009461 
L 70.212833 58.271621 
L 69.830543 55.558467 
L 69.567078 52.881789 
L 69.476915 50.234757 
" style="fill:none;stroke:#000000;stroke-linecap:square;stroke-opacity:0.7;stroke-width:1.5;"/>
   </g>
   <g id="line2d_10">
    <path clip-path="url(#pff912d7dda)" d="M 66.518503 50.236147 
L 66.437565 48.41826 
L 66.195556 46.618439 
L 65.79488 44.854573 
L 65.23952 43.144192 
L 64.534996 41.504293 
L 63.688309 39.951175 
L 62.707874 38.500275 
L 61.603435 37.16601 
L 60.385968 35.961643 
L 59.067573 34.899142 
L 57.661353 33.989066 
L 56.181284 33.240462 
L 54.642074 32.660769 
L 53.059023 32.255747 
L 51.447861 32.029423 
L 49.824603 31.984045 
L 48.205381 32.120065 
L 46.606287 32.436131 
L 45.043213 32.929101 
L 43.531695 33.594077 
L 42.086754 34.424449 
L 40.722751 35.411964 
L 39.453242 36.54681 
L 38.290844 37.817705 
L 37.247109 39.212021 
L 36.332411 40.7159 
L 35.55584 42.314395 
L 34.925114 43.99162 
L 34.446502 45.730906 
L 34.124759 47.514967 
L 33.963085 49.326072 
L 33.963085 51.146223 
L 34.124759 52.957328 
L 34.446502 54.741389 
L 34.925114 56.480675 
L 35.55584 58.1579 
L 36.332411 59.756395 
L 37.247109 61.260274 
L 38.290844 62.65459 
L 39.453242 63.925485 
L 40.722751 65.06033 
L 42.086754 66.047846 
L 43.531695 66.878218 
L 45.043213 67.543194 
L 46.606287 68.036164 
L 48.205381 68.35223 
L 49.824603 68.48825 
L 51.447861 68.442872 
L 53.059023 68.216548 
L 54.642074 67.811526 
L 56.181284 67.231833 
L 57.661353 66.483228 
L 59.067573 65.573153 
L 60.385968 64.510652 
L 61.603435 63.306285 
L 62.707874 61.97202 
L 63.688309 60.521119 
L 64.534996 58.968002 
L 65.23952 57.328103 
L 65.79488 55.617722 
L 66.195556 53.853856 
L 66.437565 52.054035 
L 66.518503 50.236147 
" style="fill:none;stroke:#000000;stroke-linecap:square;stroke-opacity:0.7;stroke-width:1.5;"/>
   </g>
   <g id="line2d_11">
    <path clip-path="url(#pff912d7dda)" d="M 133.798516 309.766453 
L 133.909628 307.090916 
L 134.226986 304.386696 
L 134.6923 301.650099 
L 135.228719 298.872779 
L 135.681915 296.160138 
L 135.87654 293.622384 
L 135.556728 291.461381 
L 134.590868 289.990693 
L 132.945812 289.184691 
L 130.656274 289.010951 
L 128.054358 289.291505 
L 125.326343 289.780405 
L 122.557518 290.311341 
L 119.825132 290.743685 
L 117.120601 291.015926 
L 114.451466 291.076376 
L 111.767582 290.904957 
L 109.048244 290.545158 
L 106.300736 290.054309 
L 103.534466 289.52209 
L 100.847089 289.112746 
L 98.382646 289.025466 
L 96.378833 289.500167 
L 95.07628 290.631739 
L 94.434128 292.45339 
L 94.395966 294.848059 
L 94.749786 297.496008 
L 95.26385 300.253671 
L 95.779596 303.014509 
L 96.178363 305.731905 
L 96.40066 308.428628 
L 96.401061 311.101126 
L 96.177494 313.792905 
L 95.779621 316.516483 
L 95.266062 319.275052 
L 94.749656 322.026345 
L 94.396123 324.684783 
L 94.434196 327.056702 
L 95.069649 328.889806 
L 96.370978 330.025198 
L 98.364208 330.503157 
L 100.841023 330.419955 
L 103.528143 330.008323 
L 106.303021 329.478019 
L 109.04834 328.984619 
L 111.75869 328.625198 
L 114.450387 328.455388 
L 117.122793 328.513742 
L 119.822199 328.786359 
L 122.553671 329.219269 
L 125.324129 329.749675 
L 128.049083 330.238038 
L 130.665947 330.521093 
L 132.938457 330.344036 
L 134.581532 329.544175 
L 135.554892 328.072359 
L 135.874243 325.913136 
L 135.686086 323.378528 
L 135.228049 320.663803 
L 134.693021 317.879833 
L 134.22689 315.142857 
L 133.909571 312.440248 
L 133.798565 309.76326 
" style="fill:none;stroke:#000000;stroke-linecap:square;stroke-opacity:0.7;stroke-width:1.5;"/>
   </g>
   <g id="line2d_12">
    <path clip-path="url(#pff912d7dda)" d="M 119.221934 309.765225 
L 119.201515 309.121417 
L 119.140462 308.484007 
L 119.039383 307.859331 
L 118.89928 307.253597 
L 118.721547 306.672824 
L 118.50795 306.122785 
L 118.260612 305.608946 
L 117.98199 305.136415 
L 117.674855 304.709886 
L 117.342259 304.333599 
L 116.987506 304.011295 
L 116.614124 303.746175 
L 116.225821 303.540876 
L 115.826459 303.397437 
L 115.420005 303.317284 
L 115.010499 303.301213 
L 114.602012 303.349385 
L 114.198602 303.46132 
L 113.80428 303.635907 
L 113.422963 303.871409 
L 113.058442 304.165486 
L 112.71434 304.515216 
L 112.394076 304.917124 
L 112.100834 305.367213 
L 111.837527 305.861013 
L 111.606772 306.393614 
L 111.410864 306.959723 
L 111.251748 307.553715 
L 111.131007 308.169686 
L 111.049839 308.801514 
L 111.009053 309.44292 
L 111.009053 310.087529 
L 111.049839 310.728935 
L 111.131007 311.360763 
L 111.251748 311.976734 
L 111.410864 312.570726 
L 111.606772 313.136836 
L 111.837527 313.669437 
L 112.100834 314.163236 
L 112.394076 314.613326 
L 112.71434 315.015233 
L 113.058442 315.364963 
L 113.422963 315.65904 
L 113.80428 315.894543 
L 114.198602 316.069129 
L 114.602012 316.181064 
L 115.010499 316.229236 
L 115.420005 316.213165 
L 115.826459 316.133012 
L 116.225821 315.989573 
L 116.614124 315.784274 
L 116.987506 315.519154 
L 117.342259 315.19685 
L 117.674855 314.820563 
L 117.98199 314.394035 
L 118.260612 313.921503 
L 118.50795 313.407664 
L 118.721547 312.857625 
L 118.89928 312.276852 
L 119.039383 311.671118 
L 119.140462 311.046442 
L 119.201515 310.409032 
L 119.221934 309.765225 
" style="fill:none;stroke:#000000;stroke-linecap:square;stroke-opacity:0.7;stroke-width:1.5;"/>
   </g>
   <g id="line2d_13">
    <path clip-path="url(#pff912d7dda)" d="M 127.930398 244.883393 
L 128.357683 242.287777 
L 129.468753 239.52423 
L 130.90614 236.652966 
L 132.419492 233.758431 
L 133.886413 230.882848 
L 135.176733 228.028812 
L 135.88163 225.513984 
L 135.476423 224.342211 
L 133.971029 224.184973 
L 131.291041 225.100931 
L 128.427494 226.45003 
L 125.544152 227.939658 
L 122.651698 229.444495 
L 119.797824 230.839016 
L 117.066076 231.81483 
L 114.489381 232.042868 
L 111.819155 231.404618 
L 109.033186 230.178469 
L 106.149542 228.707399 
L 103.250913 227.193544 
L 100.382302 225.757324 
L 97.56075 224.552654 
L 95.313747 224.124925 
L 94.435552 224.762986 
L 94.573235 226.664442 
L 95.652125 229.427948 
L 97.049324 232.296577 
L 98.554877 235.186995 
L 100.043636 238.071923 
L 101.370067 240.898408 
L 102.1843 243.602247 
L 102.187926 246.159729 
L 101.3663 248.872844 
L 100.045719 251.690041 
L 98.553871 254.579405 
L 97.047502 257.475219 
L 95.652822 260.335722 
L 94.566938 263.093457 
L 94.435374 265.005231 
L 95.316955 265.642667 
L 97.572886 265.205985 
L 100.381463 264.006489 
L 103.254674 262.571862 
L 106.148472 261.058258 
L 109.026969 259.59207 
L 111.819047 258.358393 
L 114.490972 257.726292 
L 117.05681 257.947391 
L 119.802401 258.928611 
L 122.647918 260.320806 
L 125.544847 261.825621 
L 128.436539 263.320689 
L 131.278846 264.659561 
L 133.966348 265.58396 
L 135.477812 265.422578 
L 135.882059 264.251899 
L 135.174563 261.723015 
L 133.881467 258.88122 
L 132.419689 256.003082 
L 130.904755 253.112803 
L 129.472021 250.244562 
L 128.357948 247.482301 
L 127.930016 244.883048 
" style="fill:none;stroke:#000000;stroke-linecap:square;stroke-opacity:0.7;stroke-width:1.5;"/>
   </g>
   <g id="line2d_14">
    <path clip-path="url(#pff912d7dda)" d="M 120.790688 244.882955 
L 120.762474 244.097002 
L 120.678112 243.318859 
L 120.538441 242.556262 
L 120.34485 241.816788 
L 120.099261 241.107787 
L 119.804115 240.436305 
L 119.462347 239.809016 
L 119.077352 239.232155 
L 118.652958 238.711453 
L 118.193381 238.252087 
L 117.703189 237.858621 
L 117.187254 237.534966 
L 116.650704 237.284339 
L 116.09887 237.10923 
L 115.537238 237.01138 
L 114.971389 236.991761 
L 114.406947 237.050569 
L 113.849522 237.187218 
L 113.304652 237.400351 
L 112.777755 237.687849 
L 112.274065 238.046856 
L 111.79859 238.473803 
L 111.356054 238.964447 
L 110.950855 239.513911 
L 110.587022 240.116736 
L 110.268169 240.76693 
L 109.997465 241.45803 
L 109.777601 242.183169 
L 109.610763 242.935139 
L 109.498607 243.706468 
L 109.442249 244.489489 
L 109.442249 245.276421 
L 109.498607 246.059442 
L 109.610763 246.830771 
L 109.777601 247.582742 
L 109.997465 248.307881 
L 110.268169 248.998981 
L 110.587022 249.649175 
L 110.950855 250.251999 
L 111.356054 250.801464 
L 111.79859 251.292108 
L 112.274065 251.719055 
L 112.777755 252.078061 
L 113.304652 252.36556 
L 113.849522 252.578693 
L 114.406947 252.715342 
L 114.971389 252.774149 
L 115.537238 252.754531 
L 116.09887 252.656681 
L 116.650704 252.481572 
L 117.187254 252.230945 
L 117.703189 251.90729 
L 118.193381 251.513824 
L 118.652958 251.054458 
L 119.077352 250.533756 
L 119.462347 249.956894 
L 119.804115 249.329605 
L 120.099261 248.658124 
L 120.34485 247.949123 
L 120.538441 247.209649 
L 120.678112 246.447051 
L 120.762474 245.668909 
L 120.790688 244.882955 
" style="fill:none;stroke:#000000;stroke-linecap:square;stroke-opacity:0.7;stroke-width:1.5;"/>
   </g>
   <g id="line2d_15">
    <path clip-path="url(#pff912d7dda)" d="M 122.824345 180.003247 
L 123.849111 177.886651 
L 126.247257 175.230016 
L 128.718527 172.497367 
L 131.048846 169.695881 
L 133.17055 166.799355 
L 134.923998 163.79713 
L 135.867123 160.96899 
L 135.368186 159.495192 
L 133.435254 159.367908 
L 130.497113 160.615895 
L 127.524254 162.486334 
L 124.654272 164.675213 
L 121.875131 167.049466 
L 119.150669 169.551124 
L 116.558135 171.758331 
L 114.662125 172.229734 
L 112.365817 170.730492 
L 109.672034 168.245936 
L 106.927417 165.805569 
L 104.101914 163.518404 
L 101.182718 161.468459 
L 98.157007 159.84099 
L 95.546354 159.248049 
L 94.446131 160.052307 
L 94.684494 162.367174 
L 96.148569 165.353741 
L 98.11114 168.30085 
L 100.352984 171.146117 
L 102.764099 173.907756 
L 105.275277 176.622087 
L 107.173763 179.082378 
L 107.164911 180.934737 
L 105.257199 183.3992 
L 102.74728 186.109771 
L 100.340536 188.870463 
L 98.099657 191.721733 
L 96.13388 194.66058 
L 94.664652 197.684943 
L 94.454288 199.972302 
L 95.568077 200.757298 
L 98.194339 200.151282 
L 101.199157 198.515797 
L 104.120441 196.472996 
L 106.941372 194.183457 
L 109.688968 191.738371 
L 112.3826 189.255319 
L 114.6662 187.770872 
L 116.57947 188.255725 
L 119.173273 190.468906 
L 121.89384 192.971099 
L 124.673869 195.340824 
L 127.551898 197.53146 
L 130.506975 199.397274 
L 133.475524 200.655041 
L 135.388331 200.496962 
L 135.866271 199.013101 
L 134.922482 196.18204 
L 133.149372 193.179138 
L 131.035921 190.283877 
L 128.702088 187.486485 
L 126.225746 184.748359 
L 123.828298 182.091239 
L 122.825899 179.99874 
" style="fill:none;stroke:#000000;stroke-linecap:square;stroke-opacity:0.7;stroke-width:1.5;"/>
   </g>
   <g id="line2d_16">
    <path clip-path="url(#pff912d7dda)" d="M 120.21477 180.000686 
L 120.189418 179.263011 
L 120.113614 178.532667 
L 119.98811 177.816913 
L 119.814155 177.122863 
L 119.593477 176.457413 
L 119.32827 175.827178 
L 119.021169 175.238422 
L 118.675226 174.696994 
L 118.293879 174.208278 
L 117.880919 173.777129 
L 117.440449 173.407832 
L 116.976848 173.104058 
L 116.494722 172.868826 
L 115.998863 172.704474 
L 115.4942 172.612634 
L 114.985747 172.59422 
L 114.478559 172.649416 
L 113.977675 172.777671 
L 113.488074 172.977712 
L 113.014622 173.24755 
L 112.562024 173.584504 
L 112.134778 173.985225 
L 111.73713 174.445731 
L 111.373033 174.961444 
L 111.046104 175.527239 
L 110.759594 176.137493 
L 110.516349 176.786142 
L 110.318787 177.466738 
L 110.168871 178.172518 
L 110.068092 178.896466 
L 110.017451 179.631389 
L 110.017451 180.369983 
L 110.068092 181.104906 
L 110.168871 181.828854 
L 110.318787 182.534634 
L 110.516349 183.21523 
L 110.759594 183.863879 
L 111.046104 184.474133 
L 111.373033 185.039928 
L 111.73713 185.555641 
L 112.134778 186.016147 
L 112.562024 186.416868 
L 113.014622 186.753822 
L 113.488074 187.02366 
L 113.977675 187.223701 
L 114.478559 187.351956 
L 114.985747 187.407152 
L 115.4942 187.388738 
L 115.998863 187.296899 
L 116.494722 187.132546 
L 116.976848 186.897314 
L 117.440449 186.59354 
L 117.880919 186.224243 
L 118.293879 185.793094 
L 118.675226 185.304378 
L 119.021169 184.762951 
L 119.32827 184.174194 
L 119.593477 183.543959 
L 119.814155 182.878509 
L 119.98811 182.184459 
L 120.113614 181.468705 
L 120.189418 180.738361 
L 120.21477 180.000686 
" style="fill:none;stroke:#000000;stroke-linecap:square;stroke-opacity:0.7;stroke-width:1.5;"/>
   </g>
   <g id="line2d_17">
    <path clip-path="url(#pff912d7dda)" d="M 130.763989 115.122666 
L 131.043459 112.445882 
L 131.772454 109.724039 
L 132.790759 106.925596 
L 133.905387 104.081217 
L 134.943089 101.274511 
L 135.694088 98.574885 
L 135.826659 96.284536 
L 135.09406 94.879719 
L 133.438663 94.353964 
L 130.980951 94.687034 
L 128.250666 95.535037 
L 125.427629 96.609027 
L 122.587046 97.715882 
L 119.811519 98.677809 
L 117.097814 99.307808 
L 114.455182 99.448405 
L 111.772268 99.043056 
L 109.032305 98.225725 
L 106.220351 97.168348 
L 103.375067 96.056533 
L 100.585312 95.061431 
L 97.934697 94.431672 
L 95.821056 94.514663 
L 94.669467 95.448212 
L 94.357776 97.343454 
L 94.858096 99.921438 
L 95.785134 102.678719 
L 96.884671 105.516053 
L 97.97069 108.344616 
L 98.867562 111.101289 
L 99.388345 113.800873 
L 99.389935 116.436277 
L 98.865473 119.13836 
L 97.971691 121.893002 
L 96.883057 124.722487 
L 95.786698 127.557964 
L 94.85153 130.321876 
L 94.362896 132.918626 
L 94.669 134.783676 
L 95.81417 135.721867 
L 97.938475 135.810883 
L 100.5942 135.170881 
L 103.375862 134.180478 
L 106.221503 133.067089 
L 109.035466 132.011421 
L 111.773535 131.191957 
L 114.458643 130.789993 
L 117.09682 130.927774 
L 119.815329 131.561027 
L 122.586667 132.520408 
L 125.430055 133.629084 
L 128.252161 134.699723 
L 130.980263 135.557354 
L 133.482318 135.877166 
L 135.089249 135.354179 
L 135.824813 133.977927 
L 135.695292 131.656356 
L 134.940879 128.949433 
L 133.901362 126.147473 
L 132.78649 123.30432 
L 131.771751 120.504453 
L 131.040329 117.78084 
L 130.76624 115.114854 
" style="fill:none;stroke:#000000;stroke-linecap:square;stroke-opacity:0.7;stroke-width:1.5;"/>
   </g>
   <g id="line2d_18">
    <path clip-path="url(#pff912d7dda)" d="M 124.827265 115.118417 
L 124.778992 114.618374 
L 124.634654 114.123301 
L 124.395685 113.638118 
L 124.064459 113.167647 
L 123.64427 112.716563 
L 123.139292 112.28935 
L 122.554544 111.890254 
L 121.895839 111.52324 
L 121.169722 111.191958 
L 120.38341 110.899697 
L 119.544718 110.649365 
L 118.661981 110.443448 
L 117.743972 110.283993 
L 116.799814 110.172584 
L 115.838892 110.11033 
L 114.870755 110.097848 
L 113.905024 110.135263 
L 112.951299 110.222202 
L 112.019057 110.357803 
L 111.117563 110.540716 
L 110.255777 110.769125 
L 109.442264 111.040759 
L 108.685108 111.352918 
L 107.991835 111.702501 
L 107.369335 112.086033 
L 106.823794 112.499701 
L 106.360635 112.939396 
L 105.98446 113.400747 
L 105.699007 113.879169 
L 105.507115 114.369907 
L 105.41069 114.868084 
L 105.41069 115.368749 
L 105.507115 115.866926 
L 105.699007 116.357664 
L 105.98446 116.836086 
L 106.360635 117.297437 
L 106.823794 117.737132 
L 107.369335 118.150801 
L 107.991835 118.534333 
L 108.685108 118.883915 
L 109.442264 119.196075 
L 110.255777 119.467709 
L 111.117563 119.696118 
L 112.019057 119.879031 
L 112.951299 120.014631 
L 113.905024 120.101571 
L 114.870755 120.138986 
L 115.838892 120.126504 
L 116.799814 120.064249 
L 117.743972 119.952841 
L 118.661981 119.793386 
L 119.544718 119.587469 
L 120.38341 119.337136 
L 121.169722 119.044876 
L 121.895839 118.713593 
L 122.554544 118.34658 
L 123.139292 117.947483 
L 123.64427 117.52027 
L 124.064459 117.069187 
L 124.395685 116.598716 
L 124.634654 116.113532 
L 124.778992 115.618459 
L 124.827265 115.118417 
" style="fill:none;stroke:#000000;stroke-linecap:square;stroke-opacity:0.7;stroke-width:1.5;"/>
   </g>
   <g id="line2d_19">
    <path clip-path="url(#pff912d7dda)" d="M 132.420612 50.239077 
L 132.611782 47.578314 
L 133.135078 44.877829 
L 133.884026 42.120616 
L 134.716086 39.315666 
L 135.436769 36.573356 
L 135.852568 33.978878 
L 135.684339 31.758004 
L 134.774581 30.285525 
L 133.109101 29.555127 
L 130.747374 29.555429 
L 128.105369 30.071672 
L 125.343027 30.835786 
L 122.536711 31.664968 
L 119.797796 32.369671 
L 117.105879 32.818875 
L 114.454014 32.917447 
L 111.780832 32.633083 
L 109.068594 32.042637 
L 106.295598 31.256755 
L 103.497817 30.436068 
L 100.771472 29.766124 
L 98.251034 29.475439 
L 96.193937 29.822848 
L 94.911804 30.916513 
L 94.368152 32.77794 
L 94.523708 35.245981 
L 95.125347 37.930001 
L 95.922836 40.714237 
L 96.73668 43.508959 
L 97.388106 46.228493 
L 97.756296 48.917562 
L 97.756908 51.564853 
L 97.386354 54.240433 
L 96.734767 56.973882 
L 95.921188 59.767685 
L 95.125238 62.538726 
L 94.520927 65.236921 
L 94.372864 67.684985 
L 94.904839 69.544591 
L 96.185228 70.643822 
L 98.234249 70.998533 
L 100.778543 70.706225 
L 103.497168 70.035381 
L 106.299919 69.214963 
L 109.074406 68.428317 
L 111.7808 67.837671 
L 114.46302 67.556159 
L 117.108587 67.653085 
L 119.797306 68.103621 
L 122.544839 68.808451 
L 125.348456 69.638355 
L 128.098313 70.398482 
L 130.760552 70.922385 
L 133.110896 70.90948 
L 134.767019 70.191433 
L 135.681542 68.717793 
L 135.850663 66.501171 
L 135.440091 63.899818 
L 134.714615 61.156541 
L 133.883598 58.349702 
L 133.134896 55.591345 
L 132.610774 52.890328 
L 132.421456 50.233781 
" style="fill:none;stroke:#000000;stroke-linecap:square;stroke-opacity:0.7;stroke-width:1.5;"/>
   </g>
   <g id="line2d_20">
    <path clip-path="url(#pff912d7dda)" d="M 125.750545 50.236147 
L 125.697684 48.959 
L 125.539628 47.694545 
L 125.277946 46.45535 
L 124.91524 45.253731 
L 124.455114 44.101628 
L 123.902141 43.010494 
L 123.261818 41.991171 
L 122.540507 41.05379 
L 121.745378 40.207668 
L 120.884332 39.461214 
L 119.965928 38.821845 
L 118.999293 38.295917 
L 117.994033 37.888656 
L 116.96014 37.604111 
L 115.907889 37.445108 
L 114.847737 37.413228 
L 113.79022 37.508788 
L 112.74585 37.730838 
L 111.725004 38.077172 
L 110.73783 38.544347 
L 109.794137 39.127721 
L 108.903305 39.821495 
L 108.074187 40.618774 
L 107.315023 41.511635 
L 106.633359 42.491205 
L 106.035968 43.547747 
L 105.528788 44.670761 
L 105.11686 45.849087 
L 104.804278 47.071013 
L 104.594147 48.324396 
L 104.488558 49.596779 
L 104.488558 50.875516 
L 104.594147 52.147899 
L 104.804278 53.401281 
L 105.11686 54.623208 
L 105.528788 55.801534 
L 106.035968 56.924548 
L 106.633359 57.98109 
L 107.315023 58.960659 
L 108.074187 59.853521 
L 108.903305 60.6508 
L 109.794137 61.344574 
L 110.73783 61.927948 
L 111.725004 62.395123 
L 112.74585 62.741456 
L 113.79022 62.963507 
L 114.847737 63.059067 
L 115.907889 63.027187 
L 116.96014 62.868184 
L 117.994033 62.583639 
L 118.999293 62.176378 
L 119.965928 61.65045 
L 120.884332 61.011081 
L 121.745378 60.264627 
L 122.540507 59.418504 
L 123.261818 58.481124 
L 123.902141 57.461801 
L 124.455114 56.370666 
L 124.91524 55.218564 
L 125.277946 54.016944 
L 125.539628 52.777749 
L 125.697684 51.513295 
L 125.750545 50.236147 
" style="fill:none;stroke:#000000;stroke-linecap:square;stroke-opacity:0.7;stroke-width:1.5;"/>
   </g>
   <g id="line2d_21">
    <path clip-path="url(#pff912d7dda)" d="M 196.09005 309.767804 
L 196.297281 307.029878 
L 196.863134 304.244485 
L 197.662538 301.402231 
L 198.57311 298.537438 
L 199.521684 295.653764 
L 200.372399 292.830497 
L 200.759932 290.431627 
L 200.275813 289.298551 
L 198.829498 289.015284 
L 196.239388 289.580505 
L 193.399027 290.470047 
L 190.513386 291.418687 
L 187.65059 292.309137 
L 184.825166 293.064315 
L 182.049566 293.551357 
L 179.316155 293.658649 
L 176.570976 293.350008 
L 173.765326 292.713556 
L 170.915721 291.87777 
L 168.047581 290.949778 
L 165.171151 290.010774 
L 162.386449 289.217753 
L 160.259371 289.050534 
L 159.383199 289.722595 
L 159.324213 291.525941 
L 160.019593 294.224484 
L 160.937846 297.082725 
L 161.879261 299.964647 
L 162.74498 302.822309 
L 163.446743 305.632303 
L 163.846861 308.399292 
L 163.848036 311.125997 
L 163.447678 313.885167 
L 162.747792 316.703856 
L 161.881151 319.559844 
L 160.941218 322.437143 
L 160.021272 325.298052 
L 159.31733 327.999394 
L 159.384466 329.814138 
L 160.262647 330.480723 
L 162.39769 330.308469 
L 165.164934 329.519935 
L 168.038375 328.583068 
L 170.913202 327.654494 
L 173.764513 326.81844 
L 176.558138 326.179824 
L 179.317498 325.873634 
L 182.043387 325.978337 
L 184.81617 326.464345 
L 187.648151 327.219899 
L 190.509602 328.111131 
L 193.393186 329.057698 
L 196.231605 329.947267 
L 198.792811 330.519041 
L 200.284946 330.230285 
L 200.759783 329.096161 
L 200.374009 326.692682 
L 199.518797 323.874671 
L 198.573438 320.989655 
L 197.660528 318.124941 
L 196.863241 315.284317 
L 196.296666 312.497374 
L 196.090571 309.763011 
" style="fill:none;stroke:#000000;stroke-linecap:square;stroke-opacity:0.7;stroke-width:1.5;"/>
   </g>
   <g id="line2d_22">
    <path clip-path="url(#pff912d7dda)" d="M 189.151271 309.765225 
L 189.105772 309.546779 
L 188.969729 309.330504 
L 188.744493 309.11855 
L 188.432302 308.913023 
L 188.03626 308.715965 
L 187.560302 308.529336 
L 187.009159 308.354989 
L 186.388308 308.194658 
L 185.70392 308.049936 
L 184.962796 307.922261 
L 184.172302 307.812902 
L 183.340294 307.722946 
L 182.475041 307.653288 
L 181.585142 307.604618 
L 180.679442 307.577422 
L 179.766942 307.57197 
L 178.85671 307.588314 
L 177.957793 307.626294 
L 177.079125 307.685532 
L 176.229439 307.765438 
L 175.417178 307.865219 
L 174.650416 307.983884 
L 173.936772 308.120252 
L 173.28334 308.272968 
L 172.696614 308.440516 
L 172.182425 308.621229 
L 171.745882 308.813311 
L 171.391325 309.014854 
L 171.122277 309.223854 
L 170.941412 309.438235 
L 170.850528 309.655866 
L 170.850528 309.874583 
L 170.941412 310.092214 
L 171.122277 310.306595 
L 171.391325 310.515595 
L 171.745882 310.717138 
L 172.182425 310.909221 
L 172.696614 311.089933 
L 173.28334 311.257481 
L 173.936772 311.410197 
L 174.650416 311.546565 
L 175.417178 311.66523 
L 176.229439 311.765011 
L 177.079125 311.844917 
L 177.957793 311.904155 
L 178.85671 311.942135 
L 179.766942 311.95848 
L 180.679442 311.953027 
L 181.585142 311.925831 
L 182.475041 311.877161 
L 183.340294 311.807503 
L 184.172302 311.717547 
L 184.962796 311.608188 
L 185.70392 311.480514 
L 186.388308 311.335791 
L 187.009159 311.17546 
L 187.560302 311.001113 
L 188.03626 310.814484 
L 188.432302 310.617426 
L 188.744493 310.411899 
L 188.969729 310.199945 
L 189.105772 309.98367 
L 189.151271 309.765225 
" style="fill:none;stroke:#000000;stroke-linecap:square;stroke-opacity:0.7;stroke-width:1.5;"/>
   </g>
   <g id="line2d_23">
    <path clip-path="url(#pff912d7dda)" d="M 197.603072 244.884192 
L 197.736142 242.136508 
L 198.111466 239.357364 
L 198.659233 236.544927 
L 199.307289 233.708221 
L 199.995911 230.849403 
L 200.578819 228.089001 
L 200.725923 225.765953 
L 200.109727 224.539924 
L 198.606848 224.117922 
L 196.128023 224.422311 
L 193.323342 225.05018 
L 190.464919 225.737179 
L 187.641623 226.367201 
L 184.83481 226.876855 
L 182.054998 227.198476 
L 179.314759 227.269815 
L 176.557986 227.067152 
L 173.763408 226.642104 
L 170.944852 226.063716 
L 168.106147 225.399132 
L 165.256872 224.717014 
L 162.534053 224.197539 
L 160.464796 224.23903 
L 159.479258 225.040459 
L 159.247033 226.830989 
L 159.676073 229.443954 
L 160.336644 232.269463 
L 161.014251 235.122399 
L 161.620197 237.946846 
L 162.091437 240.740449 
L 162.354482 243.509531 
L 162.354818 246.253547 
L 162.091061 249.01881 
L 161.621458 251.816926 
L 161.01534 254.641067 
L 160.337779 257.491869 
L 159.673809 260.318045 
L 159.243807 262.960306 
L 159.484297 264.744048 
L 160.488781 265.53228 
L 162.55595 265.567358 
L 165.257643 265.0471 
L 168.102011 264.367398 
L 170.945908 263.702821 
L 173.764239 263.124045 
L 176.549658 262.698303 
L 179.313212 262.497534 
L 182.057467 262.566614 
L 184.830601 262.888086 
L 187.636033 263.399088 
L 190.466787 264.028764 
L 193.325094 264.713917 
L 196.115987 265.346179 
L 198.626152 265.653162 
L 200.123442 265.218867 
L 200.73161 263.979337 
L 200.579359 261.670752 
L 199.994414 258.909234 
L 199.306664 256.054481 
L 198.658468 253.219824 
L 198.111627 250.407492 
L 197.73581 247.627377 
L 197.603397 244.88216 
" style="fill:none;stroke:#000000;stroke-linecap:square;stroke-opacity:0.7;stroke-width:1.5;"/>
   </g>
   <g id="line2d_24">
    <path clip-path="url(#pff912d7dda)" d="M 185.004662 244.882955 
L 184.979769 243.563102 
L 184.905337 242.256366 
L 184.782106 240.975734 
L 184.611301 239.733934 
L 184.394619 238.543307 
L 184.134213 237.415687 
L 183.832673 236.362279 
L 183.492993 235.393554 
L 183.118552 234.519139 
L 182.713069 233.747724 
L 182.280575 233.086976 
L 181.825368 232.543462 
L 181.351971 232.122583 
L 180.865091 231.828522 
L 180.369566 231.664203 
L 179.87032 231.631257 
L 179.372315 231.730012 
L 178.880501 231.959488 
L 178.399765 232.317402 
L 177.934885 232.800199 
L 177.490482 233.40308 
L 177.070972 234.120052 
L 176.680525 234.943992 
L 176.32302 235.866709 
L 176.002011 236.879034 
L 175.720688 237.970905 
L 175.481847 239.131471 
L 175.287863 240.349198 
L 175.140661 241.611984 
L 175.041707 242.907278 
L 174.991983 244.222207 
L 174.991983 245.543703 
L 175.041707 246.858633 
L 175.140661 248.153927 
L 175.287863 249.416712 
L 175.481847 250.634439 
L 175.720688 251.795006 
L 176.002011 252.886877 
L 176.32302 253.899202 
L 176.680525 254.821919 
L 177.070972 255.645858 
L 177.490482 256.362831 
L 177.934885 256.965711 
L 178.399765 257.448508 
L 178.880501 257.806423 
L 179.372315 258.035898 
L 179.87032 258.134654 
L 180.369566 258.101708 
L 180.865091 257.937388 
L 181.351971 257.643328 
L 181.825368 257.222449 
L 182.280575 256.678935 
L 182.713069 256.018187 
L 183.118552 255.246772 
L 183.492993 254.372356 
L 183.832673 253.403631 
L 184.134213 252.350224 
L 184.394619 251.222603 
L 184.611301 250.031976 
L 184.782106 248.790176 
L 184.905337 247.509545 
L 184.979769 246.202809 
L 185.004662 244.882955 
" style="fill:none;stroke:#000000;stroke-linecap:square;stroke-opacity:0.7;stroke-width:1.5;"/>
   </g>
   <g id="line2d_25">
    <path clip-path="url(#pff912d7dda)" d="M 197.824654 180.002855 
L 197.983093 177.334644 
L 198.425268 174.6301 
L 199.064301 171.879239 
L 199.786376 169.080779 
L 200.41243 166.344308 
L 200.749793 163.771396 
L 200.531089 161.570956 
L 199.606198 160.098964 
L 197.947349 159.347185 
L 195.61242 159.286859 
L 192.984563 159.720754 
L 190.226362 160.385659 
L 187.429929 161.102709 
L 184.696922 161.701618 
L 181.995823 162.0809 
L 179.33011 162.163707 
L 176.65517 161.923593 
L 173.934328 161.424027 
L 171.169302 160.75257 
L 168.382035 160.036668 
L 165.669244 159.459919 
L 163.163448 159.240705 
L 161.129156 159.628672 
L 159.840413 160.731265 
L 159.266508 162.581324 
L 159.35361 165.021061 
L 159.868474 167.696209 
L 160.562843 170.473784 
L 161.263134 173.257295 
L 161.816258 175.981215 
L 162.12577 178.670837 
L 162.126224 181.333441 
L 161.815028 184.023917 
L 161.262672 186.748425 
L 160.562234 189.529525 
L 159.868112 192.302316 
L 159.35298 194.990083 
L 159.269166 197.408893 
L 159.83389 199.259164 
L 161.118281 200.366458 
L 163.150734 200.761515 
L 165.669942 200.542735 
L 168.381191 199.963081 
L 171.178019 199.249171 
L 173.942462 198.57537 
L 176.653139 198.075592 
L 179.341496 197.838868 
L 182.001434 197.920913 
L 184.697592 198.301016 
L 187.43995 198.899408 
L 190.232565 199.617718 
L 192.975595 200.280097 
L 195.621714 200.715278 
L 197.958702 200.650102 
L 199.585417 199.91295 
L 200.532099 198.426931 
L 200.748121 196.241373 
L 200.415592 193.657999 
L 199.786245 190.926013 
L 199.064656 188.121867 
L 198.425184 185.369667 
L 197.982888 182.666694 
L 197.82485 179.997808 
" style="fill:none;stroke:#000000;stroke-linecap:square;stroke-opacity:0.7;stroke-width:1.5;"/>
   </g>
   <g id="line2d_26">
    <path clip-path="url(#pff912d7dda)" d="M 189.271198 180.000686 
L 189.225103 179.613365 
L 189.087278 179.229893 
L 188.859092 178.854081 
L 188.542812 178.489665 
L 188.141582 178.140266 
L 187.65939 177.809357 
L 187.101029 177.500226 
L 186.472046 177.215946 
L 185.778693 176.959342 
L 185.027862 176.732965 
L 184.227014 176.539063 
L 183.384108 176.379564 
L 182.507522 176.256054 
L 181.605967 176.16976 
L 180.688404 176.121539 
L 179.763952 176.111871 
L 178.841798 176.140851 
L 177.931107 176.208192 
L 177.04093 176.313225 
L 176.180114 176.454906 
L 175.357214 176.631826 
L 174.580409 176.842227 
L 173.857418 177.084019 
L 173.195428 177.354797 
L 172.601016 177.651872 
L 172.080092 177.97229 
L 171.637832 178.312868 
L 171.27863 178.670219 
L 171.006059 179.040794 
L 170.822825 179.420908 
L 170.730751 179.806784 
L 170.730751 180.194588 
L 170.822825 180.580464 
L 171.006059 180.960578 
L 171.27863 181.331153 
L 171.637832 181.688504 
L 172.080092 182.029082 
L 172.601016 182.3495 
L 173.195428 182.646575 
L 173.857418 182.917353 
L 174.580409 183.159145 
L 175.357214 183.369546 
L 176.180114 183.546466 
L 177.04093 183.688147 
L 177.931107 183.79318 
L 178.841798 183.860521 
L 179.763952 183.889502 
L 180.688404 183.879833 
L 181.605967 183.831612 
L 182.507522 183.745318 
L 183.384108 183.621808 
L 184.227014 183.462309 
L 185.027862 183.268408 
L 185.778693 183.04203 
L 186.472046 182.785426 
L 187.101029 182.501146 
L 187.65939 182.192015 
L 188.141582 181.861106 
L 188.542812 181.511707 
L 188.859092 181.147291 
L 189.087278 180.771479 
L 189.225103 180.388007 
L 189.271198 180.000686 
" style="fill:none;stroke:#000000;stroke-linecap:square;stroke-opacity:0.7;stroke-width:1.5;"/>
   </g>
   <g id="line2d_27">
    <path clip-path="url(#pff912d7dda)" d="M 199.606793 115.118775 
L 199.670204 112.435194 
L 199.852958 109.734209 
L 200.125575 107.015545 
L 200.445952 104.271743 
L 200.696978 101.592033 
L 200.731278 99.089748 
L 200.308421 96.974379 
L 199.306685 95.50432 
L 197.673117 94.649354 
L 195.43327 94.356804 
L 192.865654 94.46537 
L 190.166041 94.746027 
L 187.425096 95.062654 
L 184.709854 95.314714 
L 182.010033 95.470774 
L 179.327981 95.50496 
L 176.6383 95.406914 
L 173.930136 95.199202 
L 171.206101 94.910039 
L 168.47033 94.592963 
L 165.814748 94.379294 
L 163.392707 94.437329 
L 161.426143 94.99727 
L 160.110902 96.153184 
L 159.407345 97.955886 
L 159.228911 100.296448 
L 159.402986 102.910936 
L 159.705138 105.635619 
L 160.009843 108.370482 
L 160.240185 111.082651 
L 160.368394 113.778102 
L 160.369465 116.457938 
L 160.241078 119.151986 
L 160.009724 121.864937 
L 159.705274 124.597135 
L 159.401414 127.315738 
L 159.235102 129.94236 
L 159.401494 132.268725 
L 160.106784 134.075301 
L 161.416815 135.233667 
L 163.383896 135.795847 
L 165.808183 135.862808 
L 168.462623 135.642388 
L 171.203324 135.327519 
L 173.928127 135.037584 
L 176.636033 134.830695 
L 179.327361 134.732378 
L 182.00776 134.764991 
L 184.70657 134.921991 
L 187.424183 135.174563 
L 190.164419 135.490338 
L 192.85782 135.771896 
L 195.441742 135.879168 
L 197.661459 135.589172 
L 199.300949 134.7345 
L 200.305761 133.268268 
L 200.729278 131.147906 
L 200.700072 128.657186 
L 200.444804 125.970163 
L 200.126385 123.219941 
L 199.852808 120.502026 
L 199.670153 117.802553 
L 199.606825 115.117353 
" style="fill:none;stroke:#000000;stroke-linecap:square;stroke-opacity:0.7;stroke-width:1.5;"/>
   </g>
   <g id="line2d_28">
    <path clip-path="url(#pff912d7dda)" d="M 195.543481 115.118417 
L 195.466218 113.355478 
L 195.235198 111.61006 
L 194.852715 109.899509 
L 194.322572 108.240827 
L 193.650037 106.650496 
L 192.841794 105.144324 
L 191.905876 103.737279 
L 190.851585 102.443345 
L 189.689398 101.275382 
L 188.430866 100.244996 
L 187.088496 99.36243 
L 185.675631 98.636453 
L 184.20631 98.074282 
L 182.695138 97.681503 
L 181.157133 97.462019 
L 179.60758 97.418013 
L 178.061879 97.549922 
L 176.535393 97.856434 
L 175.043292 98.334504 
L 173.600405 98.979379 
L 172.221073 99.784652 
L 170.919003 100.742318 
L 169.707137 101.842861 
L 168.597519 103.075342 
L 167.601175 104.427512 
L 166.72801 105.885934 
L 165.986699 107.436112 
L 165.384612 109.06264 
L 164.927731 110.749353 
L 164.620598 112.479488 
L 164.466264 114.23585 
L 164.466264 116.000983 
L 164.620598 117.757345 
L 164.927731 119.48748 
L 165.384612 121.174193 
L 165.986699 122.800722 
L 166.72801 124.3509 
L 167.601175 125.809321 
L 168.597519 127.161492 
L 169.707137 128.393973 
L 170.919003 129.494515 
L 172.221073 130.452182 
L 173.600405 131.257454 
L 175.043292 131.90233 
L 176.535393 132.380399 
L 178.061879 132.686911 
L 179.60758 132.81882 
L 181.157133 132.774814 
L 182.695138 132.555331 
L 184.20631 132.162552 
L 185.675631 131.60038 
L 187.088496 130.874404 
L 188.430866 129.991837 
L 189.689398 128.961452 
L 190.851585 127.793488 
L 191.905876 126.499554 
L 192.841794 125.092509 
L 193.650037 123.586337 
L 194.322572 121.996007 
L 194.852715 120.337324 
L 195.235198 118.626774 
L 195.466218 116.881356 
L 195.543481 115.118417 
" style="fill:none;stroke:#000000;stroke-linecap:square;stroke-opacity:0.7;stroke-width:1.5;"/>
   </g>
   <g id="line2d_29">
    <path clip-path="url(#pff912d7dda)" d="M 194.972451 50.236486 
L 195.295113 47.635678 
L 196.161843 44.923247 
L 197.342285 42.128916 
L 198.599621 39.290451 
L 199.741292 36.493264 
L 200.551949 33.794491 
L 200.712655 31.44473 
L 199.968163 30.013154 
L 198.2869 29.470476 
L 195.800447 29.83014 
L 193.070838 30.745826 
L 190.262498 31.928432 
L 187.421666 33.187834 
L 184.651008 34.316384 
L 181.957278 35.070182 
L 179.361665 35.242793 
L 176.709603 34.756987 
L 173.984689 33.792176 
L 171.168752 32.568216 
L 168.338126 31.326909 
L 165.55395 30.240639 
L 162.892719 29.559906 
L 160.744744 29.627621 
L 159.556327 30.584392 
L 159.241353 32.513568 
L 159.781522 35.111259 
L 160.78811 37.866396 
L 162.005559 40.685624 
L 163.253626 43.520287 
L 164.310289 46.266149 
L 164.93466 48.942402 
L 164.937631 51.526569 
L 164.308191 54.205993 
L 163.256883 56.948882 
L 162.005854 59.78333 
L 160.79191 62.600702 
L 159.775769 65.363492 
L 159.248373 67.976287 
L 159.552208 69.875515 
L 160.729282 70.841368 
L 162.887341 70.919901 
L 165.558084 70.228604 
L 168.333451 69.147858 
L 171.165764 67.904205 
L 173.984948 66.682156 
L 176.706429 65.713838 
L 179.362967 65.232031 
L 181.951118 65.399263 
L 184.652568 66.157818 
L 187.416955 67.281617 
L 190.258321 68.542838 
L 193.065815 69.721459 
L 195.797003 70.649247 
L 198.321897 70.995185 
L 199.958577 70.461905 
L 200.711188 69.046766 
L 200.557431 66.693275 
L 199.741075 63.976415 
L 198.601725 61.186371 
L 197.343412 58.348738 
L 196.163699 55.550511 
L 195.296061 52.842943 
L 194.971855 50.236132 
" style="fill:none;stroke:#000000;stroke-linecap:square;stroke-opacity:0.7;stroke-width:1.5;"/>
   </g>
   <g id="line2d_30">
    <path clip-path="url(#pff912d7dda)" d="M 184.141443 50.236147 
L 184.120839 49.931548 
L 184.059233 49.629977 
L 183.957237 49.334429 
L 183.815865 49.047843 
L 183.636521 48.773068 
L 183.420988 48.512833 
L 183.171408 48.269725 
L 182.890262 48.04616 
L 182.580343 47.84436 
L 182.244732 47.666331 
L 181.886765 47.513842 
L 181.509998 47.388408 
L 181.118177 47.291277 
L 180.715195 47.223413 
L 180.305057 47.185491 
L 179.89184 47.177887 
L 179.479651 47.200678 
L 179.072585 47.253637 
L 178.674689 47.336238 
L 178.289916 47.447659 
L 177.922092 47.586793 
L 177.574871 47.752258 
L 177.251705 47.942409 
L 176.955804 48.155356 
L 176.690111 48.388982 
L 176.457265 48.640967 
L 176.259581 48.908806 
L 176.099023 49.189836 
L 175.977188 49.481265 
L 175.895285 49.780196 
L 175.854129 50.083658 
L 175.854129 50.388637 
L 175.895285 50.692099 
L 175.977188 50.99103 
L 176.099023 51.282459 
L 176.259581 51.563489 
L 176.457265 51.831328 
L 176.690111 52.083313 
L 176.955804 52.316939 
L 177.251705 52.529886 
L 177.574871 52.720037 
L 177.922092 52.885502 
L 178.289916 53.024636 
L 178.674689 53.136057 
L 179.072585 53.218658 
L 179.479651 53.271617 
L 179.89184 53.294408 
L 180.305057 53.286804 
L 180.715195 53.248882 
L 181.118177 53.181018 
L 181.509998 53.083887 
L 181.886765 52.958453 
L 182.244732 52.805964 
L 182.580343 52.627935 
L 182.890262 52.426135 
L 183.171408 52.20257 
L 183.420988 51.959462 
L 183.636521 51.699227 
L 183.815865 51.424451 
L 183.957237 51.137866 
L 184.059233 50.842318 
L 184.120839 50.540747 
L 184.141443 50.236147 
" style="fill:none;stroke:#000000;stroke-linecap:square;stroke-opacity:0.7;stroke-width:1.5;"/>
   </g>
   <g id="line2d_31">
    <path clip-path="url(#pff912d7dda)" d="M 264.722942 309.767966 
L 264.835336 307.262681 
L 265.115517 304.676627 
L 265.430877 302.049918 
L 265.627179 299.515507 
L 265.57352 297.105229 
L 265.164692 294.843308 
L 264.330013 292.857853 
L 263.040093 291.242289 
L 261.322577 290.061843 
L 259.258718 289.339342 
L 256.95052 289.026594 
L 254.5071 289.045085 
L 251.950631 289.284127 
L 249.318523 289.60692 
L 246.751975 289.853793 
L 244.258999 289.913224 
L 241.733387 289.748199 
L 239.121547 289.444891 
L 236.51716 289.146282 
L 234.010037 289.00049 
L 231.633294 289.134646 
L 229.425189 289.645777 
L 227.525824 290.59542 
L 226.017059 291.99468 
L 224.949906 293.808433 
L 224.337429 295.945799 
L 224.116503 298.294795 
L 224.201387 300.769156 
L 224.475374 303.347334 
L 224.793616 305.972272 
L 225.001742 308.524793 
L 225.003549 311.010783 
L 224.792713 313.549678 
L 224.474743 316.182274 
L 224.203014 318.769246 
L 224.115633 321.245631 
L 224.336117 323.579993 
L 224.954008 325.728088 
L 226.019518 327.537927 
L 227.525881 328.93609 
L 229.429206 329.887621 
L 231.634404 330.394222 
L 234.018351 330.529524 
L 236.519834 330.385617 
L 239.122578 330.084332 
L 241.728996 329.781876 
L 244.264766 329.619187 
L 246.751873 329.675048 
L 249.313334 329.92424 
L 251.950558 330.246351 
L 254.513027 330.484228 
L 256.956867 330.505251 
L 259.251834 330.191811 
L 261.328116 329.465208 
L 263.042382 328.28523 
L 264.329416 326.674133 
L 265.166599 324.686426 
L 265.571997 322.423125 
L 265.62686 320.010387 
L 265.431487 317.480281 
L 265.115247 314.852389 
L 264.834965 312.266442 
L 264.723341 309.763071 
" style="fill:none;stroke:#000000;stroke-linecap:square;stroke-opacity:0.7;stroke-width:1.5;"/>
   </g>
   <g id="line2d_32">
    <path clip-path="url(#pff912d7dda)" d="M 263.731195 309.765225 
L 263.637507 307.89955 
L 263.357373 306.052418 
L 262.893577 304.242185 
L 262.25073 302.486843 
L 261.435219 300.803836 
L 260.45515 299.209892 
L 259.320263 297.720851 
L 258.041837 296.351513 
L 256.632578 295.115486 
L 255.106492 294.025055 
L 253.478745 293.091057 
L 251.765514 292.322774 
L 249.983828 291.727842 
L 248.151392 291.312174 
L 246.286418 291.0799 
L 244.407442 291.03333 
L 242.533137 291.172925 
L 240.682131 291.497299 
L 238.872821 292.003228 
L 237.123187 292.685684 
L 235.45062 293.537884 
L 233.87174 294.551358 
L 232.402241 295.716035 
L 231.056726 297.020339 
L 229.848567 298.451307 
L 228.789773 299.994718 
L 227.890866 301.635233 
L 227.160779 303.356547 
L 226.606769 305.141554 
L 226.234342 306.972512 
L 226.047198 308.831226 
L 226.047198 310.699223 
L 226.234342 312.557937 
L 226.606769 314.388895 
L 227.160779 316.173902 
L 227.890866 317.895216 
L 228.789773 319.535731 
L 229.848567 321.079142 
L 231.056726 322.51011 
L 232.402241 323.814414 
L 233.87174 324.979091 
L 235.45062 325.992565 
L 237.123187 326.844765 
L 238.872821 327.527221 
L 240.682131 328.03315 
L 242.533137 328.357524 
L 244.407442 328.497119 
L 246.286418 328.450549 
L 248.151392 328.218275 
L 249.983828 327.802607 
L 251.765514 327.207675 
L 253.478745 326.439392 
L 255.106492 325.505394 
L 256.632578 324.414963 
L 258.041837 323.178936 
L 259.320263 321.809598 
L 260.45515 320.320557 
L 261.435219 318.726613 
L 262.25073 317.043607 
L 262.893577 315.288264 
L 263.357373 313.478031 
L 263.637507 311.630899 
L 263.731195 309.765225 
" style="fill:none;stroke:#000000;stroke-linecap:square;stroke-opacity:0.7;stroke-width:1.5;"/>
   </g>
   <g id="line2d_33">
    <path clip-path="url(#pff912d7dda)" d="M 260.198332 244.886772 
L 260.467037 242.175699 
L 261.177577 239.411699 
L 262.163851 236.573368 
L 263.25896 233.705988 
L 264.358327 230.83888 
L 265.276699 228.053227 
L 265.642358 225.660853 
L 265.074875 224.447393 
L 263.564756 224.126932 
L 261.020196 224.685244 
L 258.207216 225.670686 
L 255.328062 226.782237 
L 252.46832 227.859894 
L 249.64926 228.794432 
L 246.896612 229.408055 
L 244.21033 229.544764 
L 241.486719 229.151224 
L 238.70574 228.355756 
L 235.858879 227.330877 
L 232.979894 226.221617 
L 230.131521 225.148498 
L 227.378247 224.310952 
L 225.240285 224.184977 
L 224.291013 224.927609 
L 224.18878 226.77785 
L 224.906074 229.443158 
L 225.938137 232.269494 
L 227.054412 235.150199 
L 228.106975 238.003916 
L 228.979824 240.805722 
L 229.486592 243.543406 
L 229.487485 246.223502 
L 228.97778 248.965013 
L 228.108036 251.761908 
L 227.052015 254.618897 
L 225.937816 257.501799 
L 224.902349 260.326964 
L 224.178481 263.009569 
L 224.297484 264.850989 
L 225.251625 265.585276 
L 227.402518 265.448865 
L 230.139215 264.612661 
L 232.984241 263.543748 
L 235.86078 262.433117 
L 238.707685 261.410953 
L 241.489281 260.612947 
L 244.213089 260.222248 
L 246.896081 260.35726 
L 249.653454 260.972932 
L 252.467584 261.905997 
L 255.333055 262.985523 
L 258.214746 264.096742 
L 261.010391 265.079917 
L 263.570579 265.649268 
L 265.102023 265.307249 
L 265.646091 264.059111 
L 265.271159 261.691598 
L 264.352656 258.913235 
L 263.256026 256.049433 
L 262.159204 253.185174 
L 261.177357 250.348413 
L 260.464687 247.581396 
L 260.200052 244.879908 
" style="fill:none;stroke:#000000;stroke-linecap:square;stroke-opacity:0.7;stroke-width:1.5;"/>
   </g>
   <g id="line2d_34">
    <path clip-path="url(#pff912d7dda)" d="M 252.554648 244.882955 
L 252.516498 243.947209 
L 252.402429 243.020763 
L 252.213573 242.112823 
L 251.951808 241.232415 
L 251.619734 240.388288 
L 251.220654 239.58883 
L 250.758531 238.841988 
L 250.237961 238.155184 
L 249.664115 237.535243 
L 249.042698 236.988327 
L 248.379885 236.519872 
L 247.682263 236.134532 
L 246.956766 235.836139 
L 246.210605 235.627656 
L 245.451194 235.511157 
L 244.686081 235.487799 
L 243.92287 235.557815 
L 243.169147 235.720508 
L 242.432402 235.974261 
L 241.719957 236.316553 
L 241.038893 236.743982 
L 240.395979 237.252299 
L 239.797603 237.836454 
L 239.249714 238.49064 
L 238.757756 239.208355 
L 238.326619 239.982467 
L 237.960587 240.805283 
L 237.663298 241.668624 
L 237.437707 242.56391 
L 237.286056 243.482245 
L 237.209851 244.4145 
L 237.209851 245.351411 
L 237.286056 246.283666 
L 237.437707 247.202 
L 237.663298 248.097287 
L 237.960587 248.960628 
L 238.326619 249.783443 
L 238.757756 250.557556 
L 239.249714 251.275271 
L 239.797603 251.929457 
L 240.395979 252.513611 
L 241.038893 253.021929 
L 241.719957 253.449357 
L 242.432402 253.791649 
L 243.169147 254.045403 
L 243.92287 254.208096 
L 244.686081 254.278111 
L 245.451194 254.254753 
L 246.210605 254.138254 
L 246.956766 253.929772 
L 247.682263 253.631378 
L 248.379885 253.246039 
L 249.042698 252.777584 
L 249.664115 252.230668 
L 250.237961 251.610727 
L 250.758531 250.923923 
L 251.220654 250.177081 
L 251.619734 249.377623 
L 251.951808 248.533495 
L 252.213573 247.653087 
L 252.402429 246.745148 
L 252.516498 245.818702 
L 252.554648 244.882955 
" style="fill:none;stroke:#000000;stroke-linecap:square;stroke-opacity:0.7;stroke-width:1.5;"/>
   </g>
   <g id="line2d_35">
    <path clip-path="url(#pff912d7dda)" d="M 260.567464 180.003803 
L 260.801802 177.275512 
L 261.433066 174.496004 
L 262.316742 171.651574 
L 263.311612 168.783648 
L 264.335365 165.901536 
L 265.237457 163.084798 
L 265.641779 160.68393 
L 265.149878 159.536357 
L 263.683164 159.253153 
L 261.095929 159.84589 
L 258.260587 160.79406 
L 255.374163 161.821904 
L 252.510601 162.796724 
L 249.681484 163.633223 
L 246.915085 164.176689 
L 244.199857 164.296151 
L 241.456576 163.949362 
L 238.662918 163.240325 
L 235.809811 162.318156 
L 232.931714 161.306969 
L 230.06142 160.297295 
L 227.286354 159.461962 
L 225.152648 159.287081 
L 224.264626 159.972977 
L 224.213235 161.794245 
L 224.945081 164.488711 
L 225.928028 167.339527 
L 226.95113 170.224971 
L 227.901513 173.086024 
L 228.680973 175.89351 
L 229.126675 178.651485 
L 229.126635 181.363849 
L 228.678132 184.112215 
L 227.898432 186.930619 
L 226.946 189.790246 
L 225.925225 192.670294 
L 224.940134 195.525237 
L 224.202972 198.220243 
L 224.270083 200.043847 
L 225.165515 200.717187 
L 227.315208 200.530871 
L 230.077108 199.696668 
L 232.946566 198.690284 
L 235.823894 197.6775 
L 238.676069 196.758098 
L 241.470413 196.048536 
L 244.213524 195.705408 
L 246.925796 195.825925 
L 249.697136 196.372097 
L 252.521496 197.208212 
L 255.38907 198.185436 
L 258.279053 199.212277 
L 261.104386 200.158289 
L 263.664547 200.753507 
L 265.160514 200.46765 
L 265.6446 199.259608 
L 265.229036 196.896682 
L 264.33196 194.089847 
L 263.30959 191.209514 
L 262.313241 188.344138 
L 261.433091 185.500916 
L 260.800147 182.718935 
L 260.568758 179.998198 
" style="fill:none;stroke:#000000;stroke-linecap:square;stroke-opacity:0.7;stroke-width:1.5;"/>
   </g>
   <g id="line2d_36">
    <path clip-path="url(#pff912d7dda)" d="M 257.180953 180.000686 
L 257.119814 178.566651 
L 256.937006 177.146869 
L 256.634344 175.755448 
L 256.214837 174.406219 
L 255.682655 173.112591 
L 255.043086 171.887419 
L 254.302487 170.74288 
L 253.468217 169.69035 
L 252.548569 168.740289 
L 251.552682 167.902138 
L 250.490454 167.184228 
L 249.372442 166.593694 
L 248.209757 166.136405 
L 247.013954 165.816905 
L 245.796918 165.63837 
L 244.570744 165.602574 
L 243.347618 165.709873 
L 242.139697 165.9592 
L 240.958986 166.348078 
L 239.817218 166.872642 
L 238.725741 167.527678 
L 237.695402 168.306677 
L 236.736443 169.201896 
L 235.858393 170.204438 
L 235.069978 171.304339 
L 234.379035 172.490669 
L 233.79243 173.751637 
L 233.315993 175.07471 
L 232.95446 176.446741 
L 232.711423 177.854092 
L 232.589297 179.282776 
L 232.589297 180.718596 
L 232.711423 182.147281 
L 232.95446 183.554631 
L 233.315993 184.926662 
L 233.79243 186.249735 
L 234.379035 187.510703 
L 235.069978 188.697033 
L 235.858393 189.796934 
L 236.736443 190.799476 
L 237.695402 191.694695 
L 238.725741 192.473694 
L 239.817218 193.12873 
L 240.958986 193.653294 
L 242.139697 194.042172 
L 243.347618 194.291499 
L 244.570744 194.398798 
L 245.796918 194.363002 
L 247.013954 194.184467 
L 248.209757 193.864967 
L 249.372442 193.407678 
L 250.490454 192.817144 
L 251.552682 192.099234 
L 252.548569 191.261083 
L 253.468217 190.311022 
L 254.302487 189.258492 
L 255.043086 188.113953 
L 255.682655 186.888781 
L 256.214837 185.595153 
L 256.634344 184.245924 
L 256.937006 182.854503 
L 257.119814 181.434721 
L 257.180953 180.000686 
" style="fill:none;stroke:#000000;stroke-linecap:square;stroke-opacity:0.7;stroke-width:1.5;"/>
   </g>
   <g id="line2d_37">
    <path clip-path="url(#pff912d7dda)" d="M 263.72222 115.118905 
L 263.806161 112.378965 
L 264.0433 109.621558 
L 264.399052 106.847395 
L 264.833626 104.045534 
L 265.283709 101.229661 
L 265.605931 98.55906 
L 265.508758 96.350302 
L 264.739335 95.007179 
L 263.172281 94.400765 
L 260.789749 94.445129 
L 258.066562 94.820746 
L 255.247657 95.27548 
L 252.457635 95.695076 
L 249.686145 96.02358 
L 246.929706 96.225695 
L 244.193604 96.269703 
L 241.449074 96.143016 
L 238.684726 95.87281 
L 235.905205 95.493353 
L 233.095069 95.047303 
L 230.298176 94.609096 
L 227.684633 94.360548 
L 225.694973 94.618475 
L 224.554329 95.554347 
L 224.117957 97.354476 
L 224.278937 99.870916 
L 224.692408 102.63358 
L 225.145839 105.450272 
L 225.546551 108.232723 
L 225.846145 111.00098 
L 226.011502 113.753382 
L 226.012619 116.48758 
L 225.846821 119.236682 
L 225.545554 122.005193 
L 225.144609 124.790629 
L 224.692499 127.607429 
L 224.275632 130.375143 
L 224.122825 132.912794 
L 224.55228 134.658768 
L 225.665659 135.615033 
L 227.692973 135.879349 
L 230.305302 135.627517 
L 233.098166 135.18898 
L 235.90661 134.742535 
L 238.683493 134.363714 
L 241.448511 134.094917 
L 244.19655 133.967803 
L 246.930834 134.009749 
L 249.68472 134.21296 
L 252.457773 134.542928 
L 255.250213 134.96175 
L 258.068315 135.414551 
L 260.793932 135.798458 
L 263.206802 135.827316 
L 264.732471 135.229232 
L 265.504397 133.909665 
L 265.607729 131.68027 
L 265.284979 129.003019 
L 264.832187 126.189365 
L 264.399277 123.388717 
L 264.043399 120.613698 
L 263.80577 117.856022 
L 263.722643 115.118282 
" style="fill:none;stroke:#000000;stroke-linecap:square;stroke-opacity:0.7;stroke-width:1.5;"/>
   </g>
   <g id="line2d_38">
    <path clip-path="url(#pff912d7dda)" d="M 257.892258 115.118417 
L 257.827585 113.549619 
L 257.634207 111.996412 
L 257.314048 110.474234 
L 256.870288 108.998211 
L 256.307339 107.583014 
L 255.630794 106.242707 
L 254.847378 104.990611 
L 253.964877 103.839169 
L 252.992061 102.799826 
L 251.938598 101.88291 
L 250.814959 101.097535 
L 249.632311 100.451506 
L 248.402407 99.951243 
L 247.137471 99.601718 
L 245.850074 99.406405 
L 244.553011 99.367245 
L 243.259172 99.484627 
L 241.981417 99.757385 
L 240.732444 100.182808 
L 239.524667 100.756668 
L 238.370088 101.473261 
L 237.280183 102.325466 
L 236.265782 103.304812 
L 235.336969 104.401568 
L 234.502974 105.604833 
L 233.772085 106.902648 
L 233.151566 108.282115 
L 232.647585 109.729524 
L 232.26515 111.23049 
L 232.008062 112.770097 
L 231.878876 114.333042 
L 231.878876 115.903792 
L 232.008062 117.466737 
L 232.26515 119.006343 
L 232.647585 120.50731 
L 233.151566 121.954719 
L 233.772085 123.334186 
L 234.502974 124.632001 
L 235.336969 125.835265 
L 236.265782 126.932021 
L 237.280183 127.911368 
L 238.370088 128.763573 
L 239.524667 129.480166 
L 240.732444 130.054025 
L 241.981417 130.479448 
L 243.259172 130.752206 
L 244.553011 130.869588 
L 245.850074 130.830429 
L 247.137471 130.635116 
L 248.402407 130.285591 
L 249.632311 129.785328 
L 250.814959 129.139298 
L 251.938598 128.353923 
L 252.992061 127.437007 
L 253.964877 126.397664 
L 254.847378 125.246223 
L 255.630794 123.994126 
L 256.307339 122.653819 
L 256.870288 121.238622 
L 257.314048 119.7626 
L 257.634207 118.240421 
L 257.827585 116.687215 
L 257.892258 115.118417 
" style="fill:none;stroke:#000000;stroke-linecap:square;stroke-opacity:0.7;stroke-width:1.5;"/>
   </g>
   <g id="line2d_39">
    <path clip-path="url(#pff912d7dda)" d="M 264.617947 50.236312 
L 264.776811 47.815843 
L 265.139784 45.234605 
L 265.481787 42.671406 
L 265.639547 40.202399 
L 265.506316 37.836269 
L 265.003439 35.617955 
L 264.085086 33.644114 
L 262.737672 32.001187 
L 261.002898 30.757206 
L 258.958785 29.946756 
L 256.69628 29.542074 
L 254.299505 29.489164 
L 251.812691 29.705134 
L 249.221516 30.073122 
L 246.674915 30.401564 
L 244.281342 30.485435 
L 241.825244 30.257535 
L 239.219314 29.876936 
L 236.68557 29.570202 
L 234.240408 29.477352 
L 231.90043 29.696292 
L 229.740847 30.299153 
L 227.833019 31.331795 
L 226.289269 32.77344 
L 225.163873 34.593729 
L 224.446989 36.715646 
L 224.135772 39.006619 
L 224.163883 41.427005 
L 224.43267 43.941444 
L 224.809435 46.54907 
L 225.091996 49.058962 
L 225.096767 51.438825 
L 224.807957 53.935696 
L 224.42663 56.540951 
L 224.164531 59.05041 
L 224.141114 61.477264 
L 224.450475 63.773882 
L 225.16021 65.885288 
L 226.297021 67.70158 
L 227.845285 69.149184 
L 229.744083 70.175968 
L 231.914803 70.776357 
L 234.251432 70.996459 
L 236.695377 70.903167 
L 239.228892 70.59061 
L 241.828745 70.215107 
L 244.301134 69.990738 
L 246.68724 70.066383 
L 249.228221 70.402505 
L 251.812888 70.768925 
L 254.301563 70.980989 
L 256.704763 70.929427 
L 258.958908 70.526642 
L 261.004924 69.712434 
L 262.74843 68.464343 
L 264.080473 66.833665 
L 265.00117 64.848358 
L 265.510664 62.62767 
L 265.641292 60.270331 
L 265.479283 57.798035 
L 265.138646 55.230464 
L 264.775973 52.643625 
L 264.6189 50.235924 
" style="fill:none;stroke:#000000;stroke-linecap:square;stroke-opacity:0.7;stroke-width:1.5;"/>
   </g>
   <g id="line2d_40">
    <path clip-path="url(#pff912d7dda)" d="M 249.653755 50.236147 
L 249.630021 49.414314 
L 249.559054 48.600648 
L 249.441559 47.803237 
L 249.278704 47.030005 
L 249.072108 46.288637 
L 248.823824 45.586501 
L 248.536319 44.930576 
L 248.212451 44.327379 
L 247.855438 43.782907 
L 247.46883 43.30257 
L 247.056467 42.891142 
L 246.622448 42.552711 
L 246.171087 42.290643 
L 245.70687 42.10754 
L 245.23441 42.005223 
L 244.758402 41.984709 
L 244.283578 42.046201 
L 243.814656 42.189088 
L 243.356297 42.411951 
L 242.913057 42.712574 
L 242.489339 43.08797 
L 242.089356 43.534408 
L 241.717083 44.04745 
L 241.376219 44.621999 
L 241.070152 45.252343 
L 240.801924 45.932219 
L 240.574201 46.654869 
L 240.389245 47.413112 
L 240.248896 48.199411 
L 240.154548 49.005952 
L 240.107138 49.824719 
L 240.107138 50.647576 
L 240.154548 51.466343 
L 240.248896 52.272884 
L 240.389245 53.059183 
L 240.574201 53.817426 
L 240.801924 54.540076 
L 241.070152 55.219952 
L 241.376219 55.850296 
L 241.717083 56.424845 
L 242.089356 56.937887 
L 242.489339 57.384325 
L 242.913057 57.759721 
L 243.356297 58.060344 
L 243.814656 58.283207 
L 244.283578 58.426094 
L 244.758402 58.487586 
L 245.23441 58.467072 
L 245.70687 58.364755 
L 246.171087 58.181652 
L 246.622448 57.919583 
L 247.056467 57.581153 
L 247.46883 57.169725 
L 247.855438 56.689388 
L 248.212451 56.144916 
L 248.536319 55.541719 
L 248.823824 54.885794 
L 249.072108 54.183658 
L 249.278704 53.44229 
L 249.441559 52.669058 
L 249.559054 51.871647 
L 249.630021 51.057981 
L 249.653755 50.236147 
" style="fill:none;stroke:#000000;stroke-linecap:square;stroke-opacity:0.7;stroke-width:1.5;"/>
   </g>
   <g id="line2d_41">
    <path clip-path="url(#pff912d7dda)" d="M 328.972784 309.765595 
L 329.048153 307.051638 
L 329.261548 304.32155 
L 329.582642 301.576143 
L 329.972606 298.796087 
L 330.337558 296.040789 
L 330.523086 293.461843 
L 330.258596 291.295207 
L 329.363332 289.881957 
L 327.759205 289.144021 
L 325.44562 289.016381 
L 322.802316 289.269927 
L 320.032187 289.652205 
L 317.264491 290.031082 
L 314.521671 290.327446 
L 311.792898 290.509206 
L 309.08219 290.548648 
L 306.363755 290.434736 
L 303.627338 290.191459 
L 300.876694 289.848862 
L 298.09445 289.454018 
L 295.360393 289.113413 
L 292.857812 289.016618 
L 290.868058 289.429321 
L 289.633828 290.487898 
L 289.055635 292.28617 
L 289.049219 294.718427 
L 289.35438 297.410267 
L 289.746517 300.191693 
L 290.109183 302.948604 
L 290.379272 305.68812 
L 290.527772 308.41309 
L 290.528581 311.122208 
L 290.379446 313.844972 
L 290.108118 316.585331 
L 289.745987 319.342695 
L 289.354026 322.120777 
L 289.048065 324.824185 
L 289.059804 327.238955 
L 289.627743 329.031291 
L 290.857092 330.095436 
L 292.844403 330.514628 
L 295.367388 330.418251 
L 298.095816 330.075757 
L 300.880227 329.681081 
L 303.629122 329.338131 
L 306.365407 329.096337 
L 309.0867 328.9826 
L 311.796306 329.02035 
L 314.523286 329.20279 
L 317.267294 329.500095 
L 320.034047 329.879223 
L 322.797623 330.260046 
L 325.454832 330.515465 
L 327.777026 330.381159 
L 329.339391 329.65982 
L 330.260492 328.229714 
L 330.521958 326.087569 
L 330.339395 323.490382 
L 329.972811 320.740758 
L 329.583185 317.954198 
L 329.261334 315.209103 
L 329.048382 312.481162 
L 328.972523 309.763622 
" style="fill:none;stroke:#000000;stroke-linecap:square;stroke-opacity:0.7;stroke-width:1.5;"/>
   </g>
   <g id="line2d_42">
    <path clip-path="url(#pff912d7dda)" d="M 322.971818 309.765225 
L 322.906164 308.689473 
L 322.709856 307.624414 
L 322.384843 306.58063 
L 321.934356 305.568497 
L 321.362873 304.598072 
L 320.676072 303.679001 
L 319.880781 302.820418 
L 318.984902 302.030855 
L 317.997339 301.31816 
L 316.927907 300.689415 
L 315.787235 300.15087 
L 314.586659 299.707877 
L 313.338111 299.364838 
L 312.053999 299.125163 
L 310.747087 298.991234 
L 309.430361 298.964381 
L 308.116909 299.044872 
L 306.819785 299.231907 
L 305.551879 299.523627 
L 304.325793 299.917132 
L 303.153712 300.408512 
L 302.047285 300.992883 
L 301.017507 301.664437 
L 300.074614 302.416501 
L 299.227976 303.2416 
L 298.486008 304.131534 
L 297.856083 305.077457 
L 297.344462 306.06997 
L 296.95623 307.099208 
L 296.695244 308.154942 
L 296.5641 309.22668 
L 296.5641 310.30377 
L 296.695244 311.375507 
L 296.95623 312.431241 
L 297.344462 313.460479 
L 297.856083 314.452992 
L 298.486008 315.398915 
L 299.227976 316.288849 
L 300.074614 317.113948 
L 301.017507 317.866012 
L 302.047285 318.537566 
L 303.153712 319.121937 
L 304.325793 319.613317 
L 305.551879 320.006822 
L 306.819785 320.298542 
L 308.116909 320.485577 
L 309.430361 320.566068 
L 310.747087 320.539215 
L 312.053999 320.405286 
L 313.338111 320.165611 
L 314.586659 319.822572 
L 315.787235 319.379579 
L 316.927907 318.841034 
L 317.997339 318.212289 
L 318.984902 317.499594 
L 319.880781 316.710031 
L 320.676072 315.851448 
L 321.362873 314.932377 
L 321.934356 313.961952 
L 322.384843 312.949819 
L 322.709856 311.906035 
L 322.906164 310.840976 
L 322.971818 309.765225 
" style="fill:none;stroke:#000000;stroke-linecap:square;stroke-opacity:0.7;stroke-width:1.5;"/>
   </g>
   <g id="line2d_43">
    <path clip-path="url(#pff912d7dda)" d="M 325.843923 244.885429 
L 326.047506 242.141027 
L 326.604901 239.348532 
L 327.392016 236.49969 
L 328.289458 233.629839 
L 329.228969 230.738467 
L 330.095346 227.894484 
L 330.534829 225.475688 
L 330.089615 224.377168 
L 328.67466 224.135437 
L 326.054072 224.746659 
L 323.1936 225.643958 
L 320.302516 226.581285 
L 317.434306 227.458638 
L 314.60182 228.202188 
L 311.819253 228.681968 
L 309.078631 228.787563 
L 306.32571 228.483328 
L 303.513069 227.856555 
L 300.657666 227.03368 
L 297.784727 226.11831 
L 294.896613 225.184872 
L 292.091783 224.36725 
L 289.958086 224.146793 
L 289.117862 224.780559 
L 289.106375 226.568539 
L 289.837147 229.296477 
L 290.756172 232.171737 
L 291.685148 235.058424 
L 292.537955 237.921795 
L 293.228998 240.739097 
L 293.623235 243.512989 
L 293.624366 246.247144 
L 293.229907 249.013931 
L 292.540802 251.83942 
L 291.687356 254.700799 
L 290.759493 257.582662 
L 289.840159 260.45988 
L 289.101793 263.180804 
L 289.117214 264.987649 
L 289.957764 265.619253 
L 292.097021 265.395171 
L 294.887836 264.582237 
L 297.774653 263.650182 
L 300.654778 262.7343 
L 303.512051 261.910873 
L 306.313081 261.281913 
L 309.079277 260.980148 
L 311.812829 261.083278 
L 314.593066 261.561945 
L 317.431565 262.305756 
L 320.298046 263.183873 
L 323.186851 264.119374 
L 326.047362 265.015494 
L 328.624102 265.629434 
L 330.095639 265.390237 
L 330.534589 264.291591 
L 330.097402 261.866873 
L 329.227071 259.029564 
L 328.29031 256.133779 
L 327.390205 253.263124 
L 326.605016 250.416377 
L 326.047081 247.622339 
L 325.844293 244.880838 
" style="fill:none;stroke:#000000;stroke-linecap:square;stroke-opacity:0.7;stroke-width:1.5;"/>
   </g>
   <g id="line2d_44">
    <path clip-path="url(#pff912d7dda)" d="M 323.568005 244.882955 
L 323.499389 244.10872 
L 323.294221 243.342179 
L 322.954543 242.590951 
L 322.483728 241.862502 
L 321.886457 241.164071 
L 321.168665 240.502601 
L 320.337486 239.884664 
L 319.401181 239.316403 
L 318.369055 238.803465 
L 317.251366 238.350947 
L 316.059222 237.963347 
L 314.80447 237.644518 
L 313.499582 237.397627 
L 312.157526 237.225129 
L 310.79164 237.128738 
L 309.415498 237.109412 
L 308.042777 237.167343 
L 306.687121 237.301955 
L 305.362002 237.51191 
L 304.080589 237.795122 
L 302.855619 238.148776 
L 301.699264 238.569358 
L 300.623019 239.052686 
L 299.637578 239.593959 
L 298.752736 240.187796 
L 297.977287 240.828296 
L 297.318937 241.509093 
L 296.78423 242.22342 
L 296.378479 242.96418 
L 296.105717 243.724009 
L 295.968655 244.495356 
L 295.968655 245.270555 
L 296.105717 246.041902 
L 296.378479 246.801731 
L 296.78423 247.54249 
L 297.318937 248.256818 
L 297.977287 248.937615 
L 298.752736 249.578114 
L 299.637578 250.171952 
L 300.623019 250.713224 
L 301.699264 251.196553 
L 302.855619 251.617134 
L 304.080589 251.970789 
L 305.362002 252.254001 
L 306.687121 252.463956 
L 308.042777 252.598568 
L 309.415498 252.656499 
L 310.79164 252.637172 
L 312.157526 252.540781 
L 313.499582 252.368283 
L 314.80447 252.121393 
L 316.059222 251.802563 
L 317.251366 251.414964 
L 318.369055 250.962446 
L 319.401181 250.449508 
L 320.337486 249.881246 
L 321.168665 249.26331 
L 321.886457 248.601839 
L 322.483728 247.903409 
L 322.954543 247.17496 
L 323.294221 246.423732 
L 323.499389 245.657191 
L 323.568005 244.882955 
" style="fill:none;stroke:#000000;stroke-linecap:square;stroke-opacity:0.7;stroke-width:1.5;"/>
   </g>
   <g id="line2d_45">
    <path clip-path="url(#pff912d7dda)" d="M 329.371332 180.001044 
L 329.434743 177.317463 
L 329.617497 174.616478 
L 329.890113 171.897814 
L 330.210491 169.154012 
L 330.461516 166.474302 
L 330.495817 163.972017 
L 330.072959 161.856648 
L 329.071224 160.386589 
L 327.437656 159.531624 
L 325.197809 159.239073 
L 322.630192 159.347639 
L 319.93058 159.628296 
L 317.189634 159.944923 
L 314.474393 160.196983 
L 311.774572 160.353043 
L 309.09252 160.387229 
L 306.402838 160.289184 
L 303.694674 160.081471 
L 300.970639 159.792308 
L 298.234869 159.475232 
L 295.579287 159.261564 
L 293.157246 159.319598 
L 291.190682 159.87954 
L 289.87544 161.035453 
L 289.171884 162.838155 
L 288.993449 165.178718 
L 289.167525 167.793206 
L 289.469676 170.517889 
L 289.774381 173.252751 
L 290.004724 175.96492 
L 290.132933 178.660371 
L 290.134003 181.340208 
L 290.005617 184.034255 
L 289.774262 186.747206 
L 289.469813 189.479404 
L 289.165953 192.198007 
L 288.999641 194.82463 
L 289.166032 197.150994 
L 289.871322 198.957571 
L 291.181354 200.115936 
L 293.148434 200.678116 
L 295.572722 200.745077 
L 298.227162 200.524658 
L 300.967862 200.209788 
L 303.692666 199.919853 
L 306.400571 199.712964 
L 309.091899 199.614648 
L 311.772298 199.64726 
L 314.471109 199.80426 
L 317.188721 200.056832 
L 319.928957 200.372607 
L 322.622358 200.654166 
L 325.20628 200.761437 
L 327.425998 200.471441 
L 329.065487 199.616769 
L 330.0703 198.150538 
L 330.493817 196.030175 
L 330.464611 193.539455 
L 330.209342 190.852432 
L 329.890924 188.10221 
L 329.617346 185.384295 
L 329.434692 182.684823 
L 329.371363 179.999622 
" style="fill:none;stroke:#000000;stroke-linecap:square;stroke-opacity:0.7;stroke-width:1.5;"/>
   </g>
   <g id="line2d_46">
    <path clip-path="url(#pff912d7dda)" d="M 326.894351 180.000686 
L 326.809205 179.564948 
L 326.554614 179.13354 
L 326.133108 178.71075 
L 325.548877 178.30078 
L 324.807726 177.907705 
L 323.917021 177.535431 
L 322.885615 177.187657 
L 321.723758 176.867841 
L 320.442998 176.57916 
L 319.056062 176.324484 
L 317.576736 176.106344 
L 316.019721 175.926907 
L 314.400491 175.787957 
L 312.73514 175.690876 
L 311.040218 175.636627 
L 309.33257 175.62575 
L 307.629167 175.658353 
L 305.946939 175.734113 
L 304.302605 175.852275 
L 302.712506 176.011667 
L 301.192446 176.210702 
L 299.757531 176.447405 
L 298.422023 176.719421 
L 297.199194 177.024049 
L 296.101198 177.358259 
L 295.138947 177.718731 
L 294.322003 178.101882 
L 293.658487 178.503905 
L 293.154992 178.920803 
L 292.816523 179.348433 
L 292.646444 179.782546 
L 292.646444 180.218826 
L 292.816523 180.652939 
L 293.154992 181.080569 
L 293.658487 181.497467 
L 294.322003 181.89949 
L 295.138947 182.282641 
L 296.101198 182.643113 
L 297.199194 182.977323 
L 298.422023 183.281951 
L 299.757531 183.553967 
L 301.192446 183.79067 
L 302.712506 183.989706 
L 304.302605 184.149097 
L 305.946939 184.267259 
L 307.629167 184.343019 
L 309.33257 184.375622 
L 311.040218 184.364745 
L 312.73514 184.310496 
L 314.400491 184.213415 
L 316.019721 184.074465 
L 317.576736 183.895029 
L 319.056062 183.676888 
L 320.442998 183.422212 
L 321.723758 183.133531 
L 322.885615 182.813715 
L 323.917021 182.465941 
L 324.807726 182.093667 
L 325.548877 181.700592 
L 326.133108 181.290622 
L 326.554614 180.867832 
L 326.809205 180.436424 
L 326.894351 180.000686 
" style="fill:none;stroke:#000000;stroke-linecap:square;stroke-opacity:0.7;stroke-width:1.5;"/>
   </g>
   <g id="line2d_47">
    <path clip-path="url(#pff912d7dda)" d="M 319.286562 115.119853 
L 320.009623 112.730637 
L 321.79351 109.967795 
L 323.835529 107.082542 
L 325.844842 104.202876 
L 327.741868 101.307379 
L 329.436403 98.376168 
L 330.508939 95.703253 
L 330.204039 94.494819 
L 328.604174 94.520836 
L 325.780859 95.828146 
L 322.848324 97.594234 
L 319.959798 99.5248 
L 317.079359 101.549505 
L 314.199102 103.582136 
L 311.491576 105.185172 
L 309.19058 105.545679 
L 306.681045 104.472642 
L 303.875168 102.566418 
L 300.989823 100.523402 
L 298.105486 98.535416 
L 295.200456 96.67689 
L 292.288106 95.078361 
L 289.893196 94.328882 
L 289.015069 94.921585 
L 289.421031 96.962085 
L 290.891018 99.838601 
L 292.714794 102.766376 
L 294.672106 105.648223 
L 296.710756 108.530374 
L 298.699866 111.382854 
L 300.060303 114.002232 
L 300.051258 116.266389 
L 298.678286 118.887999 
L 296.689354 121.732985 
L 294.654777 124.616927 
L 292.690881 127.504316 
L 290.881818 130.415645 
L 289.405051 133.300882 
L 289.020051 135.326509 
L 289.902303 135.911184 
L 292.332297 135.136238 
L 295.230017 133.539673 
L 298.147708 131.672619 
L 301.024195 129.691101 
L 303.905598 127.646727 
L 306.716774 125.740575 
L 309.219978 124.684575 
L 311.53201 125.06668 
L 314.239232 126.682706 
L 317.111656 128.710264 
L 319.988926 130.733639 
L 322.882655 132.660434 
L 325.801528 134.424591 
L 328.634202 135.725035 
L 330.212377 135.736094 
L 330.506529 134.514255 
L 329.41282 131.806742 
L 327.71598 128.895232 
L 325.813957 125.989026 
L 323.809794 123.115234 
L 321.7696 120.235592 
L 319.996578 117.480079 
L 319.289046 115.117173 
" style="fill:none;stroke:#000000;stroke-linecap:square;stroke-opacity:0.7;stroke-width:1.5;"/>
   </g>
   <g id="line2d_48">
    <path clip-path="url(#pff912d7dda)" d="M 315.091455 115.118417 
L 315.064961 114.427547 
L 314.985741 113.743544 
L 314.854582 113.073205 
L 314.672789 112.423192 
L 314.442168 111.799966 
L 314.165011 111.209719 
L 313.844072 110.65832 
L 313.482542 110.151246 
L 313.084013 109.693539 
L 312.652445 109.289746 
L 312.192129 108.943882 
L 311.707639 108.659382 
L 311.20379 108.439076 
L 310.685589 108.285151 
L 310.158186 108.199139 
L 309.626824 108.181894 
L 309.096783 108.233587 
L 308.573331 108.353704 
L 308.06167 108.541053 
L 307.566885 108.79377 
L 307.093893 109.109344 
L 306.647397 109.484639 
L 306.231832 109.915925 
L 305.851329 110.398916 
L 305.50967 110.928812 
L 305.21025 111.500345 
L 304.956045 112.107837 
L 304.749581 112.745249 
L 304.59291 113.406246 
L 304.48759 114.08426 
L 304.434667 114.772552 
L 304.434667 115.464281 
L 304.48759 116.152573 
L 304.59291 116.830587 
L 304.749581 117.491585 
L 304.956045 118.128997 
L 305.21025 118.736488 
L 305.50967 119.308022 
L 305.851329 119.837917 
L 306.231832 120.320908 
L 306.647397 120.752194 
L 307.093893 121.127489 
L 307.566885 121.443064 
L 308.06167 121.695781 
L 308.573331 121.883129 
L 309.096783 122.003247 
L 309.626824 122.054939 
L 310.158186 122.037694 
L 310.685589 121.951682 
L 311.20379 121.797758 
L 311.707639 121.577451 
L 312.192129 121.292952 
L 312.652445 120.947087 
L 313.084013 120.543295 
L 313.482542 120.085587 
L 313.844072 119.578514 
L 314.165011 119.027114 
L 314.442168 118.436868 
L 314.672789 117.813641 
L 314.854582 117.163628 
L 314.985741 116.493289 
L 315.064961 115.809286 
L 315.091455 115.118417 
" style="fill:none;stroke:#000000;stroke-linecap:square;stroke-opacity:0.7;stroke-width:1.5;"/>
   </g>
   <g id="line2d_49">
    <path clip-path="url(#pff912d7dda)" d="M 329.967102 50.23635 
L 330.001523 47.56095 
L 330.101107 44.874825 
L 330.24958 42.177443 
L 330.419983 39.473698 
L 330.516754 36.843202 
L 330.41547 34.385877 
L 329.896446 32.313209 
L 328.853797 30.833354 
L 327.21474 29.927875 
L 325.032801 29.520389 
L 322.512349 29.491261 
L 319.857014 29.617167 
L 317.147993 29.786674 
L 314.452231 29.923792 
L 311.767083 30.009297 
L 309.092655 30.028265 
L 306.413631 29.974572 
L 303.723143 29.861139 
L 301.022022 29.703831 
L 298.330006 29.540066 
L 295.723414 29.479352 
L 293.34875 29.663099 
L 291.409142 30.309968 
L 290.081231 31.490728 
L 289.304213 33.286664 
L 289.011604 35.567625 
L 289.036615 38.140996 
L 289.183199 40.816722 
L 289.348823 43.524403 
L 289.474391 46.217136 
L 289.54437 48.899517 
L 289.544873 51.573091 
L 289.474682 54.255015 
L 289.348766 56.948585 
L 289.18367 59.65477 
L 289.033886 62.326549 
L 289.017756 64.904911 
L 289.298969 67.18066 
L 290.07889 68.975529 
L 291.402496 70.158495 
L 293.348229 70.806264 
L 295.71505 70.997359 
L 298.327175 70.930014 
L 301.021798 70.769198 
L 303.723253 70.610968 
L 306.413083 70.498112 
L 309.092925 70.444498 
L 311.766902 70.462489 
L 314.451866 70.548226 
L 317.148596 70.685428 
L 319.857294 70.855662 
L 322.503587 70.983584 
L 325.039992 70.945067 
L 327.207267 70.552558 
L 328.851391 69.635582 
L 329.893263 68.166091 
L 330.414421 66.081896 
L 330.518437 63.641378 
L 330.418552 61.000447 
L 330.250377 58.293304 
L 330.100942 55.597055 
L 330.00146 52.912119 
L 329.96714 50.235429 
" style="fill:none;stroke:#000000;stroke-linecap:square;stroke-opacity:0.7;stroke-width:1.5;"/>
   </g>
   <g id="line2d_50">
    <path clip-path="url(#pff912d7dda)" d="M 320.541532 50.236147 
L 320.487955 48.658495 
L 320.327756 47.096521 
L 320.062528 45.565751 
L 319.694905 44.081397 
L 319.228543 42.658212 
L 318.668076 41.31034 
L 318.019074 40.051176 
L 317.287986 38.893236 
L 316.48208 37.848026 
L 315.609364 36.925935 
L 314.678512 36.136126 
L 313.698776 35.486451 
L 312.679891 34.983364 
L 311.631985 34.631866 
L 310.565471 34.435451 
L 309.49095 34.39607 
L 308.4191 34.514115 
L 307.360575 34.788412 
L 306.325893 35.216236 
L 305.325338 35.793335 
L 304.368855 36.513973 
L 303.465949 37.370988 
L 302.625593 38.355862 
L 301.85614 39.458809 
L 301.165236 40.668865 
L 300.559749 41.974005 
L 300.045695 43.361259 
L 299.628184 44.816837 
L 299.311365 46.326276 
L 299.098386 47.874572 
L 298.991365 49.446339 
L 298.991365 51.025956 
L 299.098386 52.597723 
L 299.311365 54.146019 
L 299.628184 55.655457 
L 300.045695 57.111036 
L 300.559749 58.49829 
L 301.165236 59.80343 
L 301.85614 61.013486 
L 302.625593 62.116432 
L 303.465949 63.101307 
L 304.368855 63.958322 
L 305.325338 64.67896 
L 306.325893 65.256059 
L 307.360575 65.683883 
L 308.4191 65.95818 
L 309.49095 66.076225 
L 310.565471 66.036844 
L 311.631985 65.840429 
L 312.679891 65.488931 
L 313.698776 64.985844 
L 314.678512 64.336168 
L 315.609364 63.54636 
L 316.48208 62.624269 
L 317.287986 61.579059 
L 318.019074 60.421119 
L 318.668076 59.161955 
L 319.228543 57.814083 
L 319.694905 56.390898 
L 320.062528 54.906544 
L 320.327756 53.375774 
L 320.487955 51.8138 
L 320.541532 50.236147 
" style="fill:none;stroke:#000000;stroke-linecap:square;stroke-opacity:0.7;stroke-width:1.5;"/>
   </g>
  </g>
 </g>
 <defs>
  <clipPath id="pff912d7dda">
   <rect height="329.04" width="329.04" x="15.48" y="15.48"/>
  </clipPath>
 </defs>
</svg>
