<?xml version="1.0" encoding="utf-8" standalone="no"?>
<!DOCTYPE svg PUBLIC "-//W3C//DTD SVG 1.1//EN"
  "http://www.w3.org/Graphics/SVG/1.1/DTD/svg11.dtd">
<!-- Created with matplotlib (http://matplotlib.org/) -->
<svg height="360pt" version="1.1" viewBox="0 0 360 360" width="360pt" xmlns="http://www.w3.org/2000/svg" xmlns:xlink="http://www.w3.org/1999/xlink">
 <defs>
  <style type="text/css">
*{stroke-linecap:butt;stroke-linejoin:round;}
  </style>
 </defs>
 <g id="figure_1">
  <g id="patch_1">
   <path d="M 0 360 
L 360 360 
L 360 0 
L 0 0 
z
" style="fill:#ffffff;"/>
  </g>
  <g id="axes_1">
   <g id="line2d_1">
    <path clip-path="url(#p27e0bb2b6c)" d="M 68.284987 309.766985 
L 68.411253 307.044881 
L 68.763887 304.296453 
L 69.28329 301.520426 
L 69.901025 298.703226 
L 70.514238 295.891011 
L 70.940122 293.235886 
L 70.878317 291.019096 
L 70.094127 289.647017 
L 68.502298 289.035865 
L 66.119136 289.130435 
L 63.41355 289.627643 
L 60.586244 290.254449 
L 57.781506 290.854915 
L 55.015179 291.338607 
L 52.27013 291.639976 
L 49.550384 291.705112 
L 46.822281 291.515084 
L 44.064223 291.115214 
L 41.280396 290.564747 
L 38.456049 289.935892 
L 35.668851 289.346311 
L 33.070108 289.012757 
L 31.0628 289.24922 
L 29.895138 290.208505 
L 29.465171 292.02915 
L 29.694105 294.538189 
L 30.245613 297.287151 
L 30.876946 300.119055 
L 31.454864 302.912379 
L 31.898945 305.672064 
L 32.145161 308.412031 
L 32.145213 311.128481 
L 31.897384 313.863753 
L 31.453661 316.628446 
L 30.875603 319.421185 
L 30.244518 322.247578 
L 29.690112 325.002939 
L 29.470879 327.528969 
L 29.891643 329.300513 
L 31.034743 330.277814 
L 33.076111 330.523013 
L 35.675194 330.184487 
L 38.459328 329.59395 
L 41.287561 328.966535 
L 44.071425 328.415525 
L 46.824561 328.015179 
L 49.559575 327.827194 
L 52.275916 327.891983 
L 55.018312 328.194365 
L 57.789842 328.678008 
L 60.593357 329.278656 
L 63.41423 329.903529 
L 66.124832 330.407715 
L 68.540805 330.488058 
L 70.079903 329.88353 
L 70.87472 328.540947 
L 70.941497 326.299584 
L 70.515707 323.637279 
L 69.8992 320.825718 
L 69.283268 318.010244 
L 68.763945 315.233325 
L 68.41068 312.484335 
L 68.285544 309.765295 
" style="fill:none;stroke:#000000;stroke-linecap:square;stroke-opacity:0.7;stroke-width:1.5;"/>
   </g>
   <g id="line2d_2">
    <path clip-path="url(#p27e0bb2b6c)" d="M 65.162271 244.888105 
L 65.445721 242.171274 
L 66.191977 239.395536 
L 67.217621 236.53946 
L 68.349317 233.661543 
L 69.497041 230.775688 
L 70.511127 227.947115 
L 71.003654 225.520222 
L 70.541163 224.384161 
L 69.071853 224.146292 
L 66.455135 224.840327 
L 63.609159 225.903637 
L 60.717357 227.059795 
L 57.843877 228.173071 
L 55.006257 229.147578 
L 52.245529 229.791482 
L 49.5549 229.933722 
L 46.824486 229.517853 
L 44.029876 228.682826 
L 41.165554 227.619402 
L 38.276495 226.472412 
L 35.404087 225.343742 
L 32.615844 224.400136 
L 30.459348 224.150166 
L 29.589354 224.813797 
L 29.600048 226.653379 
L 30.438071 229.369313 
L 31.53777 232.229359 
L 32.693744 235.121608 
L 33.783044 237.98939 
L 34.694923 240.80762 
L 35.226561 243.553035 
L 35.225325 246.236341 
L 34.687217 248.986484 
L 33.776112 251.799656 
L 32.68293 254.671772 
L 31.528038 257.566699 
L 30.428667 260.42203 
L 29.587738 263.133655 
L 29.594532 264.969701 
L 30.476231 265.621531 
L 32.652594 265.355511 
L 35.429746 264.412513 
L 38.302883 263.286591 
L 41.190914 262.137981 
L 44.053301 261.078433 
L 46.84892 260.243512 
L 49.57917 259.834299 
L 52.265634 259.979545 
L 55.033584 260.628714 
L 57.865735 261.603453 
L 60.743433 262.719592 
L 63.639165 263.874972 
L 66.475203 264.933784 
L 69.05079 265.625278 
L 70.553998 265.387004 
L 71.002301 264.18109 
L 70.499423 261.799552 
L 69.491911 258.978756 
L 68.346173 256.095397 
L 67.212147 253.220102 
L 66.191711 250.366215 
L 65.443028 247.586929 
L 65.164195 244.880736 
" style="fill:none;stroke:#000000;stroke-linecap:square;stroke-opacity:0.7;stroke-width:1.5;"/>
   </g>
   <g id="line2d_3">
    <path clip-path="url(#p27e0bb2b6c)" d="M 63.383827 180.002902 
L 63.805199 177.427619 
L 64.907523 174.685685 
L 66.346419 171.841325 
L 67.855796 168.967862 
L 69.285681 166.122731 
L 70.464761 163.308328 
L 70.994476 160.827368 
L 70.475511 159.555588 
L 68.885308 159.269096 
L 66.253235 160.01723 
L 63.434579 161.273844 
L 60.579208 162.736783 
L 57.704781 164.242837 
L 54.880906 165.635614 
L 52.167955 166.602448 
L 49.608987 166.82757 
L 46.955713 166.193839 
L 44.196905 164.976526 
L 41.335656 163.500103 
L 38.461848 161.998161 
L 35.626192 160.612391 
L 32.833052 159.537313 
L 30.596688 159.284997 
L 29.619006 160.032876 
L 29.605031 161.976452 
L 30.537194 164.694245 
L 31.861838 167.522732 
L 33.349542 170.383846 
L 34.841826 173.24767 
L 36.160878 176.048335 
L 36.971219 178.727952 
L 36.970231 181.277389 
L 36.156959 183.966993 
L 34.84176 186.756217 
L 33.344042 189.628053 
L 31.859401 192.493698 
L 30.530826 195.316612 
L 29.592477 198.054872 
L 29.625172 199.9869 
L 30.61105 200.723553 
L 32.860665 200.459385 
L 35.63594 199.384316 
L 38.471115 198.004855 
L 41.338844 196.500301 
L 44.193834 195.031464 
L 46.963492 193.807109 
L 49.606387 193.178464 
L 52.166921 193.400978 
L 54.889175 194.372709 
L 57.705431 195.762502 
L 60.582406 197.270378 
L 63.442596 198.732175 
L 66.247378 199.987234 
L 68.87814 200.745019 
L 70.487027 200.444395 
L 70.995438 199.17085 
L 70.466807 196.687662 
L 69.279954 193.875889 
L 67.856803 191.034547 
L 66.345463 188.165116 
L 64.910492 185.320101 
L 63.805926 182.582785 
L 63.383331 180.002306 
" style="fill:none;stroke:#000000;stroke-linecap:square;stroke-opacity:0.7;stroke-width:1.5;"/>
   </g>
   <g id="line2d_4">
    <path clip-path="url(#p27e0bb2b6c)" d="M 67.077006 115.122281 
L 67.244849 112.375458 
L 67.711333 109.588992 
L 68.381257 106.758475 
L 69.15922 103.904724 
L 69.979802 101.029342 
L 70.707325 98.224575 
L 70.989514 95.852568 
L 70.457573 94.698057 
L 69.000933 94.354924 
L 66.44013 94.806325 
L 63.614256 95.572741 
L 60.738593 96.391243 
L 57.888383 97.148843 
L 55.071401 97.7782 
L 52.291822 98.178675 
L 49.546564 98.26588 
L 46.790053 98.012351 
L 43.988115 97.486476 
L 41.151399 96.782456 
L 38.293265 95.986045 
L 35.425692 95.172875 
L 32.656844 94.501415 
L 30.557086 94.429633 
L 29.651039 95.142628 
L 29.518063 96.939451 
L 30.095775 99.613355 
L 30.890592 102.461192 
L 31.699891 105.330433 
L 32.432948 108.17535 
L 33.014814 110.980452 
L 33.342771 113.752826 
L 33.342755 116.493434 
L 33.013279 119.260635 
L 32.432844 122.072278 
L 31.698549 124.915657 
L 30.889426 127.782829 
L 30.093657 130.632673 
L 29.508024 133.318063 
L 29.657907 135.111578 
L 30.566735 135.815354 
L 32.682761 135.733438 
L 35.432421 135.065026 
L 38.296125 134.253414 
L 41.158268 133.457689 
L 43.996549 132.753606 
L 46.789677 132.22635 
L 49.555751 131.976022 
L 52.296194 132.062971 
L 55.073726 132.463684 
L 57.89537 133.0929 
L 60.745205 133.851997 
L 63.619296 134.66905 
L 66.441508 135.435506 
L 68.986541 135.894195 
L 70.464861 135.54278 
L 70.997229 134.345492 
L 70.701847 131.998754 
L 69.978484 129.205215 
L 69.157983 126.331107 
L 68.379641 123.4798 
L 67.711532 120.649588 
L 67.244086 117.861663 
L 67.077693 115.119253 
" style="fill:none;stroke:#000000;stroke-linecap:square;stroke-opacity:0.7;stroke-width:1.5;"/>
   </g>
   <g id="line2d_5">
    <path clip-path="url(#p27e0bb2b6c)" d="M 70.278261 50.238507 
L 70.318727 47.541307 
L 70.431234 44.835037 
L 70.602536 42.121275 
L 70.809915 39.391415 
L 70.966153 36.712895 
L 70.945125 34.202813 
L 70.514865 32.103546 
L 69.517345 30.638871 
L 67.908476 29.808106 
L 65.668003 29.48435 
L 63.10165 29.532956 
L 60.400449 29.712253 
L 57.668878 29.914229 
L 54.955777 30.071916 
L 52.251754 30.168099 
L 49.556978 30.18911 
L 46.857848 30.129298 
L 44.149093 30.00033 
L 41.432384 29.816497 
L 38.707383 29.61137 
L 36.048922 29.484808 
L 33.621223 29.585955 
L 31.672885 30.145418 
L 30.371011 31.29147 
L 29.673468 33.072915 
L 29.465178 35.417661 
L 29.562591 38.036847 
L 29.756511 40.755131 
L 29.951072 43.480282 
L 30.094596 46.190818 
L 30.172972 48.892563 
L 30.173545 51.586705 
L 30.095131 54.288258 
L 29.951143 56.999346 
L 29.756381 59.720734 
L 29.560025 62.432611 
L 29.471222 65.062805 
L 29.669634 67.394686 
L 30.365415 69.177877 
L 31.664709 70.325116 
L 33.613403 70.889077 
L 36.043778 70.997468 
L 38.701677 70.863793 
L 41.43231 70.661199 
L 44.15043 70.477035 
L 46.858582 70.348714 
L 49.558246 70.288855 
L 52.252777 70.308707 
L 54.956785 70.404883 
L 57.670285 70.562861 
L 60.397931 70.766336 
L 63.088682 70.94638 
L 65.67627 70.986742 
L 67.901527 70.675545 
L 69.512513 69.837552 
L 70.50987 68.381787 
L 70.943965 66.275657 
L 70.968461 63.777202 
L 70.80843 61.090673 
L 70.603443 58.353912 
L 70.431152 55.640555 
L 70.318461 52.936188 
L 70.278557 50.237985 
" style="fill:none;stroke:#000000;stroke-linecap:square;stroke-opacity:0.7;stroke-width:1.5;"/>
   </g>
   <g id="line2d_6">
    <path clip-path="url(#p27e0bb2b6c)" d="M 132.516486 309.76725 
L 132.670794 307.0395 
L 133.096864 304.279359 
L 133.716784 301.484362 
L 134.444659 298.651949 
L 135.182237 295.812762 
L 135.749253 293.100709 
L 135.814908 290.859426 
L 135.118282 289.524577 
L 133.543942 289.007773 
L 131.124327 289.239571 
L 128.375942 289.870896 
L 125.524054 290.619116 
L 122.70178 291.327589 
L 119.918508 291.907629 
L 117.162825 292.273493 
L 114.439111 292.353815 
L 111.705649 292.123672 
L 108.933104 291.641858 
L 106.128711 290.988122 
L 103.288388 290.247006 
L 100.470362 289.526859 
L 97.815089 289.049949 
L 95.760456 289.173929 
L 94.675274 290.055043 
L 94.350026 291.87549 
L 94.720781 294.43229 
L 95.402688 297.214103 
L 96.151358 300.0659 
L 96.835124 302.879442 
L 97.369875 305.653846 
L 97.669446 308.402735 
L 97.670407 311.122314 
L 97.370535 313.86518 
L 96.83737 316.646005 
L 96.153596 319.458718 
L 95.405958 322.305365 
L 94.718431 325.093476 
L 94.352776 327.677753 
L 94.675685 329.474197 
L 95.755917 330.358686 
L 97.819857 330.48621 
L 100.466785 330.00437 
L 103.279835 329.28633 
L 106.123963 328.545848 
L 108.92864 327.891311 
L 111.69401 327.407861 
L 114.436879 327.179171 
L 117.156277 327.257468 
L 119.908282 327.623083 
L 122.697574 328.202706 
L 125.519716 328.911026 
L 128.366271 329.657298 
L 131.112697 330.296267 
L 133.579562 330.521304 
L 135.115314 330.004055 
L 135.814505 328.699584 
L 135.750044 326.421711 
L 135.182484 323.711184 
L 134.441992 320.875229 
L 133.716062 318.045255 
L 133.096948 315.248505 
L 132.669757 312.488019 
L 132.517443 309.764811 
" style="fill:none;stroke:#000000;stroke-linecap:square;stroke-opacity:0.7;stroke-width:1.5;"/>
   </g>
   <g id="line2d_7">
    <path clip-path="url(#p27e0bb2b6c)" d="M 133.885378 244.884547 
L 133.972427 242.144779 
L 134.218333 239.386542 
L 134.586633 236.61084 
L 135.035639 233.80721 
L 135.501012 230.988732 
L 135.837107 228.314937 
L 135.749807 226.103802 
L 134.987106 224.761442 
L 133.418618 224.16267 
L 131.033737 224.218072 
L 128.307804 224.608037 
L 125.486473 225.078091 
L 122.694878 225.51175 
L 119.921978 225.851955 
L 117.164723 226.061608 
L 114.428822 226.107317 
L 111.684076 225.975854 
L 108.918604 225.695749 
L 106.137468 225.303094 
L 103.325474 224.842256 
L 100.526126 224.389057 
L 97.908359 224.127023 
L 95.917327 224.376702 
L 94.779298 225.306681 
L 94.351917 227.110396 
L 94.524732 229.628696 
L 94.953077 232.3939 
L 95.421674 235.212649 
L 95.83597 237.996614 
L 96.146356 240.766195 
L 96.31794 243.519232 
L 96.319152 246.253132 
L 96.147162 249.002655 
L 95.834968 251.772431 
L 95.42025 254.559594 
L 94.953137 257.378471 
L 94.521756 260.148543 
L 94.355704 262.691024 
L 94.778702 264.437034 
L 95.886742 265.389345 
L 97.919423 265.643468 
L 100.533242 265.379148 
L 103.328576 264.925315 
L 106.138696 264.464005 
L 108.91707 264.072157 
L 111.683298 263.793562 
L 114.43175 263.661601 
L 117.165732 263.705066 
L 119.920261 263.915811 
L 122.694743 264.257617 
L 125.488988 264.690619 
L 128.30934 265.158526 
L 131.037623 265.556569 
L 133.454004 265.597753 
L 134.980578 265.005214 
L 135.746182 263.687925 
L 135.838666 261.454099 
L 135.5023 258.774746 
L 135.034101 255.958998 
L 134.586826 253.156541 
L 134.218444 250.379837 
L 133.971999 247.621433 
L 133.885837 244.883917 
" style="fill:none;stroke:#000000;stroke-linecap:square;stroke-opacity:0.7;stroke-width:1.5;"/>
   </g>
   <g id="line2d_8">
    <path clip-path="url(#p27e0bb2b6c)" d="M 134.763158 180.004296 
L 134.846403 177.422435 
L 135.095658 174.791784 
L 135.432102 172.098779 
L 135.743481 169.442908 
L 135.873216 166.912064 
L 135.68726 164.536708 
L 135.033041 162.502212 
L 133.860903 160.926356 
L 132.156505 159.875015 
L 130.032773 159.34582 
L 127.602951 159.249828 
L 125.041452 159.434722 
L 122.363683 159.766755 
L 119.6906 160.091731 
L 117.071246 160.303686 
L 114.475419 160.35045 
L 111.868464 160.217484 
L 109.228327 159.940807 
L 106.530465 159.59537 
L 103.90736 159.315284 
L 101.40587 159.254743 
L 99.098375 159.542504 
L 97.167034 160.329904 
L 95.725901 161.629465 
L 94.803934 163.459562 
L 94.397666 165.669694 
L 94.385349 168.144673 
L 94.620594 170.735468 
L 94.964607 173.429383 
L 95.268869 176.084965 
L 95.442714 178.697451 
L 95.443497 181.291099 
L 95.269825 183.904927 
L 94.966826 186.559767 
L 94.623154 189.255678 
L 94.383806 191.847381 
L 94.399776 194.316524 
L 94.798589 196.539773 
L 95.722597 198.363155 
L 97.148892 199.667924 
L 99.096086 200.458638 
L 101.384489 200.751794 
L 103.8936 200.688719 
L 106.515964 200.410535 
L 109.21306 200.067103 
L 111.858343 199.789262 
L 114.468832 199.650698 
L 117.052175 199.699042 
L 119.676638 199.917252 
L 122.35893 200.235958 
L 125.050336 200.565858 
L 127.607305 200.758614 
L 130.03017 200.657133 
L 132.158146 200.132562 
L 133.864757 199.068401 
L 135.030538 197.512937 
L 135.687928 195.457791 
L 135.873295 193.096661 
L 135.742821 190.55811 
L 135.432583 187.906919 
L 135.095499 185.215487 
L 134.846933 182.58452 
L 134.762586 180.000488 
" style="fill:none;stroke:#000000;stroke-linecap:square;stroke-opacity:0.7;stroke-width:1.5;"/>
   </g>
   <g id="line2d_9">
    <path clip-path="url(#p27e0bb2b6c)" d="M 132.815271 115.122139 
L 132.970798 112.429167 
L 133.401744 109.703239 
L 134.028482 106.939238 
L 134.753546 104.124804 
L 135.423284 101.348962 
L 135.842016 98.73548 
L 135.720235 96.517901 
L 134.863967 95.09581 
L 133.238806 94.414728 
L 130.870003 94.456404 
L 128.205604 94.962194 
L 125.409306 95.66105 
L 122.602136 96.373713 
L 119.852742 96.959806 
L 117.130811 97.329127 
L 114.441143 97.409689 
L 111.742869 97.176273 
L 109.003685 96.688524 
L 106.227023 96.027698 
L 103.413937 95.300638 
L 100.662468 94.668044 
L 98.112878 94.361158 
L 96.082624 94.658314 
L 94.851962 95.695009 
L 94.355001 97.527342 
L 94.542885 100.011865 
L 95.119685 102.721433 
L 95.837791 105.534607 
L 96.528592 108.324945 
L 97.068395 111.064681 
L 97.370739 113.780883 
L 97.371316 116.465486 
L 97.067304 119.173294 
L 96.527641 121.921871 
L 95.837625 124.71132 
L 95.120289 127.515852 
L 94.538446 130.237609 
L 94.362897 132.711702 
L 94.843444 134.529907 
L 96.06528 135.574509 
L 98.098113 135.884696 
L 100.666104 135.571783 
L 103.412116 134.940009 
L 106.232888 134.213594 
L 109.00828 133.551288 
L 111.739238 133.063481 
L 114.449601 132.832312 
L 117.133373 132.911602 
L 119.850858 133.282032 
L 122.609133 133.868275 
L 125.413329 134.580517 
L 128.200198 135.276779 
L 130.879514 135.792073 
L 133.252712 135.815259 
L 134.853737 135.150892 
L 135.715268 133.733599 
L 135.842606 131.518955 
L 135.425392 128.890913 
L 134.752573 126.116732 
L 134.028497 123.300682 
L 133.401695 120.536097 
L 132.970297 117.809904 
L 132.815729 115.119197 
" style="fill:none;stroke:#000000;stroke-linecap:square;stroke-opacity:0.7;stroke-width:1.5;"/>
   </g>
   <g id="line2d_10">
    <path clip-path="url(#p27e0bb2b6c)" d="M 128.571982 50.239219 
L 128.972563 47.651095 
L 130.0251 44.909201 
L 131.410655 42.069764 
L 132.873425 39.19791 
L 134.26003 36.355695 
L 135.391302 33.553361 
L 135.876253 31.091926 
L 135.33678 29.808366 
L 133.741874 29.496462 
L 131.129901 30.196812 
L 128.320794 31.407489 
L 125.467216 32.82681 
L 122.595432 34.284828 
L 119.776281 35.622866 
L 117.061443 36.544638 
L 114.48691 36.758718 
L 111.827452 36.156931 
L 109.069819 34.992854 
L 106.213255 33.568191 
L 103.340841 32.11149 
L 100.509452 30.768876 
L 97.728168 29.742273 
L 95.508003 29.528113 
L 94.512918 30.293102 
L 94.46578 32.228515 
L 95.348937 34.93235 
L 96.629589 37.751043 
L 98.07379 40.614827 
L 99.516832 43.478766 
L 100.782616 46.270767 
L 101.549885 48.961423 
L 101.552496 51.518768 
L 100.776319 54.217089 
L 99.517038 57.000705 
L 98.068938 59.869186 
L 96.628053 62.734618 
L 95.343505 65.550327 
L 94.454233 68.27672 
L 94.51907 70.197748 
L 95.520369 70.953392 
L 97.753588 70.729195 
L 100.517555 69.701582 
L 103.347095 68.365754 
L 106.214113 66.906299 
L 109.06578 65.488546 
L 111.832455 64.317861 
L 114.483049 63.72019 
L 117.058719 63.931312 
L 119.78188 64.857078 
L 122.593636 66.192009 
L 125.468362 67.652067 
L 128.326451 69.069835 
L 131.122242 70.280688 
L 133.741745 70.990777 
L 135.348067 70.663574 
L 135.877426 69.380745 
L 135.394591 66.918358 
L 134.254724 64.115832 
L 132.87477 61.278336 
L 131.410058 58.410183 
L 130.02788 55.569428 
L 128.973361 52.832311 
L 128.571476 50.238754 
" style="fill:none;stroke:#000000;stroke-linecap:square;stroke-opacity:0.7;stroke-width:1.5;"/>
   </g>
   <g id="line2d_11">
    <path clip-path="url(#p27e0bb2b6c)" d="M 190.05693 309.767353 
L 190.754764 307.381108 
L 192.492227 304.653238 
L 194.515927 301.799441 
L 196.49501 298.952999 
L 198.331215 296.089352 
L 199.898766 293.178546 
L 200.757711 290.516223 
L 200.32833 289.229859 
L 198.64845 289.104141 
L 195.848003 290.219681 
L 192.948639 291.871172 
L 190.090953 293.75391 
L 187.243047 295.752888 
L 184.400533 297.761371 
L 181.719339 299.31582 
L 179.414101 299.657686 
L 176.916207 298.615181 
L 174.149454 296.750881 
L 171.295989 294.725622 
L 168.444977 292.775482 
L 165.572585 290.992549 
L 162.671792 289.535942 
L 160.264376 289.00492 
L 159.312267 289.702451 
L 159.529263 291.796579 
L 160.83727 294.650811 
L 162.56046 297.538884 
L 164.480281 300.389623 
L 166.497119 303.24136 
L 168.452731 306.053091 
L 169.767278 308.65026 
L 169.753995 310.928141 
L 168.419057 313.52966 
L 166.465001 316.333279 
L 164.452027 319.182376 
L 162.532624 322.039184 
L 160.815312 324.917958 
L 159.503664 327.779812 
L 159.319072 329.852669 
L 160.29324 330.530775 
L 162.728768 329.970272 
L 165.610848 328.513565 
L 168.488729 326.729869 
L 171.333783 324.778906 
L 174.186882 322.753933 
L 176.958218 320.888633 
L 179.450142 319.866597 
L 181.767977 320.234582 
L 184.446777 321.804803 
L 187.28341 323.806605 
L 190.128467 325.805825 
L 192.986605 327.680495 
L 195.884323 329.336782 
L 198.686626 330.436798 
L 200.339931 330.29278 
L 200.755881 328.988345 
L 199.879811 326.301145 
L 198.304427 323.405081 
L 196.468774 320.538102 
L 194.490001 317.694965 
L 192.46806 314.842616 
L 190.742924 312.124083 
L 190.059728 309.764494 
" style="fill:none;stroke:#000000;stroke-linecap:square;stroke-opacity:0.7;stroke-width:1.5;"/>
   </g>
   <g id="line2d_12">
    <path clip-path="url(#p27e0bb2b6c)" d="M 199.148838 244.884263 
L 199.215608 242.131171 
L 199.405422 239.363505 
L 199.692092 236.582691 
L 200.046189 233.782431 
L 200.425295 230.960737 
L 200.720026 228.251678 
L 200.645393 226.027326 
L 199.923036 224.717942 
L 198.377319 224.155046 
L 195.968319 224.212509 
L 193.215907 224.546459 
L 190.395968 224.925229 
L 187.604004 225.265756 
L 184.825644 225.52991 
L 182.059047 225.691534 
L 179.307863 225.726693 
L 176.550511 225.625749 
L 173.778045 225.409263 
L 170.993395 225.102802 
L 168.186546 224.737519 
L 165.375636 224.363288 
L 162.714786 224.125255 
L 160.72725 224.356328 
L 159.627409 225.2411 
L 159.231309 227.038448 
L 159.391942 229.584227 
L 159.752564 232.369857 
L 160.126305 235.182582 
L 160.450349 237.969352 
L 160.691041 240.745288 
L 160.823391 243.508708 
L 160.824366 246.258198 
L 160.691864 249.019039 
L 160.450045 251.795119 
L 160.125992 254.584579 
L 159.753421 257.398119 
L 159.388997 260.187589 
L 159.234809 262.760453 
L 159.631829 264.519688 
L 160.701863 265.411603 
L 162.736615 265.644412 
L 165.383675 265.405246 
L 168.190028 265.029718 
L 170.994539 264.664441 
L 173.777639 264.358825 
L 176.55095 264.143353 
L 179.310886 264.041923 
L 182.060402 264.075497 
L 184.824931 264.238093 
L 187.604627 264.503467 
L 190.399223 264.843306 
L 193.218429 265.220557 
L 195.968804 265.561191 
L 198.417468 265.608183 
L 199.919459 265.045268 
L 200.644679 263.764575 
L 200.720921 261.507024 
L 200.4262 258.799122 
L 200.04458 255.983694 
L 199.692285 253.184538 
L 199.405622 250.402399 
L 199.21514 247.63476 
L 199.149374 244.884082 
" style="fill:none;stroke:#000000;stroke-linecap:square;stroke-opacity:0.7;stroke-width:1.5;"/>
   </g>
   <g id="line2d_13">
    <path clip-path="url(#p27e0bb2b6c)" d="M 188.848212 180.00397 
L 189.649662 177.682694 
L 191.602415 174.92837 
L 193.77473 172.061461 
L 195.886897 169.195699 
L 197.869562 166.299003 
L 199.629072 163.350632 
L 200.73794 160.63202 
L 200.425786 159.38809 
L 198.779528 159.416204 
L 195.918575 160.768482 
L 192.974357 162.603972 
L 190.087895 164.625548 
L 187.225064 166.756742 
L 184.35893 168.931625 
L 181.664784 170.698988 
L 179.461652 171.098916 
L 177.002248 169.917438 
L 174.196362 167.844583 
L 171.333025 165.681689 
L 168.460307 163.594265 
L 165.550663 161.656232 
L 162.614529 159.995314 
L 160.159969 159.216081 
L 159.256575 159.822518 
L 159.672269 161.911232 
L 161.193213 164.816453 
L 163.090776 167.751214 
L 165.143398 170.627852 
L 167.293417 173.489096 
L 169.440059 176.334356 
L 170.950144 178.930693 
L 170.942682 181.092512 
L 169.429726 183.681389 
L 167.290229 186.518722 
L 165.141971 189.381686 
L 163.082544 192.261555 
L 161.198989 195.180613 
L 159.663838 198.097868 
L 159.25899 200.186174 
L 160.157752 200.790605 
L 162.632923 199.997981 
L 165.553521 198.344831 
L 168.474334 196.398792 
L 171.342261 194.318153 
L 174.205386 192.152381 
L 177.007833 190.080046 
L 179.465843 188.901539 
L 181.679624 189.308523 
L 184.373589 191.08285 
L 187.229727 193.25205 
L 190.094972 195.381488 
L 192.984101 197.411063 
L 195.912191 199.22837 
L 198.775919 200.590896 
L 200.427818 200.615459 
L 200.738902 199.372443 
L 199.621274 196.630014 
L 197.861051 193.701273 
L 195.876631 190.79328 
L 193.77069 187.935343 
L 191.598541 185.073738 
L 189.643504 182.313353 
L 188.848497 180.001185 
" style="fill:none;stroke:#000000;stroke-linecap:square;stroke-opacity:0.7;stroke-width:1.5;"/>
   </g>
   <g id="line2d_14">
    <path clip-path="url(#p27e0bb2b6c)" d="M 196.770725 115.122313 
L 196.940216 112.374016 
L 197.411275 109.585229 
L 198.086741 106.75145 
L 198.870143 103.895366 
L 199.697812 101.017312 
L 200.442795 98.201428 
L 200.754406 95.817253 
L 200.243876 94.681471 
L 198.801613 94.360641 
L 196.225577 94.839894 
L 193.390225 95.620071 
L 190.512646 96.444834 
L 187.659697 97.207935 
L 184.839578 97.842866 
L 182.057914 98.247483 
L 179.311062 98.335764 
L 176.55278 98.079743 
L 173.748178 97.548983 
L 170.908425 96.839549 
L 168.048338 96.037545 
L 165.176077 95.215867 
L 162.397169 94.523239 
L 160.289598 94.422049 
L 159.403544 95.113775 
L 159.295539 96.906526 
L 159.897807 99.59457 
L 160.703424 102.449912 
L 161.518606 105.321182 
L 162.257199 108.169045 
L 162.844417 110.976999 
L 163.1758 113.751337 
L 163.175878 116.493445 
L 162.843117 119.262643 
L 162.257414 122.077164 
L 161.517726 124.923394 
L 160.702762 127.792184 
L 159.896492 130.649147 
L 159.286062 133.344211 
L 159.408813 135.139374 
L 160.298314 135.821847 
L 162.420558 135.711591 
L 165.181957 135.022116 
L 168.051328 134.201929 
L 170.915875 133.40049 
L 173.757211 132.690932 
L 176.552867 132.158862 
L 179.320747 131.906142 
L 182.062691 131.99422 
L 184.842508 132.399115 
L 187.667253 133.03398 
L 190.519555 133.798499 
L 193.395669 134.621993 
L 196.227797 135.401605 
L 198.778746 135.886772 
L 200.251888 135.56153 
L 200.76002 134.373842 
L 200.436617 132.02303 
L 199.696729 129.21812 
L 198.869012 126.340574 
L 198.085066 123.486776 
L 197.411479 120.653388 
L 196.939468 117.863146 
L 196.771398 115.119188 
" style="fill:none;stroke:#000000;stroke-linecap:square;stroke-opacity:0.7;stroke-width:1.5;"/>
   </g>
   <g id="line2d_15">
    <path clip-path="url(#p27e0bb2b6c)" d="M 193.946311 50.239066 
L 194.311793 47.625754 
L 195.278393 44.880555 
L 196.568273 42.045672 
L 197.947535 39.173912 
L 199.263032 36.331652 
L 200.327766 33.543198 
L 200.758913 31.108363 
L 200.199981 29.823064 
L 198.610493 29.485486 
L 196.02342 30.12747 
L 193.224184 31.271505 
L 190.368734 32.617574 
L 187.499574 33.988471 
L 184.68401 35.22917 
L 181.962682 36.073224 
L 179.35966 36.267769 
L 176.686207 35.719702 
L 173.926039 34.647422 
L 171.074694 33.316625 
L 168.201036 31.939528 
L 165.372007 30.665935 
L 162.606754 29.704455 
L 160.411965 29.5345 
L 159.406301 30.312561 
L 159.322799 32.230316 
L 160.1439 34.914794 
L 161.356711 37.727079 
L 162.724918 40.593701 
L 164.077374 43.453242 
L 165.246836 46.243834 
L 165.948131 48.943941 
L 165.950722 51.532765 
L 165.242973 54.239113 
L 164.079622 57.022086 
L 162.722292 59.886169 
L 161.35738 62.75412 
L 160.139598 65.564797 
L 159.312979 68.273523 
L 159.412181 70.17596 
L 160.421258 70.946946 
L 162.629027 70.768561 
L 165.377334 69.806602 
L 168.202535 68.538696 
L 171.07431 67.159385 
L 173.925446 65.832827 
L 176.686404 64.754975 
L 179.3626 64.212215 
L 181.957038 64.401591 
L 184.689067 65.250748 
L 187.496856 66.487953 
L 190.368972 67.86044 
L 193.23059 69.205988 
L 196.016929 70.352201 
L 198.621033 70.997768 
L 200.197982 70.660186 
L 200.766707 69.344865 
L 200.32696 66.925893 
L 199.26101 64.143711 
L 197.949559 61.304975 
L 196.568758 58.436665 
L 195.281827 55.60003 
L 194.312699 52.858802 
L 193.945665 50.238678 
" style="fill:none;stroke:#000000;stroke-linecap:square;stroke-opacity:0.7;stroke-width:1.5;"/>
   </g>
   <g id="line2d_16">
    <path clip-path="url(#p27e0bb2b6c)" d="M 264.030536 309.769465 
L 264.166931 307.225475 
L 264.54017 304.614168 
L 265.028193 301.914956 
L 265.449713 299.278631 
L 265.636291 296.759879 
L 265.461051 294.379986 
L 264.791386 292.328495 
L 263.581561 290.718612 
L 261.844686 289.635325 
L 259.705501 289.097169 
L 257.276563 289.023213 
L 254.727569 289.279167 
L 252.066762 289.734359 
L 249.387601 290.209411 
L 246.790644 290.532405 
L 244.249913 290.606079 
L 241.683068 290.398228 
L 239.049998 289.984681 
L 236.352393 289.494311 
L 233.745751 289.117257 
L 231.254329 289.011517 
L 228.937716 289.298504 
L 226.985983 290.106608 
L 225.508376 291.446512 
L 224.559641 293.30338 
L 224.150635 295.526893 
L 224.171898 297.996256 
L 224.491108 300.572866 
L 224.970836 303.258453 
L 225.420063 305.912056 
L 225.687518 308.494659 
L 225.689107 311.030325 
L 225.419964 313.612946 
L 224.972106 316.268611 
L 224.492652 318.956361 
L 224.169616 321.534128 
L 224.152657 323.9941 
L 224.55906 326.2333 
L 225.507635 328.079529 
L 226.976244 329.421506 
L 228.94395 330.233809 
L 231.241683 330.521186 
L 233.744413 330.412909 
L 236.350155 330.039054 
L 239.044014 329.548212 
L 241.673344 329.134106 
L 244.250884 328.926023 
L 246.782044 328.997465 
L 249.375903 329.32377 
L 252.065733 329.796078 
L 254.737898 330.251777 
L 257.27923 330.511729 
L 259.700169 330.431468 
L 261.852725 329.897352 
L 263.583425 328.807526 
L 264.788104 327.209892 
L 265.463422 325.142574 
L 265.636233 322.775125 
L 265.448075 320.248661 
L 265.028632 317.61575 
L 264.539983 314.916179 
L 264.166533 312.304874 
L 264.030906 309.762787 
" style="fill:none;stroke:#000000;stroke-linecap:square;stroke-opacity:0.7;stroke-width:1.5;"/>
   </g>
   <g id="line2d_17">
    <path clip-path="url(#p27e0bb2b6c)" d="M 260.281155 244.888592 
L 260.573102 242.210404 
L 261.331973 239.485065 
L 262.386595 236.67845 
L 263.537182 233.828098 
L 264.620412 231.011541 
L 265.420416 228.301666 
L 265.599147 225.974403 
L 264.89688 224.607593 
L 263.251562 224.117793 
L 260.773443 224.505465 
L 258.030352 225.40288 
L 255.199305 226.518851 
L 252.353478 227.661386 
L 249.571309 228.658194 
L 246.85439 229.313423 
L 244.213538 229.459013 
L 241.528823 229.034765 
L 238.783967 228.184747 
L 235.965378 227.091215 
L 233.113828 225.941191 
L 230.316661 224.902501 
L 227.642433 224.217939 
L 225.526433 224.260313 
L 224.401594 225.166302 
L 224.130874 227.065558 
L 224.68715 229.658662 
L 225.660701 232.427709 
L 226.80024 235.272242 
L 227.921464 238.105417 
L 228.852297 240.86829 
L 229.394795 243.570539 
L 229.395857 246.203459 
L 228.848415 248.908771 
L 227.920484 251.668776 
L 226.796026 254.504081 
L 225.659628 257.347591 
L 224.679153 260.11953 
L 224.132754 262.742228 
L 224.404908 264.600734 
L 225.524133 265.510918 
L 227.661328 265.553166 
L 230.33088 264.858941 
L 233.122314 263.824242 
L 235.973757 262.67254 
L 238.793664 261.58153 
L 241.536938 260.729762 
L 244.223508 260.310447 
L 246.859675 260.454489 
L 249.582286 261.114226 
L 252.359737 262.10892 
L 255.208811 263.25354 
L 258.040065 264.366187 
L 260.777441 265.271045 
L 263.302452 265.648395 
L 264.896232 265.154854 
L 265.602959 263.800911 
L 265.42146 261.460289 
L 264.615469 258.740481 
L 263.533284 255.92983 
L 262.381655 253.082151 
L 261.331312 250.275429 
L 260.570007 247.547612 
L 260.283331 244.88041 
" style="fill:none;stroke:#000000;stroke-linecap:square;stroke-opacity:0.7;stroke-width:1.5;"/>
   </g>
   <g id="line2d_18">
    <path clip-path="url(#p27e0bb2b6c)" d="M 260.054776 180.003035 
L 260.443125 177.546264 
L 261.481379 174.906243 
L 262.812949 172.159851 
L 264.067573 169.428033 
L 265.057408 166.709466 
L 265.608425 164.070008 
L 265.437933 161.737824 
L 264.432425 160.128333 
L 262.629738 159.322301 
L 260.183862 159.347184 
L 257.505942 160.03111 
L 254.787491 161.098024 
L 252.042842 162.39634 
L 249.319798 163.689093 
L 246.719562 164.602663 
L 244.270305 164.800302 
L 241.773968 164.220926 
L 239.103086 163.078965 
L 236.344314 161.73339 
L 233.622074 160.532722 
L 230.901878 159.63073 
L 228.32116 159.236152 
L 226.13566 159.614625 
L 224.723356 160.823585 
L 224.128204 162.817483 
L 224.340885 165.350357 
L 225.143714 168.053209 
L 226.280962 170.773809 
L 227.613615 173.534055 
L 228.839664 176.22175 
L 229.600545 178.775827 
L 229.598756 181.215154 
L 228.850719 183.764446 
L 227.613428 186.466183 
L 226.280719 189.236968 
L 225.140303 191.954153 
L 224.340554 194.664431 
L 224.128296 197.170894 
L 224.720428 199.178718 
L 226.138678 200.389925 
L 228.312571 200.765168 
L 230.907033 200.377085 
L 233.623651 199.469 
L 236.349717 198.268508 
L 239.113749 196.921771 
L 241.769215 195.784882 
L 244.277554 195.201839 
L 246.729827 195.407202 
L 249.314032 196.313227 
L 252.057553 197.614412 
L 254.813762 198.916771 
L 257.523695 199.981863 
L 260.217304 200.662469 
L 262.631281 200.677319 
L 264.440857 199.869414 
L 265.444121 198.244219 
L 265.60229 195.91488 
L 265.055955 193.277921 
L 264.056366 190.555351 
L 262.801636 187.819788 
L 261.466635 185.067564 
L 260.439591 182.439863 
L 260.056223 180.00154 
" style="fill:none;stroke:#000000;stroke-linecap:square;stroke-opacity:0.7;stroke-width:1.5;"/>
   </g>
   <g id="line2d_19">
    <path clip-path="url(#p27e0bb2b6c)" d="M 261.532339 115.122442 
L 261.708054 112.375704 
L 262.195041 109.587236 
L 262.891544 106.751799 
L 263.696829 103.894009 
L 264.545728 101.014614 
L 265.310159 98.196591 
L 265.637008 95.809495 
L 265.132848 94.675255 
L 263.690434 94.362971 
L 261.111288 94.859085 
L 258.274281 95.659078 
L 255.395002 96.505436 
L 252.540152 97.290392 
L 249.718925 97.945627 
L 246.937964 98.364047 
L 244.193097 98.455449 
L 241.436661 98.190523 
L 238.63163 97.641957 
L 235.78999 96.91099 
L 232.928334 96.087193 
L 230.054907 95.244757 
L 227.274442 94.533468 
L 225.163467 94.418717 
L 224.280693 95.105558 
L 224.183423 96.900451 
L 224.803662 99.591091 
L 225.629432 102.447678 
L 226.466492 105.321025 
L 227.226816 108.17077 
L 227.833247 110.979252 
L 228.176058 113.752664 
L 228.176175 116.492468 
L 227.831927 119.260338 
L 227.226917 122.075799 
L 226.465491 124.923918 
L 225.628818 127.794365 
L 224.802269 130.65255 
L 224.174232 133.34923 
L 224.28538 135.147207 
L 225.172176 135.824872 
L 227.29783 135.701313 
L 230.061221 134.992928 
L 232.932036 134.152079 
L 235.79856 133.328701 
L 238.641726 132.597684 
L 241.437286 132.047923 
L 244.20399 131.7865 
L 246.943538 131.877701 
L 249.722579 132.296505 
L 252.548776 132.951899 
L 255.402779 133.738202 
L 258.280498 134.583226 
L 261.114409 135.382618 
L 263.666424 135.883772 
L 265.14141 135.56835 
L 265.641684 134.379907 
L 265.303785 132.028047 
L 264.54446 129.220573 
L 263.695695 126.341765 
L 262.889736 123.486236 
L 262.195237 120.651259 
L 261.707256 117.861265 
L 261.533047 115.119062 
" style="fill:none;stroke:#000000;stroke-linecap:square;stroke-opacity:0.7;stroke-width:1.5;"/>
   </g>
   <g id="line2d_20">
    <path clip-path="url(#p27e0bb2b6c)" d="M 259.036736 50.238957 
L 259.380984 47.603534 
L 260.293817 44.849376 
L 261.519813 42.009599 
L 262.843955 39.133641 
L 264.126511 36.281003 
L 265.187978 33.483887 
L 265.63931 31.049799 
L 265.107923 29.805517 
L 263.55552 29.492706 
L 260.961746 30.151962 
L 258.153133 31.284444 
L 255.28659 32.592623 
L 252.416402 33.903867 
L 249.594365 35.080911 
L 246.862699 35.877074 
L 244.236496 36.060024 
L 241.548518 35.545648 
L 238.779119 34.531557 
L 235.924694 33.264777 
L 233.04411 31.937187 
L 230.205725 30.690689 
L 227.435423 29.723438 
L 225.24667 29.530088 
L 224.279157 30.273627 
L 224.217863 32.164974 
L 225.047488 34.852713 
L 226.240255 37.67465 
L 227.56435 40.550319 
L 228.854899 43.411332 
L 229.963491 46.210349 
L 230.625638 48.922255 
L 230.630226 51.536133 
L 229.966593 54.253363 
L 228.865479 57.044318 
L 227.570973 59.909749 
L 226.24917 62.787915 
L 225.051394 65.607645 
L 224.209856 68.31686 
L 224.281424 70.208221 
L 225.247155 70.949026 
L 227.440774 70.752036 
L 230.191946 69.789919 
L 233.027165 68.54952 
L 235.905066 67.220119 
L 238.758985 65.956555 
L 241.530616 64.934884 
L 244.22099 64.420718 
L 246.839555 64.594848 
L 249.580388 65.391587 
L 252.39391 66.563709 
L 255.268832 67.877378 
L 258.140003 69.184716 
L 260.935763 70.318526 
L 263.53242 70.991959 
L 265.108467 70.679201 
L 265.645207 69.407233 
L 265.191202 67.002791 
L 264.134793 64.217748 
L 262.855545 61.366821 
L 261.531174 58.496099 
L 260.305334 55.65208 
L 259.386709 52.902794 
L 259.032632 50.234109 
" style="fill:none;stroke:#000000;stroke-linecap:square;stroke-opacity:0.7;stroke-width:1.5;"/>
   </g>
   <g id="line2d_21">
    <path clip-path="url(#p27e0bb2b6c)" d="M 328.763099 309.767925 
L 328.874578 307.15014 
L 329.198927 304.490145 
L 329.658229 301.775001 
L 330.139956 299.050797 
L 330.463194 296.434943 
L 330.473827 293.975275 
L 329.971291 291.87345 
L 328.879121 290.32624 
L 327.186709 289.378033 
L 324.980082 289.012156 
L 322.46598 289.116591 
L 319.82199 289.492616 
L 317.085431 289.984711 
L 314.389265 290.418117 
L 311.732117 290.698044 
L 309.11116 290.759767 
L 306.479049 290.58125 
L 303.799767 290.217349 
L 301.069223 289.741965 
L 298.370134 289.280489 
L 295.785809 289.020018 
L 293.397753 289.122658 
L 291.418736 289.772187 
L 290.022979 291.014841 
L 289.225183 292.85521 
L 288.994227 295.154782 
L 289.184147 297.715502 
L 289.605062 300.386676 
L 290.096474 303.124248 
L 290.498375 305.807022 
L 290.72815 308.456895 
L 290.728368 311.073158 
L 290.496631 313.715542 
L 290.096696 316.407288 
L 289.607797 319.150238 
L 289.181691 321.816471 
L 288.996203 324.373097 
L 289.221908 326.670909 
L 290.023757 328.516393 
L 291.410323 329.754304 
L 293.404148 330.40923 
L 295.771413 330.5142 
L 298.372544 330.247932 
L 301.071545 329.794617 
L 303.803784 329.31267 
L 306.471112 328.946933 
L 309.109333 328.775221 
L 311.734621 328.835009 
L 314.386565 329.111723 
L 317.08346 329.546405 
L 319.824615 330.040261 
L 322.461728 330.416341 
L 324.987298 330.51604 
L 327.176981 330.159017 
L 328.881387 329.201437 
L 329.967085 327.665882 
L 330.474191 325.546869 
L 330.465572 323.107737 
L 330.137922 320.480258 
L 329.658965 317.755447 
L 329.198814 315.040909 
L 328.874408 312.381455 
L 328.763246 309.76384 
" style="fill:none;stroke:#000000;stroke-linecap:square;stroke-opacity:0.7;stroke-width:1.5;"/>
   </g>
   <g id="line2d_22">
    <path clip-path="url(#p27e0bb2b6c)" d="M 328.053159 244.885808 
L 328.185468 242.213906 
L 328.560057 239.509544 
L 329.105542 236.766172 
L 329.728432 233.97801 
L 330.26192 231.254072 
L 330.521877 228.701303 
L 330.246679 226.521191 
L 329.297161 225.050759 
L 327.648015 224.266884 
L 325.336724 224.143812 
L 322.725622 224.495186 
L 319.97942 225.065398 
L 317.194456 225.682906 
L 314.46557 226.192807 
L 311.763895 226.513859 
L 309.09254 226.583728 
L 306.412199 226.380682 
L 303.693828 225.957133 
L 300.938789 225.383073 
L 298.160167 224.764761 
L 295.460858 224.277683 
L 292.980614 224.131231 
L 290.960973 224.56857 
L 289.665495 225.689458 
L 289.052436 227.521313 
L 289.071419 229.938376 
L 289.49912 232.59779 
L 290.097475 235.366021 
L 290.698777 238.13725 
L 291.168089 240.856706 
L 291.430776 243.552754 
L 291.431107 246.21976 
L 291.166643 248.908893 
L 290.697965 251.636415 
L 290.0985 254.405704 
L 289.498683 257.165909 
L 289.070391 259.836851 
L 289.054313 262.230073 
L 289.65945 264.070818 
L 290.95517 265.195057 
L 292.963056 265.636585 
L 295.460858 265.49149 
L 298.158462 265.002597 
L 300.94415 264.386491 
L 303.698182 263.809692 
L 306.409113 263.38596 
L 309.099513 263.185281 
L 311.766172 263.254454 
L 314.464385 263.576542 
L 317.201278 264.085605 
L 319.982652 264.702957 
L 322.717087 265.272481 
L 325.347704 265.62662 
L 327.644428 265.498139 
L 329.285924 264.722559 
L 330.245486 263.248649 
L 330.519645 261.0741 
L 330.266048 258.519326 
L 329.727991 255.796341 
L 329.106137 253.001748 
L 328.559982 250.257377 
L 328.185353 247.55468 
L 328.053268 244.881612 
" style="fill:none;stroke:#000000;stroke-linecap:square;stroke-opacity:0.7;stroke-width:1.5;"/>
   </g>
   <g id="line2d_23">
    <path clip-path="url(#p27e0bb2b6c)" d="M 328.20215 180.003066 
L 328.308239 177.275866 
L 328.606388 174.526401 
L 329.049329 171.754745 
L 329.582376 168.94638 
L 330.116847 166.13731 
L 330.482569 163.488398 
L 330.384844 161.280596 
L 329.591396 159.912717 
L 328.00463 159.286545 
L 325.63229 159.338985 
L 322.926623 159.770087 
L 320.109937 160.315616 
L 317.317684 160.832532 
L 314.549117 161.242727 
L 311.800272 161.4974 
L 309.07923 161.553218 
L 306.346559 161.393245 
L 303.587103 161.054159 
L 300.808296 160.583305 
L 297.993379 160.0395 
L 295.207888 159.524767 
L 292.617826 159.24573 
L 290.618442 159.510065 
L 289.449937 160.474857 
L 288.999041 162.285053 
L 289.178879 164.787086 
L 289.658571 167.53457 
L 290.207563 170.35362 
L 290.703194 173.135971 
L 291.078251 175.900348 
L 291.286952 178.643712 
L 291.288593 181.36221 
L 291.079552 184.101175 
L 290.702358 186.866045 
L 290.206585 189.652265 
L 289.659632 192.470575 
L 289.175277 195.225467 
L 289.004806 197.739251 
L 289.445256 199.506411 
L 290.590627 200.489148 
L 292.616868 200.76243 
L 295.213779 200.479438 
L 297.993493 199.965442 
L 300.807928 199.420421 
L 303.582879 198.950214 
L 306.343028 198.61306 
L 309.080547 198.452449 
L 311.799289 198.505211 
L 314.544655 198.760992 
L 317.315212 199.173127 
L 320.110423 199.689252 
L 322.925483 200.232065 
L 325.636859 200.672671 
L 328.032394 200.708514 
L 329.583878 200.093715 
L 330.379497 198.744413 
L 330.48447 196.523731 
L 330.118301 193.864374 
L 329.580959 191.0564 
L 329.049519 188.249137 
L 328.606434 185.47682 
L 328.307859 182.727023 
L 328.202536 180.001901 
" style="fill:none;stroke:#000000;stroke-linecap:square;stroke-opacity:0.7;stroke-width:1.5;"/>
   </g>
   <g id="line2d_24">
    <path clip-path="url(#p27e0bb2b6c)" d="M 323.456915 115.12608 
L 323.840249 112.437707 
L 324.802881 109.681093 
L 326.083902 106.81468 
L 327.449232 103.928365 
L 328.79197 101.053567 
L 329.956359 98.221863 
L 330.534548 95.761544 
L 330.080131 94.597016 
L 328.553546 94.39874 
L 325.910661 95.204428 
L 323.064173 96.433024 
L 320.180642 97.79535 
L 317.298963 99.148835 
L 314.457656 100.373292 
L 311.718042 101.206486 
L 309.093945 101.392585 
L 306.399961 100.843215 
L 303.614804 99.775152 
L 300.742072 98.462361 
L 297.848103 97.088046 
L 294.987295 95.775658 
L 292.188572 94.694625 
L 289.987188 94.372068 
L 289.095904 95.043031 
L 289.163267 96.936889 
L 290.125111 99.666367 
L 291.399577 102.521804 
L 292.772334 105.411101 
L 294.106025 108.285565 
L 295.26357 111.103127 
L 295.958263 113.821133 
L 295.958598 116.432315 
L 295.255353 119.15756 
L 294.100706 121.967984 
L 292.763296 124.847461 
L 291.390703 127.741464 
L 290.117446 130.589037 
L 289.151223 133.321896 
L 289.09907 135.209005 
L 290.000743 135.871719 
L 292.220596 135.534667 
L 295.004034 134.455031 
L 297.868058 133.145221 
L 300.75842 131.770007 
L 303.627026 130.462103 
L 306.415655 129.39089 
L 309.110121 128.849496 
L 311.726744 129.035424 
L 314.477709 129.875343 
L 317.311301 131.098402 
L 320.197802 132.45437 
L 323.08652 133.816987 
L 325.919069 135.039159 
L 328.532941 135.846035 
L 330.08922 135.643506 
L 330.534829 134.463495 
L 329.949095 131.990658 
L 328.781142 129.170511 
L 327.444101 126.29599 
L 326.074946 123.412492 
L 324.801724 120.551457 
L 323.835569 117.788927 
L 323.459787 115.115508 
" style="fill:none;stroke:#000000;stroke-linecap:square;stroke-opacity:0.7;stroke-width:1.5;"/>
   </g>
   <g id="line2d_25">
    <path clip-path="url(#p27e0bb2b6c)" d="M 325.200388 50.242933 
L 325.483336 47.555751 
L 326.222586 44.820742 
L 327.251424 42.00821 
L 328.382395 39.152676 
L 329.463726 36.32533 
L 330.282751 33.601748 
L 330.49232 31.267169 
L 329.818386 29.927963 
L 328.193639 29.469225 
L 325.709613 29.885764 
L 322.953826 30.795998 
L 320.111058 31.905584 
L 317.26256 33.024935 
L 314.472731 33.99735 
L 311.746633 34.635422 
L 309.092915 34.777125 
L 306.397676 34.364822 
L 303.644209 33.536501 
L 300.820674 32.468434 
L 297.961132 31.333892 
L 295.153999 30.293016 
L 292.464001 29.58288 
L 290.350389 29.596738 
L 289.256428 30.474314 
L 289.017118 32.362444 
L 289.600098 34.962493 
L 290.58077 37.742951 
L 291.709431 40.597886 
L 292.805654 43.433797 
L 293.713429 46.205398 
L 294.241555 48.917139 
L 294.242733 51.563427 
L 293.710498 54.278262 
L 292.805752 57.046515 
L 291.706364 59.885066 
L 290.58045 62.739734 
L 289.593368 65.521078 
L 289.01627 68.155718 
L 289.261616 70.006184 
L 290.353179 70.885561 
L 292.487997 70.89539 
L 295.165719 70.178326 
L 297.968391 69.141371 
L 300.827094 68.005375 
L 303.651493 66.939893 
L 306.404087 66.109522 
L 309.100671 65.701536 
L 311.750185 65.84157 
L 314.481562 66.483402 
L 317.266682 67.453879 
L 320.119358 68.575339 
L 322.963161 69.682315 
L 325.709584 70.59829 
L 328.242501 71.009653 
L 329.821212 70.541549 
L 330.497921 69.212245 
L 330.283026 66.865879 
L 329.458573 64.136289 
L 328.378548 61.314169 
L 327.246696 58.461832 
L 326.222059 55.649483 
L 325.480473 52.911934 
L 325.202433 50.235286 
" style="fill:none;stroke:#000000;stroke-linecap:square;stroke-opacity:0.7;stroke-width:1.5;"/>
   </g>
  </g>
 </g>
 <defs>
  <clipPath id="p27e0bb2b6c">
   <rect height="329.04" width="329.04" x="15.48" y="15.48"/>
  </clipPath>
 </defs>
</svg>
